<svg xmlns="http://www.w3.org/2000/svg" width="101" height="35" viewBox="0 0 101 35">
  <defs>
    <linearGradient id="a" x1="50%" x2="50%" y1="0%" y2="100%">
      <stop stop-color="#4ED4FE" stop-opacity=".3" offset="0%"/>
      <stop stop-color="#4EECFF" offset="100%"/>
    </linearGradient>
  </defs>
  <g fill="none" fill-rule="evenodd" transform="translate(-1)" opacity=".896">
    <rect width="64.413" height="17.693" x="14.583" y="16.52" stroke="#4ED4FE"/>
    <polygon fill="url(#a)" points="78.779 .941 79.09 .941 79.402 19.8 78.467 19.8" transform="matrix(-1 0 0 1 157.934 0)"/>
    <polygon fill="#4ED4FE" points="88.021 21.349 88.332 21.349 88.644 47.207 87.709 47.207" transform="rotate(90 88.21 34.278)"/>
    <polygon fill="#4ED4FE" points="7.738 27.349 8.05 27.349 8.361 41.207 7.427 41.207" transform="matrix(0 1 1 0 -26.35 26.35)"/>
    <path fill="#4ED4FE" d="M24.5351076,19.8702484 L33.8831076,19.8702484 L33.8831076,20.7102484 L31.8791076,20.7102484 L31.8791076,23.8902484 L34.5071076,23.8902484 L34.5071076,24.7182484 L31.8791076,24.7182484 L31.8791076,30.0342484 L31.0031076,30.0342484 L31.0031076,24.7182484 L27.5351076,24.7182484 C27.4271076,25.9542484 27.1991076,26.9742484 26.8391076,27.7902484 C26.3831076,28.7982484 25.6271076,29.5782484 24.5711076,30.1302484 L24.1031076,29.3862484 C25.0751076,28.8342484 25.7591076,28.1022484 26.1431076,27.1902484 C26.3951076,26.4942484 26.5631076,25.6782484 26.6591076,24.7182484 L23.8871076,24.7182484 L23.8871076,23.8902484 L26.7071076,23.8902484 C26.7071076,23.7342484 26.7191076,23.5902484 26.7191076,23.4702484 L26.7191076,20.7102484 L24.5351076,20.7102484 L24.5351076,19.8702484 Z M27.6071076,20.7102484 L27.6071076,23.4702484 C27.6071076,23.6142484 27.5951076,23.7582484 27.5951076,23.8902484 L31.0031076,23.8902484 L31.0031076,20.7102484 L27.6071076,20.7102484 Z M41.6831076,23.6622484 C41.4671076,23.9982484 41.2391076,24.3102484 40.9991076,24.5982484 L40.4711076,23.9622484 C41.4071076,22.7622484 42.0431076,21.1422484 42.3791076,19.1142484 L43.2311076,19.2582484 C43.1231076,19.8702484 42.9911076,20.4462484 42.8351076,20.9742484 L46.3751076,20.9742484 L46.3751076,21.8022484 L45.4871076,21.8022484 C45.4151076,23.8182484 44.9471076,25.5462484 44.0831076,26.9742484 C44.8391076,28.0542484 45.7391076,28.8822484 46.7711076,29.4582484 L46.2791076,30.1902484 C45.2351076,29.5902484 44.3351076,28.7622484 43.5911076,27.7062484 C42.8711076,28.6662484 41.9591076,29.4702484 40.8311076,30.1182484 L40.3391076,29.3382484 C41.4911076,28.7142484 42.4031076,27.9222484 43.0991076,26.9502484 C42.5351076,25.9902484 42.0671076,24.8982484 41.6831076,23.6622484 Z M42.5711076,21.8022484 C42.4511076,22.1382484 42.3191076,22.4502484 42.1751076,22.7502484 C42.5351076,24.0702484 43.0031076,25.2102484 43.5671076,26.1822484 C44.2391076,24.9462484 44.5991076,23.4822484 44.6591076,21.8022484 L42.5711076,21.8022484 Z M35.8511076,20.9622484 L38.1431076,20.9622484 C37.9271076,20.3862484 37.6631076,19.8342484 37.3751076,19.2942484 L38.2151076,19.0542484 C38.5511076,19.7502484 38.8271076,20.3862484 39.0191076,20.9622484 L40.8191076,20.9622484 L40.8191076,21.7902484 L37.9031076,21.7902484 L37.9031076,22.8942484 C37.9031076,23.1342484 37.8911076,23.3622484 37.8911076,23.5782484 L40.1831076,23.5782484 C40.1831076,26.4942484 40.1231076,28.2822484 40.0151076,28.9542484 C39.8951076,29.6382484 39.4151076,29.9862484 38.5631076,29.9862484 C38.4071076,29.9862484 38.1311076,29.9622484 37.7351076,29.9382484 L37.5431076,29.1942484 C37.8791076,29.2182484 38.1791076,29.2302484 38.4431076,29.2302484 C38.8751076,29.2302484 39.1391076,29.0262484 39.2231076,28.6302484 C39.3071076,28.1742484 39.3551076,26.7462484 39.3671076,24.3702484 L37.8551076,24.3702484 C37.6871076,26.9382484 37.1591076,28.8582484 36.2711076,30.1302484 L35.5991076,29.5422484 C36.5831076,28.1622484 37.0751076,25.9422484 37.0991076,22.8942484 L37.0991076,21.7902484 L35.8511076,21.7902484 L35.8511076,20.9622484 Z M48.3551076,19.6902484 L58.0511076,19.6902484 L58.0511076,20.5302484 L53.5871076,20.5302484 L53.5871076,25.0662484 L58.5071076,25.0662484 L58.5071076,25.8942484 L53.5871076,25.8942484 L53.5871076,30.1422484 L52.6991076,30.1422484 L52.6991076,25.8942484 L47.8751076,25.8942484 L47.8751076,25.0662484 L52.6991076,25.0662484 L52.6991076,20.5302484 L48.3551076,20.5302484 L48.3551076,19.6902484 Z M49.8191076,21.2982484 C50.2751076,22.1382484 50.7071076,23.0502484 51.1151076,24.0462484 L50.3111076,24.4422484 C49.9031076,23.4102484 49.4711076,22.4982484 49.0151076,21.6942484 L49.8191076,21.2982484 Z M56.6231076,21.2382484 L57.4151076,21.6102484 C57.0551076,22.5582484 56.5751076,23.4822484 55.9871076,24.3942484 L55.2191076,23.9982484 C55.8071076,23.0622484 56.2751076,22.1502484 56.6231076,21.2382484 Z M69.1991076,25.1622484 L69.1991076,30.1662484 L68.3231076,30.1662484 L68.3231076,29.5662484 L62.0591076,29.5662484 L62.0591076,30.1662484 L61.1831076,30.1662484 L61.1831076,25.1622484 L69.1991076,25.1622484 Z M62.0591076,28.7382484 L68.3231076,28.7382484 L68.3231076,25.9902484 L62.0591076,25.9902484 L62.0591076,28.7382484 Z M60.3311076,23.9262484 C63.4511076,23.8062484 66.2711076,23.6382484 68.8031076,23.4102484 C69.0911076,23.8662484 69.3911076,24.3342484 69.6911076,24.8382484 L70.5311076,24.4302484 C69.6431076,22.9782484 68.6831076,21.6462484 67.6511076,20.4462484 L66.8711076,20.8182484 C67.3511076,21.3702484 67.8191076,21.9822484 68.2751076,22.6302484 C66.2111076,22.8222484 64.0271076,22.9782484 61.7231076,23.0742484 C62.8031076,22.1862484 63.8951076,20.9622484 64.9751076,19.4262484 L64.0871076,19.1262484 C62.5271076,21.4182484 61.2191076,22.7502484 60.1631076,23.1102484 L60.3311076,23.9262484 Z"/>
  </g>
</svg>
