<svg xmlns="http://www.w3.org/2000/svg" width="101" height="35" viewBox="0 0 101 35">
  <g fill="none" fill-rule="evenodd" transform="translate(-1)" opacity=".896">
    <rect width="64.413" height="17.693" x="14.583" y="16.52" stroke="#4ED4FE"/>
    <polygon fill="#4ED4FE" points="78.779 .941 79.09 .941 79.402 19.8 78.467 19.8" transform="matrix(-1 0 0 1 157.934 0)"/>
    <polygon fill="#4ED4FE" points="88.021 21.349 88.332 21.349 88.644 47.207 87.709 47.207" transform="rotate(90 88.21 34.278)"/>
    <polygon fill="#4ED4FE" points="7.738 27.349 8.05 27.349 8.361 41.207 7.427 41.207" transform="matrix(0 1 1 0 -26.35 26.35)"/>
    <path fill="#4ED4FE" d="M25.4111076,20.7942484 C25.1231076,21.2382484 24.7991076,21.6222484 24.4391076,21.9462484 L23.9231076,21.2982484 C24.4991076,20.7702484 24.9791076,20.0262484 25.3751076,19.0662484 L26.1551076,19.2342484 C26.0471076,19.5222484 25.9391076,19.7862484 25.8311076,20.0262484 L29.2631076,20.0262484 L29.2631076,20.7942484 L27.4511076,20.7942484 C27.4271076,21.2022484 27.3911076,21.5982484 27.3431076,21.9582484 L29.5991076,21.9582484 L29.5991076,22.7502484 L27.1631076,22.7502484 C27.1271076,22.8702484 27.0911076,22.9782484 27.0671076,23.0862484 C27.9791076,23.5422484 28.7471076,24.0102484 29.3711076,24.4902484 L28.7591076,25.1022484 C28.2551076,24.6462484 27.6071076,24.1902484 26.7911076,23.7102484 C26.3111076,24.5502484 25.4711076,25.2462484 24.2831076,25.7982484 L23.7071076,25.0902484 C24.9551076,24.5382484 25.7711076,23.8542484 26.1671076,23.0382484 L26.2871076,22.7502484 L23.8751076,22.7502484 L23.8751076,21.9582484 L26.5031076,21.9582484 C26.5751076,21.5862484 26.6111076,21.2022484 26.6351076,20.7942484 L25.4111076,20.7942484 Z M30.1031076,19.9662484 L34.0511076,19.9662484 L34.0511076,24.3582484 L30.1031076,24.3582484 L30.1031076,19.9662484 Z M33.2111076,23.5902484 L33.2111076,20.7342484 L30.9431076,20.7342484 L30.9431076,23.5902484 L33.2111076,23.5902484 Z M33.1991076,25.2222484 L33.1991076,30.1782484 L32.3231076,30.1782484 L32.3231076,29.6382484 L26.3831076,29.6382484 L26.3831076,30.1782484 L25.5191076,30.1782484 L25.5191076,25.2222484 L33.1991076,25.2222484 Z M26.3831076,28.8702484 L32.3231076,28.8702484 L32.3231076,27.8382484 L26.3831076,27.8382484 L26.3831076,28.8702484 Z M26.3831076,27.0822484 L32.3231076,27.0822484 L32.3231076,25.9902484 L26.3831076,25.9902484 L26.3831076,27.0822484 Z M37.3391076,26.0382484 L37.3391076,27.1542484 L40.1111076,27.1542484 L40.1111076,26.0382484 L37.3391076,26.0382484 Z M40.1111076,25.3182484 L40.1111076,24.1542484 L37.3391076,24.1542484 L37.3391076,25.3182484 L40.1111076,25.3182484 Z M37.3391076,27.8862484 L37.3391076,30.1782484 L36.5111076,30.1782484 L36.5111076,23.3982484 L40.9391076,23.3982484 L40.9391076,29.0382484 C40.9391076,29.7342484 40.6031076,30.0942484 39.9311076,30.0942484 L38.9711076,30.0942484 L38.7551076,29.2782484 L39.6551076,29.3142484 C39.9551076,29.3142484 40.1111076,29.1582484 40.1111076,28.8582484 L40.1111076,27.8862484 L37.3391076,27.8862484 Z M45.1511076,24.3942484 C45.5711076,24.3942484 45.8831076,24.2982484 46.0751076,24.1182484 C46.2911076,23.9022484 46.4471076,23.3022484 46.5311076,22.3182484 L45.7271076,22.0662484 C45.6791076,22.8102484 45.6071076,23.2542484 45.4871076,23.4222484 C45.3911076,23.5422484 45.2231076,23.6142484 44.9831076,23.6142484 L43.4111076,23.6142484 C43.0871076,23.6142484 42.9311076,23.4222484 42.9311076,23.0382484 L42.9311076,21.5382484 C44.2511076,21.3462484 45.4151076,21.1182484 46.4231076,20.8662484 L46.1471076,20.1102484 C45.3191076,20.3262484 44.2511076,20.5422484 42.9311076,20.7462484 L42.9311076,19.1862484 L42.0791076,19.1862484 L42.0791076,23.2182484 C42.0791076,23.9982484 42.4391076,24.3942484 43.1711076,24.3942484 L45.1511076,24.3942484 Z M42.9311076,27.1062484 C44.1791076,26.9982484 45.3431076,26.7942484 46.4231076,26.4822484 L46.1471076,25.7142484 C45.1991076,26.0022484 44.1311076,26.2062484 42.9311076,26.3262484 L42.9311076,24.8502484 L42.0791076,24.8502484 L42.0791076,29.0142484 C42.0791076,29.6502484 42.4271076,29.9742484 43.1471076,29.9742484 L45.1871076,29.9742484 C45.6191076,29.9742484 45.9311076,29.8782484 46.1231076,29.6982484 C46.3511076,29.4822484 46.5071076,28.8942484 46.5791076,27.9222484 L45.7991076,27.6822484 C45.7511076,28.4142484 45.6671076,28.8582484 45.5351076,29.0262484 C45.4391076,29.1342484 45.2591076,29.1942484 45.0191076,29.1942484 L43.3871076,29.1942484 C43.0751076,29.1942484 42.9311076,29.0622484 42.9311076,28.8222484 L42.9311076,27.1062484 Z M40.0751076,20.0022484 L39.4031076,20.4222484 C39.6911076,20.8302484 39.9671076,21.2382484 40.2191076,21.6222484 C39.0911076,21.7662484 38.0231076,21.8622484 37.0151076,21.9222484 C37.6871076,21.3102484 38.2871076,20.4702484 38.8391076,19.4022484 L38.0231076,19.1502484 C37.5431076,20.1102484 36.9191076,20.9742484 36.1751076,21.7422484 C36.0671076,21.8382484 35.9351076,21.9222484 35.7791076,21.9702484 L36.0191076,22.6902484 C37.7951076,22.5942484 39.3311076,22.4502484 40.6151076,22.2462484 C40.7711076,22.5102484 40.9151076,22.7742484 41.0471076,23.0382484 L41.7551076,22.5342484 C41.3591076,21.8142484 40.7951076,20.9742484 40.0751076,20.0022484 Z M53.4311076,19.1622484 L54.2591076,19.1622484 L54.2591076,30.1542484 L53.4311076,30.1542484 L53.4311076,27.5142484 L51.0671076,27.5142484 L51.0671076,26.7222484 L53.4311076,26.7222484 L53.4311076,24.6462484 L51.7391076,24.6462484 L51.7391076,23.8542484 L53.4311076,23.8542484 L53.4311076,21.8622484 L51.5471076,21.8622484 L51.5471076,21.0822484 L53.4311076,21.0822484 L53.4311076,19.1622484 Z M49.0511076,30.0462484 L47.9471076,30.0462484 L47.7551076,29.2062484 C48.1031076,29.2302484 48.4391076,29.2542484 48.7511076,29.2542484 C49.0871076,29.2542484 49.2671076,29.1102484 49.2671076,28.8222484 L49.2671076,25.9542484 C48.8351076,26.1222484 48.3911076,26.2902484 47.9471076,26.4342484 L47.7431076,25.5582484 C48.2591076,25.4262484 48.7631076,25.2702484 49.2671076,25.0782484 L49.2671076,22.2822484 L47.9711076,22.2822484 L47.9711076,21.4542484 L49.2671076,21.4542484 L49.2671076,19.1862484 L50.1071076,19.1862484 L50.1071076,21.4542484 L51.1751076,21.4542484 L51.1751076,22.2822484 L50.1071076,22.2822484 L50.1071076,24.7302484 C50.5031076,24.5382484 50.8871076,24.3462484 51.2711076,24.1302484 L51.2711076,25.0182484 C50.8871076,25.2222484 50.5031076,25.4142484 50.1071076,25.5942484 L50.1071076,29.0382484 C50.1071076,29.7102484 49.7471076,30.0462484 49.0511076,30.0462484 Z M55.6871076,19.1622484 L55.6871076,30.1542484 L56.5271076,30.1542484 L56.5271076,27.5142484 L58.6631076,27.5142484 L58.6631076,26.7222484 L56.5271076,26.7222484 L56.5271076,24.6462484 L58.3271076,24.6462484 L58.3271076,23.8542484 L56.5271076,23.8542484 L56.5271076,21.8622484 L58.5791076,21.8622484 L58.5791076,21.0822484 L56.5271076,21.0822484 L56.5271076,19.1622484 L55.6871076,19.1622484 Z M63.9671076,27.7662484 L63.9671076,28.5942484 C62.7911076,29.0502484 61.4471076,29.4222484 59.9351076,29.6982484 L59.8271076,28.8582484 C61.4111076,28.5942484 62.7911076,28.2222484 63.9671076,27.7662484 Z M61.8311076,19.0902484 C61.3511076,20.5182484 60.7871076,21.7902484 60.1391076,22.8942484 C60.0311076,23.0502484 59.9111076,23.1582484 59.7791076,23.2062484 L59.9831076,23.9982484 C60.6551076,23.9142484 61.3271076,23.8302484 61.9871076,23.7342484 C61.3631076,24.8502484 60.8231076,25.6422484 60.3791076,26.0982484 C60.2711076,26.1942484 60.1391076,26.2782484 59.9831076,26.3502484 L60.2231076,27.1422484 C61.3751076,26.9862484 62.5751076,26.6982484 63.8351076,26.2902484 L63.8351076,25.5102484 C62.9711076,25.7982484 62.1071076,26.0262484 61.2431076,26.1942484 C61.9391076,25.3422484 62.8271076,23.9022484 63.8831076,21.8742484 L63.1151076,21.5862484 C62.8751076,22.0662484 62.6351076,22.5222484 62.4191076,22.9542484 C61.8791076,23.0382484 61.3391076,23.1102484 60.7991076,23.1582484 C61.4231076,22.2222484 62.0471076,20.9742484 62.6591076,19.4142484 L61.8311076,19.0902484 Z M69.7871076,21.2742484 L69.9071076,22.0662484 L66.8231076,22.4982484 C66.8471076,23.0742484 66.8831076,23.6142484 66.9311076,24.1302484 L70.1111076,23.6262484 L70.2431076,24.4422484 L67.0271076,24.9462484 C67.0511076,25.1622484 67.0871076,25.3782484 67.1231076,25.5702484 C67.2431076,26.1942484 67.3871076,26.7342484 67.5551076,27.2142484 C68.2031076,26.6142484 68.7791076,25.9422484 69.2831076,25.1742484 L69.9671076,25.6422484 C69.3311076,26.5662484 68.6471076,27.3582484 67.9031076,28.0062484 C67.9511076,28.0782484 67.9871076,28.1622484 68.0351076,28.2342484 C68.4311076,28.8222484 68.7791076,29.1222484 69.0911076,29.1222484 C69.4031076,29.1222484 69.6791076,28.4742484 69.8951076,27.1902484 L70.6271076,27.6702484 C70.2911076,29.2542484 69.8111076,30.0582484 69.1871076,30.0582484 C68.6111076,30.0342484 68.0711076,29.6742484 67.5551076,28.9542484 C67.4471076,28.8102484 67.3511076,28.6662484 67.2791076,28.5102484 C66.3911076,29.1702484 65.4311076,29.6622484 64.4111076,29.9742484 L63.9071076,29.2782484 C65.0111076,28.9182484 66.0071076,28.4142484 66.8951076,27.7542484 C66.6671076,27.2262484 66.4871076,26.6502484 66.3431076,26.0022484 C66.2711076,25.6902484 66.2231076,25.3902484 66.1751076,25.0782484 L64.0151076,25.4262484 L63.8951076,24.6102484 L66.0671076,24.2622484 C66.0071076,23.7462484 65.9711076,23.1942484 65.9591076,22.6182484 L64.2311076,22.8702484 L64.0991076,22.0782484 L65.9351076,21.8142484 L65.9351076,19.1502484 L66.7991076,19.1502484 L66.7991076,21.6942484 L69.7871076,21.2742484 Z M68.1431076,19.1142484 C68.7551076,19.6902484 69.2231076,20.1822484 69.5591076,20.6022484 L68.8871076,21.0702484 C68.5511076,20.6022484 68.0711076,20.0862484 67.4711076,19.5342484 L68.1431076,19.1142484 Z"/>
  </g>
</svg>
