<svg xmlns="http://www.w3.org/2000/svg" width="101" height="35" viewBox="0 0 101 35">
  <g fill="none" fill-rule="evenodd" transform="translate(-1)" opacity=".896">
    <rect width="64.413" height="17.693" x="14.583" y="16.52" stroke="#4ED4FE"/>
    <polygon fill="#4ED4FE" points="78.779 .941 79.09 .941 79.402 19.8 78.467 19.8" transform="matrix(-1 0 0 1 157.934 0)"/>
    <polygon fill="#4ED4FE" points="88.021 21.349 88.332 21.349 88.644 47.207 87.709 47.207" transform="rotate(90 88.21 34.278)"/>
    <polygon fill="#4ED4FE" points="7.738 27.349 8.05 27.349 8.361 41.207 7.427 41.207" transform="matrix(0 1 1 0 -26.35 26.35)"/>
    <path fill="#4ED4FE" d="M25.0391076,23.4342484 C24.6791076,23.9622484 24.2831076,24.4782484 23.8511076,24.9582484 L23.5751076,24.0342484 C24.7511076,22.5822484 25.6031076,20.9142484 26.1431076,19.0422484 L26.9471076,19.4142484 C26.6591076,20.3382484 26.3111076,21.2022484 25.8911076,22.0182484 L25.8911076,30.1782484 L25.0391076,30.1782484 L25.0391076,23.4342484 Z M26.8991076,20.7342484 L30.5951076,20.7342484 C30.4151076,20.2542484 30.2111076,19.7982484 29.9711076,19.3422484 L30.7991076,19.1142484 C31.0511076,19.6422484 31.2431076,20.1222484 31.3871076,20.5662484 L30.9311076,20.7342484 L34.7111076,20.7342484 L34.7111076,21.5502484 L26.8991076,21.5502484 L26.8991076,20.7342484 Z M28.0031076,22.5222484 L28.0031076,23.3022484 L33.6791076,23.3022484 L33.6791076,22.5222484 L28.0031076,22.5222484 Z M28.0031076,24.2142484 L28.0031076,25.0062484 L33.6791076,25.0062484 L33.6791076,24.2142484 L28.0031076,24.2142484 Z M33.8951076,25.9902484 L33.8951076,30.1542484 L33.0551076,30.1542484 L33.0551076,29.5062484 L28.6151076,29.5062484 L28.6151076,30.1542484 L27.7751076,30.1542484 L27.7751076,25.9902484 L33.8951076,25.9902484 Z M28.6151076,28.6902484 L33.0551076,28.6902484 L33.0551076,26.7942484 L28.6151076,26.7942484 L28.6151076,28.6902484 Z M37.7471076,23.3382484 L37.7471076,25.4382484 L40.7951076,25.4382484 L40.7951076,23.3382484 L37.7471076,23.3382484 Z M37.6991076,26.2302484 C37.5671076,27.7662484 37.1231076,29.0382484 36.3551076,30.0462484 L35.6951076,29.4582484 C36.4631076,28.3902484 36.8591076,27.0342484 36.8831076,25.3902484 L36.8831076,19.6302484 L45.8231076,19.6302484 L45.8231076,28.6182484 C45.8231076,29.4582484 45.4031076,29.8782484 44.5631076,29.8782484 L43.1831076,29.8782484 L42.9551076,29.0262484 C43.4351076,29.0502484 43.8791076,29.0742484 44.2871076,29.0742484 C44.7191076,29.0742484 44.9471076,28.8222484 44.9471076,28.3182484 L44.9471076,26.2302484 L41.6831076,26.2302484 L41.6831076,29.7462484 L40.7951076,29.7462484 L40.7951076,26.2302484 L37.6991076,26.2302484 Z M44.9471076,25.4382484 L44.9471076,23.3382484 L41.6831076,23.3382484 L41.6831076,25.4382484 L44.9471076,25.4382484 Z M44.9471076,22.5342484 L44.9471076,20.4702484 L41.6831076,20.4702484 L41.6831076,22.5342484 L44.9471076,22.5342484 Z M40.7951076,20.4702484 L37.7471076,20.4702484 L37.7471076,22.5342484 L40.7951076,22.5342484 L40.7951076,20.4702484 Z M51.3791076,20.1462484 L53.1311076,20.1462484 L53.1311076,19.1862484 L53.9351076,19.1862484 L53.9351076,20.1462484 L55.8671076,20.1462484 L55.8671076,19.1862484 L56.6831076,19.1862484 L56.6831076,20.1462484 L58.5431076,20.1462484 L58.5431076,20.9142484 L56.6831076,20.9142484 L56.6831076,21.8142484 L55.8671076,21.8142484 L55.8671076,20.9142484 L53.9351076,20.9142484 L53.9351076,21.8142484 L53.1311076,21.8142484 L53.1311076,20.9142484 L51.3791076,20.9142484 L51.3791076,20.1462484 Z M54.7511076,27.6822484 C54.6071076,27.9822484 54.4271076,28.2582484 54.2351076,28.4982484 C53.6831076,29.1942484 52.7231076,29.7342484 51.3431076,30.1302484 L51.0311076,29.4102484 C52.2311076,29.0862484 53.0831076,28.6182484 53.6111076,28.0062484 C53.7311076,27.8502484 53.8511076,27.6942484 53.9471076,27.5262484 L51.1511076,27.5262484 L51.1511076,26.7342484 L54.3071076,26.7342484 C54.4031076,26.4462484 54.4751076,26.1342484 54.5351076,25.8222484 L52.0151076,25.8222484 L52.0151076,22.1862484 L57.7631076,22.1862484 L57.7631076,25.8222484 L55.3031076,25.8222484 C55.2551076,26.1582484 55.1831076,26.4582484 55.1111076,26.7342484 L58.5671076,26.7342484 L58.5671076,27.5262484 L55.5311076,27.5262484 C56.2271076,28.3422484 57.2831076,29.0022484 58.6991076,29.5062484 L58.1231076,30.1902484 C56.5631076,29.5182484 55.4471076,28.6902484 54.7511076,27.6822484 Z M50.2151076,24.0102484 L50.2151076,30.1182484 L49.3991076,30.1182484 L49.3991076,24.1422484 C49.0271076,25.2702484 48.5591076,26.3022484 47.9831076,27.2262484 L47.6111076,26.2902484 C48.4391076,25.1382484 49.0391076,23.8422484 49.3991076,22.3782484 L49.3991076,22.3062484 L48.0071076,22.3062484 L48.0071076,21.5262484 L49.3991076,21.5262484 L49.3991076,19.1982484 L50.2151076,19.1982484 L50.2151076,21.5262484 L51.4751076,21.5262484 L51.4751076,22.3062484 L50.2151076,22.3062484 L50.2151076,23.0982484 C50.7311076,23.7222484 51.2591076,24.4422484 51.8111076,25.2462484 L51.3551076,25.9302484 C50.9111076,25.1382484 50.5271076,24.5022484 50.2151076,24.0102484 Z M56.9831076,25.1502484 L56.9831076,24.3342484 L52.7951076,24.3342484 L52.7951076,25.1502484 L56.9831076,25.1502484 Z M52.7951076,23.6862484 L56.9831076,23.6862484 L56.9831076,22.8822484 L52.7951076,22.8822484 L52.7951076,23.6862484 Z M60.3071076,19.6902484 L65.9471076,19.6902484 L65.9471076,20.4582484 L64.7351076,20.4582484 L64.7351076,22.2582484 L66.2111076,22.2582484 L66.2111076,23.0502484 L64.7351076,23.0502484 L64.7351076,25.6902484 L63.8951076,25.6902484 L63.8951076,23.0502484 L62.3231076,23.0502484 C62.1911076,24.2862484 61.7351076,25.2102484 60.9431076,25.8342484 L60.2951076,25.2702484 C60.9671076,24.7662484 61.3631076,24.0342484 61.4831076,23.0502484 L59.9951076,23.0502484 L59.9951076,22.2582484 L61.5311076,22.2582484 L61.5311076,20.4582484 L60.3071076,20.4582484 L60.3071076,19.6902484 Z M62.3591076,20.4582484 L62.3591076,22.2582484 L63.8951076,22.2582484 L63.8951076,20.4582484 L62.3591076,20.4582484 Z M66.9191076,19.9662484 L67.7471076,19.9662484 L67.7471076,24.0942484 L66.9191076,24.0942484 L66.9191076,19.9662484 Z M60.5951076,26.8662484 L64.8071076,26.8662484 L64.8071076,25.8222484 L65.6711076,25.8222484 L65.6711076,26.8662484 L69.7991076,26.8662484 L69.7991076,27.6582484 L65.6711076,27.6582484 L65.6711076,29.0622484 L70.4591076,29.0622484 L70.4591076,29.8542484 L59.9231076,29.8542484 L59.9231076,29.0622484 L64.8071076,29.0622484 L64.8071076,27.6582484 L60.5951076,27.6582484 L60.5951076,26.8662484 Z M68.9591076,25.7982484 L67.3511076,25.7982484 L67.1711076,24.9822484 C67.6991076,25.0182484 68.1911076,25.0422484 68.6711076,25.0422484 C68.9471076,25.0422484 69.0911076,24.8502484 69.0911076,24.4902484 L69.0911076,19.3062484 L69.9191076,19.3062484 L69.9191076,24.6942484 C69.9191076,25.4262484 69.5951076,25.7982484 68.9591076,25.7982484 Z"/>
  </g>
</svg>
