<svg xmlns="http://www.w3.org/2000/svg" width="101" height="35" viewBox="0 0 101 35">
  <g fill="none" fill-rule="evenodd" transform="translate(-1)" opacity=".896">
    <rect width="64.413" height="17.693" x="14.583" y="16.52" stroke="#4ED4FE"/>
    <polygon fill="#4ED4FE" points="78.779 .941 79.09 .941 79.402 19.8 78.467 19.8" transform="matrix(-1 0 0 1 157.934 0)"/>
    <polygon fill="#4ED4FE" points="88.021 21.349 88.332 21.349 88.644 47.207 87.709 47.207" transform="rotate(90 88.21 34.278)"/>
    <polygon fill="#4ED4FE" points="7.738 27.349 8.05 27.349 8.361 41.207 7.427 41.207" transform="matrix(0 1 1 0 -26.35 26.35)"/>
    <path fill="#4ED4FE" d="M27.8351076,23.9742484 C27.3791076,24.2142484 26.9231076,24.4302484 26.4551076,24.6342484 L26.4551076,22.1862484 L27.7991076,22.1862484 L27.7991076,21.3582484 L26.4551076,21.3582484 L26.4551076,19.1862484 L25.6031076,19.1862484 L25.6031076,21.3582484 L23.8631076,21.3582484 L23.8631076,22.1862484 L25.6031076,22.1862484 L25.6031076,24.9702484 C24.9791076,25.1862484 24.3431076,25.3782484 23.6831076,25.5342484 L23.8991076,26.3862484 C24.4751076,26.2062484 25.0511076,26.0142484 25.6031076,25.8102484 L25.6031076,28.8342484 C25.6031076,29.1702484 25.4351076,29.3502484 25.1111076,29.3502484 C24.7871076,29.3502484 24.4511076,29.3262484 24.1031076,29.2902484 L24.2951076,30.1182484 L25.4111076,30.1182484 C26.1071076,30.1182484 26.4551076,29.7582484 26.4551076,29.0382484 L26.4551076,25.4622484 C26.9231076,25.2702484 27.3791076,25.0542484 27.8351076,24.8262484 L27.8351076,23.9742484 Z M29.3111076,24.7302484 L29.3111076,30.1542484 L28.4951076,30.1542484 L28.4951076,19.6422484 L33.7631076,19.6422484 C33.7631076,20.9742484 33.6911076,21.8622484 33.5591076,22.3062484 C33.4151076,22.7382484 32.9591076,22.9662484 32.1911076,22.9662484 L31.3271076,22.9662484 L31.0871076,22.2102484 C31.2791076,22.2102484 31.5071076,22.2222484 31.7951076,22.2222484 C32.0831076,22.2222484 32.3111076,22.1982484 32.4551076,22.1742484 C32.5871076,22.1262484 32.6951076,22.0422484 32.7791076,21.8982484 C32.8631076,21.6702484 32.9111076,21.1782484 32.9351076,20.4342484 L29.3111076,20.4342484 L29.3111076,23.9382484 L33.8711076,23.9382484 L33.8711076,24.6822484 C33.6311076,25.9542484 33.2111076,27.0462484 32.5871076,27.9462484 C33.1631076,28.4982484 33.8711076,29.0022484 34.7111076,29.4702484 L34.1351076,30.1302484 C33.3431076,29.6262484 32.6591076,29.1102484 32.1071076,28.5582484 C31.5311076,29.2182484 30.8231076,29.7582484 30.0071076,30.1662484 L29.5871076,29.4102484 C30.3551076,29.0262484 31.0031076,28.5342484 31.5311076,27.9342484 C30.7031076,26.9502484 30.1991076,25.8822484 30.0071076,24.7302484 L29.3111076,24.7302484 Z M30.7871076,24.7302484 C30.9551076,25.6662484 31.3511076,26.5302484 31.9991076,27.3102484 C32.4791076,26.5782484 32.8271076,25.7142484 33.0431076,24.7302484 L30.7871076,24.7302484 Z M37.1951076,23.3142484 C36.8111076,23.8782484 36.3791076,24.4182484 35.9231076,24.9222484 L35.6351076,24.0102484 C36.8111076,22.5942484 37.6751076,20.9742484 38.2031076,19.1502484 L39.0191076,19.5222484 C38.7671076,20.3262484 38.4551076,21.0942484 38.0831076,21.8262484 L38.0831076,30.1182484 L37.1951076,30.1182484 L37.1951076,23.3142484 Z M43.6871076,23.3502484 L44.5271076,23.3502484 L44.5271076,30.0462484 L43.6871076,30.0462484 L43.6871076,23.3502484 Z M40.6031076,23.3862484 L41.4311076,23.3862484 L41.4311076,25.1982484 C41.4071076,27.4662484 40.8191076,29.1222484 39.6671076,30.1782484 L39.0191076,29.6142484 C40.0511076,28.7022484 40.5791076,27.2262484 40.6031076,25.1982484 L40.6031076,23.3862484 Z M42.1271076,19.2102484 L42.9071076,19.2102484 C43.6511076,20.8182484 44.9471076,22.2222484 46.7711076,23.4342484 L46.2791076,24.1662484 C44.5991076,23.0502484 43.3391076,21.6702484 42.5111076,20.0382484 C41.5511076,21.8742484 40.3511076,23.2902484 38.8991076,24.2982484 L38.4191076,23.5662484 C40.0271076,22.4502484 41.2631076,20.9982484 42.1271076,19.2102484 Z M56.6231076,23.8902484 L56.6231076,26.2422484 L50.6351076,26.2422484 L50.6351076,27.0702484 L57.1751076,27.0702484 L57.1751076,30.1542484 L56.3231076,30.1542484 L56.3231076,29.6502484 L50.6351076,29.6502484 L50.6351076,30.1422484 L49.7711076,30.1422484 L49.7711076,23.8902484 L56.6231076,23.8902484 Z M50.6351076,28.8822484 L56.3231076,28.8822484 L56.3231076,27.7662484 L50.6351076,27.7662484 L50.6351076,28.8822484 Z M50.6351076,25.5462484 L55.7831076,25.5462484 L55.7831076,24.5862484 L50.6351076,24.5862484 L50.6351076,25.5462484 Z M58.2791076,22.4382484 L58.2791076,24.6102484 L57.4391076,24.6102484 L57.4391076,23.1822484 L48.9431076,23.1822484 L48.9431076,24.6102484 L48.1031076,24.6102484 L48.1031076,22.4382484 L52.8551076,22.4382484 C52.7351076,22.1502484 52.6151076,21.8982484 52.4831076,21.6582484 L53.3231076,21.5142484 L53.2511076,21.4662484 C53.8271076,20.7462484 54.2351076,19.9662484 54.4991076,19.1022484 L55.3271076,19.2822484 C55.2431076,19.5342484 55.1591076,19.7742484 55.0631076,20.0142484 L58.5311076,20.0142484 L58.5311076,20.7702484 L56.3951076,20.7702484 C56.6471076,21.1062484 56.8511076,21.4182484 56.9951076,21.7062484 L56.2271076,21.9942484 C56.0111076,21.5622484 55.7591076,21.1542484 55.4711076,20.7702484 L54.7151076,20.7702484 C54.4991076,21.1782484 54.2471076,21.5622484 53.9831076,21.9222484 L53.3351076,21.5262484 C53.4671076,21.8022484 53.5991076,22.1022484 53.7191076,22.4382484 L58.2791076,22.4382484 Z M49.5431076,20.7702484 C49.2551076,21.2382484 48.9431076,21.6702484 48.5831076,22.0662484 L47.8271076,21.5862484 C48.5471076,20.8422484 49.0751076,20.0022484 49.4111076,19.0902484 L50.2391076,19.2702484 C50.1431076,19.5342484 50.0351076,19.7742484 49.9391076,20.0142484 L53.1551076,20.0142484 L53.1551076,20.7702484 L51.1391076,20.7702484 C51.4031076,21.1302484 51.6311076,21.4782484 51.7991076,21.8022484 L51.0071076,22.1022484 C50.7911076,21.6462484 50.5271076,21.2022484 50.2271076,20.7702484 L49.5431076,20.7702484 Z M64.1831076,19.6302484 L70.0511076,19.6302484 L70.0511076,25.1742484 L67.5551076,25.1742484 L67.5551076,26.5902484 L70.2551076,26.5902484 L70.2551076,27.4062484 L67.5551076,27.4062484 L67.5551076,28.9662484 L70.6991076,28.9662484 L70.6991076,29.7942484 L63.4751076,29.7942484 L63.4751076,28.9662484 L66.6911076,28.9662484 L66.6911076,27.4062484 L63.9791076,27.4062484 L63.9791076,26.5902484 L66.6911076,26.5902484 L66.6911076,25.1742484 L64.1831076,25.1742484 L64.1831076,19.6302484 Z M69.2231076,24.4062484 L69.2231076,22.7862484 L67.5551076,22.7862484 L67.5551076,24.4062484 L69.2231076,24.4062484 Z M66.6911076,24.4062484 L66.6911076,22.7862484 L65.0111076,22.7862484 L65.0111076,24.4062484 L66.6911076,24.4062484 Z M65.0111076,22.0302484 L66.6911076,22.0302484 L66.6911076,20.3982484 L65.0111076,20.3982484 L65.0111076,22.0302484 Z M67.5551076,20.3982484 L67.5551076,22.0302484 L69.2231076,22.0302484 L69.2231076,20.3982484 L67.5551076,20.3982484 Z M59.9471076,23.6022484 L61.2551076,23.6022484 L61.2551076,20.7582484 L59.7791076,20.7582484 L59.7791076,19.9422484 L63.6071076,19.9422484 L63.6071076,20.7582484 L62.1431076,20.7582484 L62.1431076,23.6022484 L63.4631076,23.6022484 L63.4631076,24.4302484 L62.1431076,24.4302484 L62.1431076,27.1542484 C62.5991076,26.9982484 63.0311076,26.8302484 63.4631076,26.6382484 L63.4631076,27.4782484 C62.3591076,27.9342484 61.1711076,28.3182484 59.8991076,28.6302484 L59.6831076,27.8022484 C60.2111076,27.7062484 60.7391076,27.5862484 61.2551076,27.4422484 L61.2551076,24.4302484 L59.9471076,24.4302484 L59.9471076,23.6022484 Z"/>
  </g>
</svg>
