<svg xmlns="http://www.w3.org/2000/svg" width="101" height="35" viewBox="0 0 101 35">
  <g fill="none" fill-rule="evenodd" transform="translate(-1)" opacity=".896">
    <rect width="64.413" height="17.693" x="14.583" y="16.52" stroke="#4ED4FE"/>
    <polygon fill="#4ED4FE" points="78.779 .941 79.09 .941 79.402 19.8 78.467 19.8" transform="matrix(-1 0 0 1 157.934 0)"/>
    <polygon fill="#4ED4FE" points="88.021 21.349 88.332 21.349 88.644 47.207 87.709 47.207" transform="rotate(90 88.21 34.278)"/>
    <polygon fill="#4ED4FE" points="7.738 27.349 8.05 27.349 8.361 41.207 7.427 41.207" transform="matrix(0 1 1 0 -26.35 26.35)"/>
    <path fill="#4ED4FE" d="M27.3191076,19.8702484 L36.6671076,19.8702484 L36.6671076,20.7102484 L34.6631076,20.7102484 L34.6631076,23.8902484 L37.2911076,23.8902484 L37.2911076,24.7182484 L34.6631076,24.7182484 L34.6631076,30.0342484 L33.7871076,30.0342484 L33.7871076,24.7182484 L30.3191076,24.7182484 C30.2111076,25.9542484 29.9831076,26.9742484 29.6231076,27.7902484 C29.1671076,28.7982484 28.4111076,29.5782484 27.3551076,30.1302484 L26.8871076,29.3862484 C27.8591076,28.8342484 28.5431076,28.1022484 28.9271076,27.1902484 C29.1791076,26.4942484 29.3471076,25.6782484 29.4431076,24.7182484 L26.6711076,24.7182484 L26.6711076,23.8902484 L29.4911076,23.8902484 C29.4911076,23.7342484 29.5031076,23.5902484 29.5031076,23.4702484 L29.5031076,20.7102484 L27.3191076,20.7102484 L27.3191076,19.8702484 Z M30.3911076,20.7102484 L30.3911076,23.4702484 C30.3911076,23.6142484 30.3791076,23.7582484 30.3791076,23.8902484 L33.7871076,23.8902484 L33.7871076,20.7102484 L30.3911076,20.7102484 Z M44.4671076,23.6622484 C44.2511076,23.9982484 44.0231076,24.3102484 43.7831076,24.5982484 L43.2551076,23.9622484 C44.1911076,22.7622484 44.8271076,21.1422484 45.1631076,19.1142484 L46.0151076,19.2582484 C45.9071076,19.8702484 45.7751076,20.4462484 45.6191076,20.9742484 L49.1591076,20.9742484 L49.1591076,21.8022484 L48.2711076,21.8022484 C48.1991076,23.8182484 47.7311076,25.5462484 46.8671076,26.9742484 C47.6231076,28.0542484 48.5231076,28.8822484 49.5551076,29.4582484 L49.0631076,30.1902484 C48.0191076,29.5902484 47.1191076,28.7622484 46.3751076,27.7062484 C45.6551076,28.6662484 44.7431076,29.4702484 43.6151076,30.1182484 L43.1231076,29.3382484 C44.2751076,28.7142484 45.1871076,27.9222484 45.8831076,26.9502484 C45.3191076,25.9902484 44.8511076,24.8982484 44.4671076,23.6622484 Z M45.3551076,21.8022484 C45.2351076,22.1382484 45.1031076,22.4502484 44.9591076,22.7502484 C45.3191076,24.0702484 45.7871076,25.2102484 46.3511076,26.1822484 C47.0231076,24.9462484 47.3831076,23.4822484 47.4431076,21.8022484 L45.3551076,21.8022484 Z M38.6351076,20.9622484 L40.9271076,20.9622484 C40.7111076,20.3862484 40.4471076,19.8342484 40.1591076,19.2942484 L40.9991076,19.0542484 C41.3351076,19.7502484 41.6111076,20.3862484 41.8031076,20.9622484 L43.6031076,20.9622484 L43.6031076,21.7902484 L40.6871076,21.7902484 L40.6871076,22.8942484 C40.6871076,23.1342484 40.6751076,23.3622484 40.6751076,23.5782484 L42.9671076,23.5782484 C42.9671076,26.4942484 42.9071076,28.2822484 42.7991076,28.9542484 C42.6791076,29.6382484 42.1991076,29.9862484 41.3471076,29.9862484 C41.1911076,29.9862484 40.9151076,29.9622484 40.5191076,29.9382484 L40.3271076,29.1942484 C40.6631076,29.2182484 40.9631076,29.2302484 41.2271076,29.2302484 C41.6591076,29.2302484 41.9231076,29.0262484 42.0071076,28.6302484 C42.0911076,28.1742484 42.1391076,26.7462484 42.1511076,24.3702484 L40.6391076,24.3702484 C40.4711076,26.9382484 39.9431076,28.8582484 39.0551076,30.1302484 L38.3831076,29.5422484 C39.3671076,28.1622484 39.8591076,25.9422484 39.8831076,22.8942484 L39.8831076,21.7902484 L38.6351076,21.7902484 L38.6351076,20.9622484 Z M53.3471076,20.3862484 L54.4871076,20.3862484 L57.8591076,28.9542484 L56.7911076,28.9542484 L55.8791076,26.5542484 L51.9431076,26.5542484 L51.0311076,28.9542484 L49.9751076,28.9542484 L53.3471076,20.3862484 Z M52.2551076,25.7262484 L55.5671076,25.7262484 L53.9471076,21.4422484 L53.8991076,21.4422484 L52.2551076,25.7262484 Z M58.7231076,20.3862484 L62.2271076,20.3862484 C64.1951076,20.3862484 65.1791076,21.2262484 65.1791076,22.9062484 C65.1791076,24.5982484 64.1831076,25.4502484 62.2151076,25.4502484 L59.7071076,25.4502484 L59.7071076,28.9542484 L58.7231076,28.9542484 L58.7231076,20.3862484 Z M59.7071076,21.2382484 L59.7071076,24.5982484 L62.1671076,24.5982484 C62.8631076,24.5982484 63.3671076,24.4542484 63.7031076,24.1782484 C64.0271076,23.9022484 64.1951076,23.4822484 64.1951076,22.9062484 C64.1951076,22.3302484 64.0271076,21.9102484 63.6911076,21.6582484 C63.3551076,21.3702484 62.8511076,21.2382484 62.1671076,21.2382484 L59.7071076,21.2382484 Z M66.4991076,20.3862484 L66.4991076,28.9542484 L67.4711076,28.9542484 L67.4711076,20.3862484 L66.4991076,20.3862484 Z"/>
  </g>
</svg>
