<svg xmlns="http://www.w3.org/2000/svg" width="101" height="35" viewBox="0 0 101 35">
  <g fill="none" fill-rule="evenodd" transform="translate(-1)" opacity=".896">
    <rect width="64.413" height="17.693" x="14.583" y="16.52" stroke="#4ED4FE"/>
    <polygon fill="#4ED4FE" points="78.779 .941 79.09 .941 79.402 19.8 78.467 19.8" transform="matrix(-1 0 0 1 157.934 0)"/>
    <polygon fill="#4ED4FE" points="88.021 21.349 88.332 21.349 88.644 47.207 87.709 47.207" transform="rotate(90 88.21 34.278)"/>
    <polygon fill="#4ED4FE" points="7.738 27.349 8.05 27.349 8.361 41.207 7.427 41.207" transform="matrix(0 1 1 0 -26.35 26.35)"/>
    <path fill="#4ED4FE" d="M25.4111076,20.7942484 C25.1231076,21.2382484 24.7991076,21.6222484 24.4391076,21.9462484 L23.9231076,21.2982484 C24.4991076,20.7702484 24.9791076,20.0262484 25.3751076,19.0662484 L26.1551076,19.2342484 C26.0471076,19.5222484 25.9391076,19.7862484 25.8311076,20.0262484 L29.2631076,20.0262484 L29.2631076,20.7942484 L27.4511076,20.7942484 C27.4271076,21.2022484 27.3911076,21.5982484 27.3431076,21.9582484 L29.5991076,21.9582484 L29.5991076,22.7502484 L27.1631076,22.7502484 C27.1271076,22.8702484 27.0911076,22.9782484 27.0671076,23.0862484 C27.9791076,23.5422484 28.7471076,24.0102484 29.3711076,24.4902484 L28.7591076,25.1022484 C28.2551076,24.6462484 27.6071076,24.1902484 26.7911076,23.7102484 C26.3111076,24.5502484 25.4711076,25.2462484 24.2831076,25.7982484 L23.7071076,25.0902484 C24.9551076,24.5382484 25.7711076,23.8542484 26.1671076,23.0382484 L26.2871076,22.7502484 L23.8751076,22.7502484 L23.8751076,21.9582484 L26.5031076,21.9582484 C26.5751076,21.5862484 26.6111076,21.2022484 26.6351076,20.7942484 L25.4111076,20.7942484 Z M30.1031076,19.9662484 L34.0511076,19.9662484 L34.0511076,24.3582484 L30.1031076,24.3582484 L30.1031076,19.9662484 Z M33.2111076,23.5902484 L33.2111076,20.7342484 L30.9431076,20.7342484 L30.9431076,23.5902484 L33.2111076,23.5902484 Z M33.1991076,25.2222484 L33.1991076,30.1782484 L32.3231076,30.1782484 L32.3231076,29.6382484 L26.3831076,29.6382484 L26.3831076,30.1782484 L25.5191076,30.1782484 L25.5191076,25.2222484 L33.1991076,25.2222484 Z M26.3831076,28.8702484 L32.3231076,28.8702484 L32.3231076,27.8382484 L26.3831076,27.8382484 L26.3831076,28.8702484 Z M26.3831076,27.0822484 L32.3231076,27.0822484 L32.3231076,25.9902484 L26.3831076,25.9902484 L26.3831076,27.0822484 Z M37.3391076,26.0382484 L37.3391076,27.1542484 L40.1111076,27.1542484 L40.1111076,26.0382484 L37.3391076,26.0382484 Z M40.1111076,25.3182484 L40.1111076,24.1542484 L37.3391076,24.1542484 L37.3391076,25.3182484 L40.1111076,25.3182484 Z M37.3391076,27.8862484 L37.3391076,30.1782484 L36.5111076,30.1782484 L36.5111076,23.3982484 L40.9391076,23.3982484 L40.9391076,29.0382484 C40.9391076,29.7342484 40.6031076,30.0942484 39.9311076,30.0942484 L38.9711076,30.0942484 L38.7551076,29.2782484 L39.6551076,29.3142484 C39.9551076,29.3142484 40.1111076,29.1582484 40.1111076,28.8582484 L40.1111076,27.8862484 L37.3391076,27.8862484 Z M45.1511076,24.3942484 C45.5711076,24.3942484 45.8831076,24.2982484 46.0751076,24.1182484 C46.2911076,23.9022484 46.4471076,23.3022484 46.5311076,22.3182484 L45.7271076,22.0662484 C45.6791076,22.8102484 45.6071076,23.2542484 45.4871076,23.4222484 C45.3911076,23.5422484 45.2231076,23.6142484 44.9831076,23.6142484 L43.4111076,23.6142484 C43.0871076,23.6142484 42.9311076,23.4222484 42.9311076,23.0382484 L42.9311076,21.5382484 C44.2511076,21.3462484 45.4151076,21.1182484 46.4231076,20.8662484 L46.1471076,20.1102484 C45.3191076,20.3262484 44.2511076,20.5422484 42.9311076,20.7462484 L42.9311076,19.1862484 L42.0791076,19.1862484 L42.0791076,23.2182484 C42.0791076,23.9982484 42.4391076,24.3942484 43.1711076,24.3942484 L45.1511076,24.3942484 Z M42.9311076,27.1062484 C44.1791076,26.9982484 45.3431076,26.7942484 46.4231076,26.4822484 L46.1471076,25.7142484 C45.1991076,26.0022484 44.1311076,26.2062484 42.9311076,26.3262484 L42.9311076,24.8502484 L42.0791076,24.8502484 L42.0791076,29.0142484 C42.0791076,29.6502484 42.4271076,29.9742484 43.1471076,29.9742484 L45.1871076,29.9742484 C45.6191076,29.9742484 45.9311076,29.8782484 46.1231076,29.6982484 C46.3511076,29.4822484 46.5071076,28.8942484 46.5791076,27.9222484 L45.7991076,27.6822484 C45.7511076,28.4142484 45.6671076,28.8582484 45.5351076,29.0262484 C45.4391076,29.1342484 45.2591076,29.1942484 45.0191076,29.1942484 L43.3871076,29.1942484 C43.0751076,29.1942484 42.9311076,29.0622484 42.9311076,28.8222484 L42.9311076,27.1062484 Z M40.0751076,20.0022484 L39.4031076,20.4222484 C39.6911076,20.8302484 39.9671076,21.2382484 40.2191076,21.6222484 C39.0911076,21.7662484 38.0231076,21.8622484 37.0151076,21.9222484 C37.6871076,21.3102484 38.2871076,20.4702484 38.8391076,19.4022484 L38.0231076,19.1502484 C37.5431076,20.1102484 36.9191076,20.9742484 36.1751076,21.7422484 C36.0671076,21.8382484 35.9351076,21.9222484 35.7791076,21.9702484 L36.0191076,22.6902484 C37.7951076,22.5942484 39.3311076,22.4502484 40.6151076,22.2462484 C40.7711076,22.5102484 40.9151076,22.7742484 41.0471076,23.0382484 L41.7551076,22.5342484 C41.3591076,21.8142484 40.7951076,20.9742484 40.0751076,20.0022484 Z M58.6391076,26.9382484 L57.7871076,26.6622484 C57.7511076,27.6222484 57.6911076,28.2702484 57.5951076,28.5942484 C57.4991076,28.9302484 57.2831076,29.0982484 56.9471076,29.0982484 L55.0631076,29.0982484 C54.8111076,29.0862484 54.6911076,28.8702484 54.6911076,28.4622484 L54.6911076,24.5262484 L57.9671076,24.5262484 L57.9671076,19.6662484 L53.6471076,19.6662484 L53.6471076,20.4822484 L57.1271076,20.4822484 L57.1271076,23.6862484 L53.8511076,23.6862484 L53.8511076,28.7742484 C53.8511076,29.5302484 54.1391076,29.9142484 54.7151076,29.9142484 L57.0911076,29.9142484 C57.6671076,29.9142484 58.0391076,29.7222484 58.2311076,29.3622484 C58.4231076,28.9902484 58.5551076,28.1862484 58.6391076,26.9382484 Z M47.7911076,19.6542484 L53.2511076,19.6542484 L53.2511076,20.4702484 L51.6911076,20.4702484 L51.6911076,21.8622484 L53.0591076,21.8622484 L53.0591076,30.1062484 L52.2911076,30.1062484 L52.2911076,29.4582484 L48.8711076,29.4582484 L48.8711076,30.1062484 L48.1031076,30.1062484 L48.1031076,21.8622484 L49.4111076,21.8622484 L49.4111076,20.4702484 L47.7911076,20.4702484 L47.7911076,19.6542484 Z M48.8711076,28.6422484 L52.2911076,28.6422484 L52.2911076,27.4782484 L48.8711076,27.4782484 L48.8711076,28.6422484 Z M49.5791076,22.6542484 L48.8711076,22.6542484 L48.8711076,26.6862484 L52.2911076,26.6862484 L52.2911076,25.6422484 L51.6791076,25.6422484 C51.1751076,25.6422484 50.9231076,25.3662484 50.9231076,24.8142484 L50.9231076,22.6542484 L50.1671076,22.6542484 L50.1671076,23.4342484 C50.1431076,24.7182484 49.8791076,25.6542484 49.3751076,26.2542484 L48.9191076,25.8342484 C49.3511076,25.3302484 49.5671076,24.5382484 49.5791076,23.4342484 L49.5791076,22.6542484 Z M50.1551076,21.8622484 L50.9471076,21.8622484 L50.9471076,20.4702484 L50.1551076,20.4702484 L50.1551076,21.8622484 Z M52.2911076,24.9702484 L52.2911076,22.6542484 L51.5231076,22.6542484 L51.5231076,24.6582484 C51.5231076,24.8622484 51.6191076,24.9702484 51.8231076,24.9702484 L52.2911076,24.9702484 Z M60.5351076,20.1222484 L62.8751076,20.1222484 L62.8751076,19.1142484 L63.7151076,19.1142484 L63.7151076,20.1222484 L65.8871076,20.1222484 L65.8871076,20.9142484 L63.7151076,20.9142484 L63.7151076,22.0182484 L66.5951076,22.0182484 C66.5471076,21.1182484 66.5231076,20.1462484 66.5231076,19.0902484 L67.3631076,19.0902484 C67.3631076,20.1822484 67.3871076,21.1542484 67.4351076,22.0182484 L70.4591076,22.0182484 L70.4591076,22.7982484 L67.4831076,22.7982484 C67.5551076,23.8662484 67.6511076,24.7422484 67.7831076,25.4142484 C67.8551076,25.7622484 67.9271076,26.0862484 67.9991076,26.3982484 C68.4311076,25.5342484 68.7791076,24.5262484 69.0431076,23.3982484 L69.8111076,23.7462484 C69.4271076,25.2462484 68.9351076,26.5062484 68.3351076,27.5142484 C68.4311076,27.7902484 68.5391076,28.0302484 68.6471076,28.2462484 C68.9591076,28.8342484 69.2111076,29.1342484 69.4031076,29.1342484 C69.5951076,29.1222484 69.7631076,28.4862484 69.9071076,27.2142484 L70.6511076,27.6102484 C70.3871076,29.2062484 70.0151076,30.0102484 69.5111076,30.0102484 C69.1031076,30.0102484 68.6591076,29.6382484 68.1911076,28.9182484 C68.0591076,28.7142484 67.9391076,28.4982484 67.8431076,28.2702484 C67.2191076,29.0862484 66.5111076,29.6982484 65.7191076,30.1302484 L65.2511076,29.4342484 C66.1151076,28.9542484 66.8591076,28.2582484 67.4711076,27.3342484 C67.3031076,26.8062484 67.1471076,26.2302484 67.0151076,25.5942484 C66.8471076,24.8022484 66.7151076,23.8782484 66.6431076,22.7982484 L59.9111076,22.7982484 L59.9111076,22.0182484 L62.8751076,22.0182484 L62.8751076,20.9142484 L60.5351076,20.9142484 L60.5351076,20.1222484 Z M68.5991076,19.2462484 C69.1991076,19.9182484 69.6671076,20.5062484 69.9911076,21.0102484 L69.3431076,21.4662484 C69.0071076,20.9262484 68.5391076,20.3262484 67.9391076,19.6662484 L68.5991076,19.2462484 Z M65.8871076,27.7062484 L65.8871076,28.4742484 C65.2871076,28.5462484 64.6631076,28.6302484 64.0151076,28.7022484 L64.0151076,30.1182484 L63.1631076,30.1182484 L63.1631076,28.7862484 C62.2991076,28.8702484 61.3871076,28.9422484 60.4271076,29.0142484 L60.3191076,28.2102484 C61.3271076,28.1502484 62.2751076,28.0782484 63.1631076,28.0062484 L63.1631076,26.9382484 L60.8231076,26.9382484 L60.6551076,26.2302484 C60.9911076,25.8222484 61.3031076,25.3302484 61.5911076,24.7302484 L60.2711076,24.7302484 L60.2711076,23.9622484 L61.9271076,23.9622484 C62.0471076,23.6742484 62.1551076,23.3622484 62.2631076,23.0502484 L63.0911076,23.2062484 C62.9951076,23.4702484 62.8991076,23.7222484 62.8031076,23.9622484 L65.9471076,23.9622484 L65.9471076,24.7302484 L62.4671076,24.7302484 C62.2031076,25.2822484 61.9151076,25.7742484 61.6151076,26.2062484 L63.1631076,26.2062484 L63.1631076,25.2702484 L64.0151076,25.2702484 L64.0151076,26.2062484 L65.8391076,26.2062484 L65.8391076,26.9382484 L64.0151076,26.9382484 L64.0151076,27.9222484 C64.6751076,27.8502484 65.2991076,27.7782484 65.8871076,27.7062484 Z"/>
  </g>
</svg>
