<svg xmlns="http://www.w3.org/2000/svg" width="101" height="35" viewBox="0 0 101 35">
  <g fill="none" fill-rule="evenodd" transform="translate(-1)" opacity=".896">
    <rect width="64.413" height="17.693" x="14.583" y="16.52" stroke="#4ED4FE"/>
    <polygon fill="#4ED4FE" points="78.779 .941 79.09 .941 79.402 19.8 78.467 19.8" transform="matrix(-1 0 0 1 157.934 0)"/>
    <polygon fill="#4ED4FE" points="88.021 21.349 88.332 21.349 88.644 47.207 87.709 47.207" transform="rotate(90 88.21 34.278)"/>
    <polygon fill="#4ED4FE" points="7.738 27.349 8.05 27.349 8.361 41.207 7.427 41.207" transform="matrix(0 1 1 0 -26.35 26.35)"/>
    <path fill="#4ED4FE" d="M25.4111076,20.7942484 C25.1231076,21.2382484 24.7991076,21.6222484 24.4391076,21.9462484 L23.9231076,21.2982484 C24.4991076,20.7702484 24.9791076,20.0262484 25.3751076,19.0662484 L26.1551076,19.2342484 C26.0471076,19.5222484 25.9391076,19.7862484 25.8311076,20.0262484 L29.2631076,20.0262484 L29.2631076,20.7942484 L27.4511076,20.7942484 C27.4271076,21.2022484 27.3911076,21.5982484 27.3431076,21.9582484 L29.5991076,21.9582484 L29.5991076,22.7502484 L27.1631076,22.7502484 C27.1271076,22.8702484 27.0911076,22.9782484 27.0671076,23.0862484 C27.9791076,23.5422484 28.7471076,24.0102484 29.3711076,24.4902484 L28.7591076,25.1022484 C28.2551076,24.6462484 27.6071076,24.1902484 26.7911076,23.7102484 C26.3111076,24.5502484 25.4711076,25.2462484 24.2831076,25.7982484 L23.7071076,25.0902484 C24.9551076,24.5382484 25.7711076,23.8542484 26.1671076,23.0382484 L26.2871076,22.7502484 L23.8751076,22.7502484 L23.8751076,21.9582484 L26.5031076,21.9582484 C26.5751076,21.5862484 26.6111076,21.2022484 26.6351076,20.7942484 L25.4111076,20.7942484 Z M30.1031076,19.9662484 L34.0511076,19.9662484 L34.0511076,24.3582484 L30.1031076,24.3582484 L30.1031076,19.9662484 Z M33.2111076,23.5902484 L33.2111076,20.7342484 L30.9431076,20.7342484 L30.9431076,23.5902484 L33.2111076,23.5902484 Z M33.1991076,25.2222484 L33.1991076,30.1782484 L32.3231076,30.1782484 L32.3231076,29.6382484 L26.3831076,29.6382484 L26.3831076,30.1782484 L25.5191076,30.1782484 L25.5191076,25.2222484 L33.1991076,25.2222484 Z M26.3831076,28.8702484 L32.3231076,28.8702484 L32.3231076,27.8382484 L26.3831076,27.8382484 L26.3831076,28.8702484 Z M26.3831076,27.0822484 L32.3231076,27.0822484 L32.3231076,25.9902484 L26.3831076,25.9902484 L26.3831076,27.0822484 Z M37.3391076,26.0382484 L37.3391076,27.1542484 L40.1111076,27.1542484 L40.1111076,26.0382484 L37.3391076,26.0382484 Z M40.1111076,25.3182484 L40.1111076,24.1542484 L37.3391076,24.1542484 L37.3391076,25.3182484 L40.1111076,25.3182484 Z M37.3391076,27.8862484 L37.3391076,30.1782484 L36.5111076,30.1782484 L36.5111076,23.3982484 L40.9391076,23.3982484 L40.9391076,29.0382484 C40.9391076,29.7342484 40.6031076,30.0942484 39.9311076,30.0942484 L38.9711076,30.0942484 L38.7551076,29.2782484 L39.6551076,29.3142484 C39.9551076,29.3142484 40.1111076,29.1582484 40.1111076,28.8582484 L40.1111076,27.8862484 L37.3391076,27.8862484 Z M45.1511076,24.3942484 C45.5711076,24.3942484 45.8831076,24.2982484 46.0751076,24.1182484 C46.2911076,23.9022484 46.4471076,23.3022484 46.5311076,22.3182484 L45.7271076,22.0662484 C45.6791076,22.8102484 45.6071076,23.2542484 45.4871076,23.4222484 C45.3911076,23.5422484 45.2231076,23.6142484 44.9831076,23.6142484 L43.4111076,23.6142484 C43.0871076,23.6142484 42.9311076,23.4222484 42.9311076,23.0382484 L42.9311076,21.5382484 C44.2511076,21.3462484 45.4151076,21.1182484 46.4231076,20.8662484 L46.1471076,20.1102484 C45.3191076,20.3262484 44.2511076,20.5422484 42.9311076,20.7462484 L42.9311076,19.1862484 L42.0791076,19.1862484 L42.0791076,23.2182484 C42.0791076,23.9982484 42.4391076,24.3942484 43.1711076,24.3942484 L45.1511076,24.3942484 Z M42.9311076,27.1062484 C44.1791076,26.9982484 45.3431076,26.7942484 46.4231076,26.4822484 L46.1471076,25.7142484 C45.1991076,26.0022484 44.1311076,26.2062484 42.9311076,26.3262484 L42.9311076,24.8502484 L42.0791076,24.8502484 L42.0791076,29.0142484 C42.0791076,29.6502484 42.4271076,29.9742484 43.1471076,29.9742484 L45.1871076,29.9742484 C45.6191076,29.9742484 45.9311076,29.8782484 46.1231076,29.6982484 C46.3511076,29.4822484 46.5071076,28.8942484 46.5791076,27.9222484 L45.7991076,27.6822484 C45.7511076,28.4142484 45.6671076,28.8582484 45.5351076,29.0262484 C45.4391076,29.1342484 45.2591076,29.1942484 45.0191076,29.1942484 L43.3871076,29.1942484 C43.0751076,29.1942484 42.9311076,29.0622484 42.9311076,28.8222484 L42.9311076,27.1062484 Z M40.0751076,20.0022484 L39.4031076,20.4222484 C39.6911076,20.8302484 39.9671076,21.2382484 40.2191076,21.6222484 C39.0911076,21.7662484 38.0231076,21.8622484 37.0151076,21.9222484 C37.6871076,21.3102484 38.2871076,20.4702484 38.8391076,19.4022484 L38.0231076,19.1502484 C37.5431076,20.1102484 36.9191076,20.9742484 36.1751076,21.7422484 C36.0671076,21.8382484 35.9351076,21.9222484 35.7791076,21.9702484 L36.0191076,22.6902484 C37.7951076,22.5942484 39.3311076,22.4502484 40.6151076,22.2462484 C40.7711076,22.5102484 40.9151076,22.7742484 41.0471076,23.0382484 L41.7551076,22.5342484 C41.3591076,21.8142484 40.7951076,20.9742484 40.0751076,20.0022484 Z M55.5071076,22.9182484 C55.1231076,22.9902484 54.7271076,23.0502484 54.3311076,23.1102484 L54.3311076,28.8462484 C54.9311076,28.6542484 55.5311076,28.4502484 56.1191076,28.2102484 L56.2751076,28.9662484 C55.4471076,29.2782484 54.4751076,29.5782484 53.3471076,29.8902484 L53.1671076,29.1462484 C53.3951076,29.0982484 53.5151076,28.9902484 53.5151076,28.8462484 L53.5151076,22.4742484 C55.0031076,22.3062484 56.4191076,21.9582484 57.7631076,21.4422484 L58.2071076,22.1502484 C57.5951076,22.3782484 56.9471076,22.5822484 56.2751076,22.7502484 C56.2871076,23.6262484 56.3831076,24.4422484 56.5631076,25.1982484 C57.1871076,24.8142484 57.7031076,24.4302484 58.1231076,24.0222484 L58.6031076,24.6342484 C58.1351076,25.0662484 57.5231076,25.5102484 56.7671076,25.9422484 C57.1751076,27.2502484 57.8351076,28.4022484 58.7471076,29.4102484 L58.1111076,30.0462484 C56.4671076,28.1262484 55.6031076,25.7502484 55.5071076,22.9182484 Z M57.2831076,19.1622484 L57.8471076,19.8102484 C56.3831076,20.4342484 54.5591076,20.8542484 52.3751076,21.0702484 L52.3751076,24.6582484 C52.3151076,26.7942484 51.7991076,28.6302484 50.8151076,30.1422484 L50.2031076,29.5062484 C51.0671076,28.1502484 51.5231076,26.5302484 51.5711076,24.6582484 L51.5711076,20.3742484 C53.9951076,20.1582484 55.9031076,19.7622484 57.2831076,19.1622484 Z M48.7271076,19.3302484 C49.4831076,19.9302484 50.1191076,20.5422484 50.6471076,21.1422484 L50.0591076,21.7422484 C49.5791076,21.1662484 48.9311076,20.5662484 48.1151076,19.9182484 L48.7271076,19.3302484 Z M48.4631076,22.1382484 C49.1831076,22.7502484 49.7831076,23.3622484 50.2751076,23.9742484 L49.6871076,24.5622484 C49.2431076,23.9862484 48.6311076,23.3862484 47.8511076,22.7382484 L48.4631076,22.1382484 Z M49.8071076,25.4862484 L50.5631076,25.7862484 C50.0591076,27.2862484 49.4831076,28.7022484 48.8591076,30.0342484 L48.0551076,29.6862484 C48.7271076,28.3182484 49.3151076,26.9142484 49.8071076,25.4862484 Z M61.1831076,21.0222484 L63.4751076,21.0222484 C63.1151076,20.4462484 62.7431076,19.9302484 62.3471076,19.4742484 L63.1031076,19.1142484 C63.5111076,19.6062484 63.8831076,20.1462484 64.2431076,20.7342484 L63.6911076,21.0222484 L66.1751076,21.0222484 C66.5351076,20.4222484 66.8591076,19.7622484 67.1231076,19.0662484 L67.9511076,19.3662484 C67.6751076,19.9902484 67.3751076,20.5422484 67.0511076,21.0222484 L69.2111076,21.0222484 L69.2111076,26.0142484 L65.6351076,26.0142484 L65.6351076,27.1062484 L70.5311076,27.1062484 L70.5311076,27.9342484 L65.6351076,27.9342484 L65.6351076,30.1902484 L64.7591076,30.1902484 L64.7591076,27.9342484 L59.8511076,27.9342484 L59.8511076,27.1062484 L64.7591076,27.1062484 L64.7591076,26.0142484 L61.1831076,26.0142484 L61.1831076,21.0222484 Z M68.3471076,25.2462484 L68.3471076,23.9022484 L65.6351076,23.9022484 L65.6351076,25.2462484 L68.3471076,25.2462484 Z M64.7591076,25.2462484 L64.7591076,23.9022484 L62.0351076,23.9022484 L62.0351076,25.2462484 L64.7591076,25.2462484 Z M62.0351076,23.1462484 L64.7591076,23.1462484 L64.7591076,21.8142484 L62.0351076,21.8142484 L62.0351076,23.1462484 Z M65.6351076,21.8142484 L65.6351076,23.1462484 L68.3471076,23.1462484 L68.3471076,21.8142484 L65.6351076,21.8142484 Z"/>
  </g>
</svg>
