<svg xmlns="http://www.w3.org/2000/svg" width="101" height="35" viewBox="0 0 101 35">
  <g fill="none" fill-rule="evenodd" transform="translate(-1)" opacity=".896">
    <rect width="64.413" height="17.693" x="14.583" y="16.52" stroke="#4ED4FE"/>
    <polygon fill="#4ED4FE" points="78.779 .941 79.09 .941 79.402 19.8 78.467 19.8" transform="matrix(-1 0 0 1 157.934 0)"/>
    <polygon fill="#4ED4FE" points="88.021 21.349 88.332 21.349 88.644 47.207 87.709 47.207" transform="rotate(90 88.21 34.278)"/>
    <polygon fill="#4ED4FE" points="7.738 27.349 8.05 27.349 8.361 41.207 7.427 41.207" transform="matrix(0 1 1 0 -26.35 26.35)"/>
    <path fill="#4ED4FE" d="M28.8791076,19.1862484 L29.5031076,19.1862484 C31.0271076,20.8662484 32.7791076,22.1862484 34.7591076,23.1462484 L34.2911076,23.9742484 C32.2991076,22.9542484 30.6071076,21.6102484 29.1911076,19.9542484 C27.8951076,21.5142484 26.1791076,22.8582484 24.0431076,23.9862484 L23.5871076,23.1582484 C25.6991076,22.1022484 27.4631076,20.7702484 28.8791076,19.1862484 Z M29.0951076,22.3542484 L29.9711076,22.3542484 L29.9711076,25.0542484 L33.2471076,25.0542484 L33.2471076,25.8822484 L29.9711076,25.8822484 L29.9711076,28.8342484 L34.1111076,28.8342484 L34.1111076,29.6742484 L24.1271076,29.6742484 L24.1271076,28.8342484 L25.9391076,28.8342484 L25.9391076,24.0822484 L26.7911076,24.0822484 L26.7911076,28.8342484 L29.0951076,28.8342484 L29.0951076,22.3542484 Z M39.4511076,19.2702484 L40.3271076,19.2702484 L40.3271076,28.8102484 L42.0311076,28.8102484 L42.0311076,19.2702484 L42.9071076,19.2702484 L42.9071076,28.8102484 L46.5071076,28.8102484 L46.5071076,29.6502484 L35.8751076,29.6502484 L35.8751076,28.8102484 L39.4511076,28.8102484 L39.4511076,19.2702484 Z M45.4151076,21.4542484 L46.1831076,21.6702484 C45.7031076,23.7582484 45.1031076,25.5822484 44.3711076,27.1542484 L43.5911076,26.8782484 C44.2871076,25.4622484 44.8991076,23.6502484 45.4151076,21.4542484 Z M36.9071076,21.4302484 C37.5311076,23.0502484 38.0951076,24.9102484 38.5871076,27.0102484 L37.7951076,27.2142484 C37.3631076,25.2942484 36.8231076,23.4462484 36.1751076,21.6702484 L36.9071076,21.4302484 Z M52.3151076,19.6302484 L52.3151076,27.1662484 L51.5471076,27.1662484 L51.5471076,20.4342484 L48.9551076,20.4342484 L48.9551076,27.1662484 L48.1631076,27.1662484 L48.1631076,19.6302484 L52.3151076,19.6302484 Z M49.8551076,21.3102484 L50.5991076,21.3102484 L50.5991076,25.2102484 C50.5751076,26.5542484 50.3831076,27.6342484 49.9991076,28.4382484 C49.6271076,29.1822484 49.0271076,29.7702484 48.1871076,30.1902484 L47.7191076,29.4702484 C48.5111076,29.0742484 49.0751076,28.5462484 49.3871076,27.8862484 C49.6751076,27.1902484 49.8311076,26.3022484 49.8551076,25.2102484 L49.8551076,21.3102484 Z M51.0071076,27.5022484 C51.6791076,28.1742484 52.2311076,28.8342484 52.6751076,29.4822484 L52.0631076,30.0942484 C51.6791076,29.4462484 51.1391076,28.7622484 50.4551076,28.0422484 L51.0071076,27.5022484 Z M55.5791076,24.9582484 L54.5231076,24.9582484 L54.5231076,29.0382484 C55.0511076,28.8342484 55.6031076,28.5582484 56.1551076,28.2102484 L56.3111076,28.9782484 C55.5671076,29.4462484 54.7271076,29.8302484 53.7671076,30.1302484 L53.4071076,29.3622484 C53.5871076,29.2782484 53.6831076,29.1582484 53.6831076,28.9902484 L53.6831076,24.9582484 L52.8191076,24.9582484 L52.8191076,24.1182484 L53.6831076,24.1182484 L53.6831076,19.1622484 L54.5231076,19.1622484 L54.5231076,24.1182484 L58.5071076,24.1182484 L58.5071076,24.9582484 L56.3351076,24.9582484 C56.8871076,26.8782484 57.6911076,28.3422484 58.7351076,29.3742484 L58.1471076,30.0462484 C57.0191076,28.8942484 56.1551076,27.1902484 55.5791076,24.9582484 Z M57.6671076,19.7022484 L58.3271076,20.2422484 C57.4871076,21.5862484 56.4911076,22.5942484 55.3631076,23.2422484 L54.8951076,22.5702484 C55.9751076,21.9462484 56.8991076,20.9862484 57.6671076,19.7022484 Z M68.7791076,21.4782484 L61.9271076,21.4782484 L61.9271076,23.8182484 L68.7791076,23.8182484 L68.7791076,21.4782484 Z M61.9271076,24.6582484 C61.8671076,26.8062484 61.3031076,28.6542484 60.2231076,30.2022484 L59.5871076,29.6262484 C60.5591076,28.2822484 61.0511076,26.5302484 61.0751076,24.3822484 L61.0751076,20.6262484 L64.9871076,20.6262484 C64.7711076,20.1222484 64.5431076,19.6542484 64.2911076,19.2222484 L65.2151076,19.0782484 C65.4311076,19.5342484 65.6471076,20.0502484 65.8631076,20.6262484 L69.6551076,20.6262484 L69.6551076,24.6582484 L61.9271076,24.6582484 Z"/>
  </g>
</svg>
