<svg xmlns="http://www.w3.org/2000/svg" width="101" height="35" viewBox="0 0 101 35">
  <defs>
    <linearGradient id="a" x1="50%" x2="50%" y1="0%" y2="100%">
      <stop stop-color="#4ED4FE" stop-opacity=".3" offset="0%"/>
      <stop stop-color="#4EECFF" offset="100%"/>
    </linearGradient>
  </defs>
  <g fill="none" fill-rule="evenodd" transform="translate(-1)" opacity=".896">
    <rect width="64.413" height="17.693" x="14.583" y="16.52" stroke="#4ED4FE"/>
    <polygon fill="url(#a)" points="78.779 .941 79.09 .941 79.402 19.8 78.467 19.8" transform="matrix(-1 0 0 1 157.934 0)"/>
    <polygon fill="url(#a)" points="88.021 21.349 88.332 21.349 88.644 47.207 87.709 47.207" transform="rotate(90 88.21 34.278)"/>
    <polygon fill="url(#a)" points="7.738 27.349 8.05 27.349 8.361 41.207 7.427 41.207" transform="matrix(0 1 1 0 -26.35 26.35)"/>
    <path fill="#4ED4FE" d="M27.5831076,20.2182484 C26.3231076,20.2182484 25.3271076,20.6622484 24.5951076,21.5622484 C23.8991076,22.3902484 23.5631076,23.4342484 23.5631076,24.7062484 C23.5631076,25.9782484 23.9111076,27.0222484 24.6071076,27.8262484 C25.3511076,28.6902484 26.4071076,29.1222484 27.7631076,29.1222484 C28.4711076,29.1222484 29.1311076,29.0262484 29.7551076,28.8342484 C30.3431076,28.6422484 30.8471076,28.3902484 31.2551076,28.0542484 L31.2551076,24.5502484 L27.5951076,24.5502484 L27.5951076,25.4022484 L30.2831076,25.4022484 L30.2831076,27.5862484 C29.9831076,27.7782484 29.6231076,27.9462484 29.2031076,28.0662484 C28.7711076,28.1862484 28.3271076,28.2582484 27.8591076,28.2582484 C26.7431076,28.2582484 25.9031076,27.9222484 25.3391076,27.2622484 C24.8111076,26.6382484 24.5471076,25.7862484 24.5471076,24.7062484 C24.5471076,23.6022484 24.8111076,22.7262484 25.3631076,22.0782484 C25.9151076,21.4182484 26.6471076,21.0942484 27.5831076,21.0942484 C28.3391076,21.0942484 28.9511076,21.2742484 29.4191076,21.6462484 C29.8631076,21.9942484 30.1511076,22.4862484 30.2831076,23.1342484 L31.2671076,23.1342484 C31.1111076,22.1982484 30.7391076,21.4902484 30.1391076,20.9982484 C29.5031076,20.4702484 28.6511076,20.2182484 27.5831076,20.2182484 Z M32.8991076,20.3862484 L36.4031076,20.3862484 C38.3711076,20.3862484 39.3551076,21.2262484 39.3551076,22.9062484 C39.3551076,24.5982484 38.3591076,25.4502484 36.3911076,25.4502484 L33.8831076,25.4502484 L33.8831076,28.9542484 L32.8991076,28.9542484 L32.8991076,20.3862484 Z M33.8831076,21.2382484 L33.8831076,24.5982484 L36.3431076,24.5982484 C37.0391076,24.5982484 37.5431076,24.4542484 37.8791076,24.1782484 C38.2031076,23.9022484 38.3711076,23.4822484 38.3711076,22.9062484 C38.3711076,22.3302484 38.2031076,21.9102484 37.8671076,21.6582484 C37.5311076,21.3702484 37.0271076,21.2382484 36.3431076,21.2382484 L33.8831076,21.2382484 Z M43.4831076,20.2182484 C42.5951076,20.2182484 41.8631076,20.4102484 41.2991076,20.7942484 C40.6631076,21.2022484 40.3511076,21.7902484 40.3511076,22.5342484 C40.3511076,23.2542484 40.6751076,23.8062484 41.3351076,24.1902484 C41.6111076,24.3342484 42.2711076,24.5742484 43.3031076,24.8862484 C44.2631076,25.1622484 44.8751076,25.3662484 45.1151076,25.5102484 C45.6791076,25.8102484 45.9671076,26.2302484 45.9671076,26.7702484 C45.9671076,27.2262484 45.7511076,27.5862484 45.3191076,27.8502484 C44.8871076,28.1142484 44.3111076,28.2462484 43.6151076,28.2462484 C42.8471076,28.2462484 42.2711076,28.0782484 41.8751076,27.7662484 C41.4431076,27.4182484 41.1791076,26.8662484 41.0951076,26.1222484 L40.1231076,26.1222484 C40.1951076,27.1782484 40.5671076,27.9582484 41.2391076,28.4742484 C41.8151076,28.9062484 42.6071076,29.1222484 43.6151076,29.1222484 C44.6351076,29.1222484 45.4391076,28.9062484 46.0391076,28.4862484 C46.6391076,28.0542484 46.9391076,27.4542484 46.9391076,26.7102484 C46.9391076,25.9302484 46.5791076,25.3302484 45.8711076,24.8982484 C45.5111076,24.6822484 44.7671076,24.4062484 43.6391076,24.0702484 C42.8111076,23.8302484 42.2831076,23.6502484 42.0671076,23.5302484 C41.5751076,23.2662484 41.3351076,22.9182484 41.3351076,22.4862484 C41.3351076,21.9942484 41.5391076,21.6342484 41.9471076,21.3942484 C42.3071076,21.1782484 42.7991076,21.0822484 43.4351076,21.0822484 C44.1311076,21.0822484 44.6711076,21.2262484 45.0551076,21.5382484 C45.4271076,21.8382484 45.6671076,22.2942484 45.7751076,22.9182484 L46.7471076,22.9182484 C46.6631076,22.0182484 46.3391076,21.3342484 45.7631076,20.8782484 C45.2111076,20.4342484 44.4431076,20.2182484 43.4831076,20.2182484 Z M53.7791076,22.5942484 L53.7791076,23.9382484 L57.0671076,23.9382484 L57.0671076,22.5942484 L53.7791076,22.5942484 Z M57.0671076,21.8262484 L57.0671076,20.4342484 L53.7791076,20.4342484 L53.7791076,21.8262484 L57.0671076,21.8262484 Z M58.0511076,25.3302484 L58.6031076,25.8702484 C58.0871076,26.5182484 57.5111076,27.0222484 56.8871076,27.3582484 C57.3911076,28.0902484 58.0631076,28.7142484 58.9031076,29.2422484 L58.4231076,29.9982484 C56.5391076,28.7262484 55.3991076,26.9622484 55.0031076,24.7182484 L53.7791076,24.7182484 L53.7791076,28.8102484 C54.4511076,28.6062484 55.1351076,28.3422484 55.8071076,28.0182484 L56.0231076,28.8222484 C55.1831076,29.1822484 54.1151076,29.5302484 52.8431076,29.8662484 L52.6511076,29.1342484 C52.8431076,29.0622484 52.9391076,28.9662484 52.9391076,28.8222484 L52.9391076,19.6542484 L57.9071076,19.6542484 L57.9071076,24.7182484 L55.7711076,24.7182484 C55.9151076,25.4622484 56.1551076,26.1342484 56.4911076,26.7342484 C57.0431076,26.4222484 57.5591076,25.9542484 58.0511076,25.3302484 Z M48.3431076,19.6662484 L52.0271076,19.6662484 L52.0271076,23.3862484 L50.9111076,23.3862484 L50.9111076,25.2702484 L52.1831076,25.2702484 L52.1831076,26.0742484 L50.9111076,26.0742484 L50.9111076,28.2822484 C51.3911076,28.1382484 51.8591076,27.9942484 52.3031076,27.8502484 L52.3031076,28.6782484 C51.1031076,29.0982484 49.6871076,29.4942484 48.0671076,29.8662484 L47.8271076,29.0382484 L48.3791076,28.9182484 L48.3791076,24.5862484 L49.1591076,24.5862484 L49.1591076,28.7382484 C49.4831076,28.6662484 49.7951076,28.5822484 50.1071076,28.5102484 L50.1071076,23.3862484 L48.3431076,23.3862484 L48.3431076,19.6662484 Z M51.2111076,22.5942484 L51.2111076,20.4582484 L49.1711076,20.4582484 L49.1711076,22.5942484 L51.2111076,22.5942484 Z M60.2951076,19.6422484 L63.8111076,19.6422484 L63.8111076,23.4342484 L62.7431076,23.4342484 L62.7431076,25.2942484 L63.9791076,25.2942484 L63.9791076,26.1342484 L62.7431076,26.1342484 L62.7431076,28.2342484 C63.1271076,28.0902484 63.5111076,27.9582484 63.8711076,27.8142484 L63.8711076,28.6782484 C62.7431076,29.1342484 61.4351076,29.5422484 59.9471076,29.9262484 L59.6951076,29.0982484 C59.8991076,29.0502484 60.1031076,29.0022484 60.2951076,28.9542484 L60.2951076,24.6102484 L61.0631076,24.6102484 L61.0631076,28.7502484 L61.9271076,28.4982484 L61.9271076,23.4342484 L60.2951076,23.4342484 L60.2951076,19.6422484 Z M62.9711076,22.6302484 L62.9711076,20.4462484 L61.1231076,20.4462484 L61.1231076,22.6302484 L62.9711076,22.6302484 Z M70.5431076,20.4222484 L70.5431076,22.7142484 L69.7271076,22.7142484 L69.7271076,21.2022484 L65.2271076,21.2022484 L65.2271076,22.7142484 L64.4111076,22.7142484 L64.4111076,20.4222484 L66.9671076,20.4222484 C66.8231076,19.9782484 66.6551076,19.5822484 66.4871076,19.2222484 L67.3631076,19.0782484 C67.5191076,19.4742484 67.6751076,19.9182484 67.8191076,20.4222484 L70.5431076,20.4222484 Z M65.2391076,26.2542484 L66.0311076,26.4222484 C65.7191076,27.6942484 65.2751076,28.7862484 64.6991076,29.7222484 L63.9551076,29.2542484 C64.5431076,28.3422484 64.9751076,27.3462484 65.2391076,26.2542484 Z M69.5831076,26.1582484 C70.0751076,27.0702484 70.5071076,28.0542484 70.8671076,29.1102484 L70.0871076,29.4582484 C69.7031076,28.3062484 69.2831076,27.2982484 68.8271076,26.4102484 L69.5831076,26.1582484 Z M67.0271076,29.9622484 L66.0071076,29.9622484 L65.8151076,29.1222484 C66.1271076,29.1582484 66.4391076,29.1822484 66.7271076,29.1822484 C67.0151076,29.1822484 67.1591076,28.9902484 67.1591076,28.6182484 L67.1591076,25.4142484 L64.4591076,25.4142484 L64.4591076,24.5982484 L70.5191076,24.5982484 L70.5191076,25.4142484 L68.0351076,25.4142484 L68.0351076,28.8222484 C68.0351076,29.5782484 67.6991076,29.9622484 67.0271076,29.9622484 Z M65.3351076,22.4982484 L69.6191076,22.4982484 L69.6191076,23.3022484 L65.3351076,23.3022484 L65.3351076,22.4982484 Z"/>
  </g>
</svg>
