<svg xmlns="http://www.w3.org/2000/svg" width="101" height="35" viewBox="0 0 101 35">
  <g fill="none" fill-rule="evenodd" transform="translate(-1)" opacity=".896">
    <rect width="64.413" height="17.693" x="14.583" y="16.52" stroke="#4ED4FE"/>
    <polygon fill="#4ED4FE" points="78.779 .941 79.09 .941 79.402 19.8 78.467 19.8" transform="matrix(-1 0 0 1 157.934 0)"/>
    <polygon fill="#4ED4FE" points="88.021 21.349 88.332 21.349 88.644 47.207 87.709 47.207" transform="rotate(90 88.21 34.278)"/>
    <polygon fill="#4ED4FE" points="7.738 27.349 8.05 27.349 8.361 41.207 7.427 41.207" transform="matrix(0 1 1 0 -26.35 26.35)"/>
    <path fill="#4ED4FE" d="M18.6731076,20.3862484 L18.6731076,28.9542484 L24.6011076,28.9542484 L24.6011076,28.1022484 L19.6451076,28.1022484 L19.6451076,20.3862484 L18.6731076,20.3862484 Z M25.7291076,20.3862484 L29.5571076,20.3862484 C30.3491076,20.3862484 30.9851076,20.5782484 31.4531076,20.9622484 C31.9091076,21.3462484 32.1371076,21.8742484 32.1371076,22.5462484 C32.1371076,23.0262484 32.0051076,23.4462484 31.7531076,23.7942484 C31.4891076,24.1062484 31.1411076,24.3342484 30.7091076,24.4782484 C31.2731076,24.5742484 31.7051076,24.8142484 32.0171076,25.1742484 C32.3291076,25.5342484 32.4971076,25.9902484 32.4971076,26.5662484 C32.4971076,27.4062484 32.1971076,28.0302484 31.6091076,28.4382484 C31.1051076,28.7742484 30.4091076,28.9542484 29.5331076,28.9542484 L25.7291076,28.9542484 L25.7291076,20.3862484 Z M26.7131076,21.2142484 L26.7131076,24.1302484 L29.3171076,24.1302484 C29.9171076,24.1302484 30.3731076,23.9982484 30.6851076,23.7582484 C30.9971076,23.5062484 31.1651076,23.1342484 31.1651076,22.6422484 C31.1651076,22.1622484 31.0091076,21.8022484 30.6971076,21.5622484 C30.3851076,21.3222484 29.9291076,21.2142484 29.3291076,21.2142484 L26.7131076,21.2142484 Z M26.7131076,24.9462484 L26.7131076,28.1262484 L29.4491076,28.1262484 C30.0491076,28.1262484 30.5171076,28.0062484 30.8771076,27.7902484 C31.2971076,27.5262484 31.5131076,27.1062484 31.5131076,26.5542484 C31.5131076,26.0022484 31.3211076,25.5942484 30.9611076,25.3302484 C30.6131076,25.0662484 30.1091076,24.9462484 29.4491076,24.9462484 L26.7131076,24.9462484 Z M36.7331076,20.2182484 C35.8451076,20.2182484 35.1131076,20.4102484 34.5491076,20.7942484 C33.9131076,21.2022484 33.6011076,21.7902484 33.6011076,22.5342484 C33.6011076,23.2542484 33.9251076,23.8062484 34.5851076,24.1902484 C34.8611076,24.3342484 35.5211076,24.5742484 36.5531076,24.8862484 C37.5131076,25.1622484 38.1251076,25.3662484 38.3651076,25.5102484 C38.9291076,25.8102484 39.2171076,26.2302484 39.2171076,26.7702484 C39.2171076,27.2262484 39.0011076,27.5862484 38.5691076,27.8502484 C38.1371076,28.1142484 37.5611076,28.2462484 36.8651076,28.2462484 C36.0971076,28.2462484 35.5211076,28.0782484 35.1251076,27.7662484 C34.6931076,27.4182484 34.4291076,26.8662484 34.3451076,26.1222484 L33.3731076,26.1222484 C33.4451076,27.1782484 33.8171076,27.9582484 34.4891076,28.4742484 C35.0651076,28.9062484 35.8571076,29.1222484 36.8651076,29.1222484 C37.8851076,29.1222484 38.6891076,28.9062484 39.2891076,28.4862484 C39.8891076,28.0542484 40.1891076,27.4542484 40.1891076,26.7102484 C40.1891076,25.9302484 39.8291076,25.3302484 39.1211076,24.8982484 C38.7611076,24.6822484 38.0171076,24.4062484 36.8891076,24.0702484 C36.0611076,23.8302484 35.5331076,23.6502484 35.3171076,23.5302484 C34.8251076,23.2662484 34.5851076,22.9182484 34.5851076,22.4862484 C34.5851076,21.9942484 34.7891076,21.6342484 35.1971076,21.3942484 C35.5571076,21.1782484 36.0491076,21.0822484 36.6851076,21.0822484 C37.3811076,21.0822484 37.9211076,21.2262484 38.3051076,21.5382484 C38.6771076,21.8382484 38.9171076,22.2942484 39.0251076,22.9182484 L39.9971076,22.9182484 C39.9131076,22.0182484 39.5891076,21.3342484 39.0131076,20.8782484 C38.4611076,20.4342484 37.6931076,20.2182484 36.7331076,20.2182484 Z M51.6491076,21.4662484 C51.6491076,23.8902484 51.5891076,25.3662484 51.4691076,25.8942484 C51.3491076,26.3982484 50.8331076,26.6622484 49.9331076,26.6622484 L49.8611076,26.6622484 L49.6211076,25.8102484 C49.8011076,25.8222484 49.9691076,25.8342484 50.1131076,25.8342484 C50.4371076,25.8342484 50.6411076,25.7022484 50.7131076,25.4382484 C50.7731076,25.1862484 50.8091076,24.2382484 50.8211076,22.6062484 L49.0691076,23.1342484 L49.0691076,27.6702484 L48.2291076,27.6702484 L48.2291076,23.3862484 L46.4771076,23.9142484 L46.4771076,28.5702484 C46.4771076,28.9302484 46.6811076,29.1222484 47.1011076,29.1222484 L50.4731076,29.1222484 C50.7251076,29.1222484 50.9051076,29.0382484 51.0011076,28.8822484 C51.1331076,28.6902484 51.2291076,28.1022484 51.2771076,27.1302484 L52.0811076,27.3822484 C51.9971076,28.5942484 51.8411076,29.3262484 51.6011076,29.5902484 C51.3971076,29.8182484 51.0731076,29.9382484 50.6291076,29.9382484 L46.8371076,29.9382484 C46.0331076,29.9382484 45.6371076,29.5302484 45.6371076,28.7382484 L45.6371076,24.1662484 L44.6291076,24.4782484 L44.6291076,23.6382484 L45.6371076,23.3262484 L45.6371076,20.3742484 L46.4771076,20.3742484 L46.4771076,23.0622484 L48.2291076,22.5222484 L48.2291076,19.1502484 L49.0691076,19.1502484 L49.0691076,22.2582484 L51.6491076,21.4662484 Z M44.7851076,26.5662484 L44.7851076,27.4182484 C43.6811076,27.9342484 42.4931076,28.3662484 41.2211076,28.7022484 L41.0051076,27.8382484 C41.5091076,27.7302484 42.0131076,27.5982484 42.5171076,27.4542484 L42.5171076,23.1822484 L41.1491076,23.1822484 L41.1491076,22.3422484 L42.5171076,22.3422484 L42.5171076,19.2462484 L43.3691076,19.2462484 L43.3691076,22.3422484 L44.6171076,22.3422484 L44.6171076,23.1822484 L43.3691076,23.1822484 L43.3691076,27.1662484 C43.8491076,26.9862484 44.3291076,26.7822484 44.7851076,26.5662484 Z M60.5291076,19.1382484 L61.4051076,19.1382484 L61.4051076,22.9782484 L63.6851076,22.9782484 L63.6851076,23.8062484 L61.4051076,23.8062484 L61.4051076,28.8342484 L64.0331076,28.8342484 L64.0331076,29.6742484 L56.4731076,29.6742484 L56.4731076,28.8342484 L57.8651076,28.8342484 L57.8651076,21.6822484 L58.7291076,21.6822484 L58.7291076,28.8342484 L60.5291076,28.8342484 L60.5291076,19.1382484 Z M57.0731076,26.6622484 L57.0731076,27.5622484 C55.8731076,27.9942484 54.5651076,28.3662484 53.1731076,28.6542484 L52.9451076,27.7422484 C53.4971076,27.6462484 54.0371076,27.5382484 54.5651076,27.4182484 L54.5651076,23.0862484 L53.0651076,23.0862484 L53.0651076,22.2462484 L54.5651076,22.2462484 L54.5651076,19.1982484 L55.4531076,19.1982484 L55.4531076,22.2462484 L56.9291076,22.2462484 L56.9291076,23.0862484 L55.4531076,23.0862484 L55.4531076,27.1782484 C56.0051076,27.0222484 56.5451076,26.8542484 57.0731076,26.6622484 Z M70.9811076,19.0542484 C71.1971076,19.4022484 71.4011076,19.7862484 71.5931076,20.2182484 L75.9131076,20.2182484 L75.9131076,21.0582484 L67.0211076,21.0582484 L67.0211076,23.7942484 C66.9731076,26.4462484 66.5771076,28.5702484 65.8091076,30.1542484 L65.1011076,29.5182484 C65.7611076,28.1502484 66.1091076,26.2422484 66.1331076,23.7942484 L66.1331076,20.2182484 L70.6451076,20.2182484 C70.4531076,19.8462484 70.2371076,19.5102484 70.0211076,19.2222484 L70.9811076,19.0542484 Z M70.2011076,21.3942484 L71.0291076,21.5862484 C70.9211076,21.9222484 70.8131076,22.2342484 70.7051076,22.5462484 L75.3851076,22.5462484 L75.3851076,23.3022484 L70.4051076,23.3022484 C70.0691076,24.0702484 69.7091076,24.7542484 69.3251076,25.3542484 L71.5691076,25.3542484 L71.5691076,23.9022484 L72.4331076,23.9022484 L72.4331076,25.3542484 L75.1091076,25.3542484 L75.1091076,26.1342484 L72.4331076,26.1342484 L72.4331076,27.4782484 L76.0211076,27.4782484 L76.0211076,28.2702484 L72.4331076,28.2702484 L72.4331076,30.1662484 L71.5691076,30.1662484 L71.5691076,28.2702484 L67.2371076,28.2702484 L67.2371076,27.4782484 L71.5691076,27.4782484 L71.5691076,26.1342484 L68.4251076,26.1342484 L68.2451076,25.3902484 C68.7011076,24.8262484 69.1211076,24.1302484 69.4931076,23.3022484 L67.6811076,23.3022484 L67.6811076,22.5462484 L69.8051076,22.5462484 C69.9371076,22.1742484 70.0691076,21.7902484 70.2011076,21.3942484 Z"/>
  </g>
</svg>
