<svg xmlns="http://www.w3.org/2000/svg" width="101" height="35" viewBox="0 0 101 35">
  <g fill="none" fill-rule="evenodd" transform="translate(-1)" opacity=".896">
    <rect width="64.413" height="17.693" x="14.583" y="16.52" stroke="#4ED4FE"/>
    <polygon fill="#4ED4FE" points="78.779 .941 79.09 .941 79.402 19.8 78.467 19.8" transform="matrix(-1 0 0 1 157.934 0)"/>
    <polygon fill="#4ED4FE" points="88.021 21.349 88.332 21.349 88.644 47.207 87.709 47.207" transform="rotate(90 88.21 34.278)"/>
    <polygon fill="#4ED4FE" points="7.738 27.349 8.05 27.349 8.361 41.207 7.427 41.207" transform="matrix(0 1 1 0 -26.35 26.35)"/>
    <path fill="#4ED4FE" d="M25.1951076,23.3142484 C24.8111076,23.8782484 24.3791076,24.4182484 23.9231076,24.9222484 L23.6351076,24.0102484 C24.8111076,22.5942484 25.6751076,20.9742484 26.2031076,19.1502484 L27.0191076,19.5222484 C26.7671076,20.3262484 26.4551076,21.0942484 26.0831076,21.8262484 L26.0831076,30.1182484 L25.1951076,30.1182484 L25.1951076,23.3142484 Z M31.6871076,23.3502484 L32.5271076,23.3502484 L32.5271076,30.0462484 L31.6871076,30.0462484 L31.6871076,23.3502484 Z M28.6031076,23.3862484 L29.4311076,23.3862484 L29.4311076,25.1982484 C29.4071076,27.4662484 28.8191076,29.1222484 27.6671076,30.1782484 L27.0191076,29.6142484 C28.0511076,28.7022484 28.5791076,27.2262484 28.6031076,25.1982484 L28.6031076,23.3862484 Z M30.1271076,19.2102484 L30.9071076,19.2102484 C31.6511076,20.8182484 32.9471076,22.2222484 34.7711076,23.4342484 L34.2791076,24.1662484 C32.5991076,23.0502484 31.3391076,21.6702484 30.5111076,20.0382484 C29.5511076,21.8742484 28.3511076,23.2902484 26.8991076,24.2982484 L26.4191076,23.5662484 C28.0271076,22.4502484 29.2631076,20.9982484 30.1271076,19.2102484 Z M38.3111076,23.9502484 L38.3111076,30.1062484 L37.4591076,30.1062484 L37.4591076,24.0822484 C37.0871076,25.2222484 36.5951076,26.2662484 35.9951076,27.2022484 L35.6231076,26.2662484 C36.4631076,25.1142484 37.0751076,23.8062484 37.4471076,22.3302484 L35.8631076,22.3302484 L35.8631076,21.5022484 L37.4591076,21.5022484 L37.4591076,19.1622484 L38.3111076,19.1622484 L38.3111076,21.5022484 L39.6191076,21.5022484 L39.6191076,22.3302484 L38.3111076,22.3302484 L38.3111076,22.9782484 C38.8151076,23.5542484 39.3311076,24.1902484 39.8471076,24.8982484 L39.8351076,24.9102484 C40.8911076,24.4782484 41.8151076,23.9862484 42.5831076,23.4222484 C42.0671076,22.9302484 41.6351076,22.4262484 41.2991076,21.8982484 C40.9871076,22.3062484 40.6511076,22.6902484 40.3031076,23.0382484 L39.7511076,22.3782484 C40.6271076,21.5502484 41.3351076,20.4702484 41.8871076,19.1382484 L42.7151076,19.3182484 C42.5951076,19.6302484 42.4631076,19.9302484 42.3191076,20.2182484 L45.7031076,20.2182484 L45.7031076,20.8902484 C45.2711076,21.8502484 44.6351076,22.7022484 43.8191076,23.4582484 C44.6231076,24.0222484 45.5951076,24.5142484 46.7231076,24.9342484 L46.3391076,25.7382484 C45.0911076,25.2102484 44.0591076,24.6222484 43.2191076,23.9622484 C42.3071076,24.6702484 41.1911076,25.2702484 39.8831076,25.7742484 L39.5591076,25.3422484 L39.3791076,25.6182484 C38.9591076,24.9222484 38.5991076,24.3702484 38.3111076,23.9502484 Z M45.6791076,25.6542484 L45.6791076,30.1302484 L44.8391076,30.1302484 L44.8391076,29.6022484 L41.4431076,29.6022484 L41.4431076,30.1302484 L40.6031076,30.1302484 L40.6031076,25.6542484 L45.6791076,25.6542484 Z M41.4431076,28.7982484 L44.8391076,28.7982484 L44.8391076,26.4582484 L41.4431076,26.4582484 L41.4431076,28.7982484 Z M43.1711076,22.9542484 C43.8311076,22.3782484 44.3591076,21.7422484 44.7551076,21.0462484 L41.8631076,21.0462484 C41.8151076,21.1182484 41.7791076,21.2022484 41.7311076,21.2742484 C42.1031076,21.8862484 42.5831076,22.4502484 43.1711076,22.9542484 Z M51.3791076,20.1462484 L53.1311076,20.1462484 L53.1311076,19.1862484 L53.9351076,19.1862484 L53.9351076,20.1462484 L55.8671076,20.1462484 L55.8671076,19.1862484 L56.6831076,19.1862484 L56.6831076,20.1462484 L58.5431076,20.1462484 L58.5431076,20.9142484 L56.6831076,20.9142484 L56.6831076,21.8142484 L55.8671076,21.8142484 L55.8671076,20.9142484 L53.9351076,20.9142484 L53.9351076,21.8142484 L53.1311076,21.8142484 L53.1311076,20.9142484 L51.3791076,20.9142484 L51.3791076,20.1462484 Z M54.7511076,27.6822484 C54.6071076,27.9822484 54.4271076,28.2582484 54.2351076,28.4982484 C53.6831076,29.1942484 52.7231076,29.7342484 51.3431076,30.1302484 L51.0311076,29.4102484 C52.2311076,29.0862484 53.0831076,28.6182484 53.6111076,28.0062484 C53.7311076,27.8502484 53.8511076,27.6942484 53.9471076,27.5262484 L51.1511076,27.5262484 L51.1511076,26.7342484 L54.3071076,26.7342484 C54.4031076,26.4462484 54.4751076,26.1342484 54.5351076,25.8222484 L52.0151076,25.8222484 L52.0151076,22.1862484 L57.7631076,22.1862484 L57.7631076,25.8222484 L55.3031076,25.8222484 C55.2551076,26.1582484 55.1831076,26.4582484 55.1111076,26.7342484 L58.5671076,26.7342484 L58.5671076,27.5262484 L55.5311076,27.5262484 C56.2271076,28.3422484 57.2831076,29.0022484 58.6991076,29.5062484 L58.1231076,30.1902484 C56.5631076,29.5182484 55.4471076,28.6902484 54.7511076,27.6822484 Z M50.2151076,24.0102484 L50.2151076,30.1182484 L49.3991076,30.1182484 L49.3991076,24.1422484 C49.0271076,25.2702484 48.5591076,26.3022484 47.9831076,27.2262484 L47.6111076,26.2902484 C48.4391076,25.1382484 49.0391076,23.8422484 49.3991076,22.3782484 L49.3991076,22.3062484 L48.0071076,22.3062484 L48.0071076,21.5262484 L49.3991076,21.5262484 L49.3991076,19.1982484 L50.2151076,19.1982484 L50.2151076,21.5262484 L51.4751076,21.5262484 L51.4751076,22.3062484 L50.2151076,22.3062484 L50.2151076,23.0982484 C50.7311076,23.7222484 51.2591076,24.4422484 51.8111076,25.2462484 L51.3551076,25.9302484 C50.9111076,25.1382484 50.5271076,24.5022484 50.2151076,24.0102484 Z M56.9831076,25.1502484 L56.9831076,24.3342484 L52.7951076,24.3342484 L52.7951076,25.1502484 L56.9831076,25.1502484 Z M52.7951076,23.6862484 L56.9831076,23.6862484 L56.9831076,22.8822484 L52.7951076,22.8822484 L52.7951076,23.6862484 Z M60.3071076,19.6902484 L65.9471076,19.6902484 L65.9471076,20.4582484 L64.7351076,20.4582484 L64.7351076,22.2582484 L66.2111076,22.2582484 L66.2111076,23.0502484 L64.7351076,23.0502484 L64.7351076,25.6902484 L63.8951076,25.6902484 L63.8951076,23.0502484 L62.3231076,23.0502484 C62.1911076,24.2862484 61.7351076,25.2102484 60.9431076,25.8342484 L60.2951076,25.2702484 C60.9671076,24.7662484 61.3631076,24.0342484 61.4831076,23.0502484 L59.9951076,23.0502484 L59.9951076,22.2582484 L61.5311076,22.2582484 L61.5311076,20.4582484 L60.3071076,20.4582484 L60.3071076,19.6902484 Z M62.3591076,20.4582484 L62.3591076,22.2582484 L63.8951076,22.2582484 L63.8951076,20.4582484 L62.3591076,20.4582484 Z M66.9191076,19.9662484 L67.7471076,19.9662484 L67.7471076,24.0942484 L66.9191076,24.0942484 L66.9191076,19.9662484 Z M60.5951076,26.8662484 L64.8071076,26.8662484 L64.8071076,25.8222484 L65.6711076,25.8222484 L65.6711076,26.8662484 L69.7991076,26.8662484 L69.7991076,27.6582484 L65.6711076,27.6582484 L65.6711076,29.0622484 L70.4591076,29.0622484 L70.4591076,29.8542484 L59.9231076,29.8542484 L59.9231076,29.0622484 L64.8071076,29.0622484 L64.8071076,27.6582484 L60.5951076,27.6582484 L60.5951076,26.8662484 Z M68.9591076,25.7982484 L67.3511076,25.7982484 L67.1711076,24.9822484 C67.6991076,25.0182484 68.1911076,25.0422484 68.6711076,25.0422484 C68.9471076,25.0422484 69.0911076,24.8502484 69.0911076,24.4902484 L69.0911076,19.3062484 L69.9191076,19.3062484 L69.9191076,24.6942484 C69.9191076,25.4262484 69.5951076,25.7982484 68.9591076,25.7982484 Z"/>
  </g>
</svg>
