<svg xmlns="http://www.w3.org/2000/svg" width="16" height="233" viewBox="0 0 16 233">
  <path fill="#163D77" fill-rule="evenodd" d="M14.28968,228.289443 C14.71208,228.289443 15.04648,228.621201 15.04648,229.034696 C15.04648,229.447389 14.71208,229.779948 14.28968,229.779948 C13.88888,229.779948 13.55768,229.447389 13.55768,229.034696 C13.55768,228.621201 13.88888,228.289443 14.28968,228.289443 Z M14.28968,224.08101 C14.71208,224.08101 15.04648,224.41437 15.04648,224.826263 C15.04648,225.226135 14.71208,225.571515 14.28968,225.571515 C13.88888,225.571515 13.55768,225.226135 13.55768,224.826263 C13.55768,224.41437 13.88888,224.08101 14.28968,224.08101 Z M0.74048,228.289443 C1.15328,228.289443 1.48928,228.621201 1.48928,229.034696 C1.48928,229.447389 1.15328,229.779948 0.74048,229.779948 C0.33008,229.779948 -0.00032,229.447389 -0.00032,229.034696 C-0.00032,228.621201 0.33008,228.289443 0.74048,228.289443 Z M0.74048,224.08101 C1.15328,224.08101 1.48928,224.41437 1.48928,224.826263 C1.48928,225.226135 1.15328,225.571515 0.74048,225.571515 C0.33008,225.571515 -0.00032,225.226135 -0.00032,224.826263 C-0.00032,224.41437 0.33008,224.08101 0.74048,224.08101 Z M11.576,230.888291 C11.9888,230.888291 12.3216,231.222453 12.3216,231.635146 C12.3216,232.046237 11.9888,232.380399 11.576,232.380399 C11.1656,232.380399 10.832,232.046237 10.832,231.635146 C10.832,231.222453 11.1656,230.888291 11.576,230.888291 Z M8.85624,230.888291 C9.25544,230.888291 9.58824,231.222453 9.58824,231.635146 C9.58824,232.046237 9.25544,232.380399 8.85624,232.380399 C8.44584,232.380399 8.10744,232.046237 8.10744,231.635146 C8.10744,231.222453 8.44584,230.888291 8.85624,230.888291 Z M6.13272,230.888291 C6.54312,230.888291 6.87672,231.222453 6.87672,231.635146 C6.87672,232.046237 6.54312,232.380399 6.13272,232.380399 C5.71992,232.380399 5.38712,232.046237 5.38712,231.635146 C5.38712,231.222453 5.71992,230.888291 6.13272,230.888291 Z M3.40792,230.888291 C3.81832,230.888291 4.15192,231.222453 4.15192,231.635146 C4.15192,232.046237 3.81832,232.380399 3.40792,232.380399 C2.99512,232.380399 2.66232,232.046237 2.66232,231.635146 C2.66232,231.222453 2.99512,230.888291 3.40792,230.888291 Z M11.576,221.226052 C11.9888,221.226052 12.3216,221.556207 12.3216,221.968099 C12.3216,222.372779 11.9888,222.704537 11.576,222.704537 C11.1656,222.704537 10.832,222.372779 10.832,221.968099 C10.832,221.556207 11.1656,221.226052 11.576,221.226052 Z M8.85624,221.226052 C9.25544,221.226052 9.58824,221.556207 9.58824,221.968099 C9.58824,222.372779 9.25544,222.704537 8.85624,222.704537 C8.44584,222.704537 8.10744,222.372779 8.10744,221.968099 C8.10744,221.556207 8.44584,221.226052 8.85624,221.226052 Z M6.13272,221.226052 C6.54312,221.226052 6.87672,221.556207 6.87672,221.968099 C6.87672,222.372779 6.54312,222.704537 6.13272,222.704537 C5.71992,222.704537 5.38712,222.372779 5.38712,221.968099 C5.38712,221.556207 5.71992,221.226052 6.13272,221.226052 Z M3.40792,221.226052 C3.81832,221.226052 4.15192,221.556207 4.15192,221.968099 C4.15192,222.372779 3.81832,222.704537 3.40792,222.704537 C2.99512,222.704537 2.66232,222.372779 2.66232,221.968099 C2.66232,221.556207 2.99512,221.226052 3.40792,221.226052 Z M14.9872,211.343763 C15.4,211.343763 15.728,211.677123 15.728,212.089015 C15.728,212.501709 15.4,212.835871 14.9872,212.835871 C14.5744,212.835871 14.2432,212.501709 14.2432,212.089015 C14.2432,211.677123 14.5744,211.343763 14.9872,211.343763 Z M12.26408,211.343763 C12.67448,211.343763 13.00808,211.677123 13.00808,212.089015 C13.00808,212.501709 12.67448,212.835871 12.26408,212.835871 C11.84968,212.835871 11.51848,212.501709 11.51848,212.089015 C11.51848,211.677123 11.84968,211.343763 12.26408,211.343763 Z M9.53896,211.343763 C9.94936,211.343763 10.28296,211.677123 10.28296,212.089015 C10.28296,212.501709 9.94936,212.835871 9.53896,212.835871 C9.12616,212.835871 8.79496,212.501709 8.79496,212.089015 C8.79496,211.677123 9.12616,211.343763 9.53896,211.343763 Z M6.8188,211.343763 C7.2292,211.343763 7.5596,211.677123 7.5596,212.089015 C7.5596,212.501709 7.2292,212.835871 6.8188,212.835871 C6.4068,212.835871 6.0732,212.501709 6.0732,212.089015 C6.0732,211.677123 6.4068,211.343763 6.8188,211.343763 Z M4.094,211.343763 C4.5044,211.343763 4.838,211.677123 4.838,212.089015 C4.838,212.501709 4.5044,212.835871 4.094,212.835871 C3.6812,212.835871 3.35,212.501709 3.35,212.089015 C3.35,211.677123 3.6812,211.343763 4.094,211.343763 Z M1.38232,211.343763 C1.77992,211.343763 2.11432,211.677123 2.11432,212.089015 C2.11432,212.501709 1.77992,212.835871 1.38232,212.835871 C0.95672,212.835871 0.62472,212.501709 0.62472,212.089015 C0.62472,211.677123 0.95672,211.343763 1.38232,211.343763 Z M2.36704,214.071547 C2.77904,214.071547 3.11584,214.404908 3.11584,214.818403 C3.11584,215.231898 2.77904,215.563655 2.36704,215.563655 C1.95984,215.563655 1.62624,215.231898 1.62624,214.818403 C1.62624,214.404908 1.95984,214.071547 2.36704,214.071547 Z M3.47888,216.051114 C3.89808,216.051114 4.23088,216.384475 4.23088,216.79797 C4.23088,217.210663 3.89808,217.543222 3.47888,217.543222 C3.06608,217.543222 2.74128,217.210663 2.74128,216.79797 C2.74128,216.384475 3.06608,216.051114 3.47888,216.051114 Z M14.28968,200.706365 C14.71208,200.706365 15.04648,201.043732 15.04648,201.456426 C15.04648,201.864311 14.71208,202.198473 14.28968,202.198473 C13.88888,202.198473 13.55768,201.864311 13.55768,201.456426 C13.55768,201.043732 13.88888,200.706365 14.28968,200.706365 Z M14.28968,196.489758 C14.71208,196.489758 15.04648,196.823119 15.04648,197.235011 C15.04648,197.647704 14.71208,197.981866 14.28968,197.981866 C13.88888,197.981866 13.55768,197.647704 13.55768,197.235011 C13.55768,196.823119 13.88888,196.489758 14.28968,196.489758 Z M0.74048,200.706365 C1.15328,200.706365 1.48928,201.043732 1.48928,201.456426 C1.48928,201.864311 1.15328,202.198473 0.74048,202.198473 C0.33008,202.198473 -0.00032,201.864311 -0.00032,201.456426 C-0.00032,201.043732 0.33008,200.706365 0.74048,200.706365 Z M0.74048,196.489758 C1.15328,196.489758 1.48928,196.823119 1.48928,197.235011 C1.48928,197.647704 1.15328,197.981866 0.74048,197.981866 C0.33008,197.981866 -0.00032,197.647704 -0.00032,197.235011 C-0.00032,196.823119 0.33008,196.489758 0.74048,196.489758 Z M11.576,203.305453 C11.9888,203.305453 12.3216,203.644423 12.3216,204.055514 C12.3216,204.455386 11.9888,204.797561 11.576,204.797561 C11.1656,204.797561 10.832,204.455386 10.832,204.055514 C10.832,203.644423 11.1656,203.305453 11.576,203.305453 Z M8.85624,203.305453 C9.25544,203.305453 9.58824,203.644423 9.58824,204.055514 C9.58824,204.455386 9.25544,204.797561 8.85624,204.797561 C8.44584,204.797561 8.10744,204.455386 8.10744,204.055514 C8.10744,203.644423 8.44584,203.305453 8.85624,203.305453 Z M6.13272,203.305453 C6.54312,203.305453 6.87672,203.644423 6.87672,204.055514 C6.87672,204.455386 6.54312,204.797561 6.13272,204.797561 C5.71992,204.797561 5.38712,204.455386 5.38712,204.055514 C5.38712,203.644423 5.71992,203.305453 6.13272,203.305453 Z M3.40792,203.305453 C3.81832,203.305453 4.15192,203.644423 4.15192,204.055514 C4.15192,204.455386 3.81832,204.797561 3.40792,204.797561 C2.99512,204.797561 2.66232,204.455386 2.66232,204.055514 C2.66232,203.644423 2.99512,203.305453 3.40792,203.305453 Z M11.576,193.642813 C11.9888,193.642813 12.3216,193.976174 12.3216,194.389669 C12.3216,194.789541 11.9888,195.122901 11.576,195.122901 C11.1656,195.122901 10.832,194.789541 10.832,194.389669 C10.832,193.976174 11.1656,193.642813 11.576,193.642813 Z M8.85624,193.642813 C9.25544,193.642813 9.58824,193.976174 9.58824,194.389669 C9.58824,194.789541 9.25544,195.122901 8.85624,195.122901 C8.44584,195.122901 8.10744,194.789541 8.10744,194.389669 C8.10744,193.976174 8.44584,193.642813 8.85624,193.642813 Z M6.13272,193.642813 C6.54312,193.642813 6.87672,193.976174 6.87672,194.389669 C6.87672,194.789541 6.54312,195.122901 6.13272,195.122901 C5.71992,195.122901 5.38712,194.789541 5.38712,194.389669 C5.38712,193.976174 5.71992,193.642813 6.13272,193.642813 Z M3.40792,193.642813 C3.81832,193.642813 4.15192,193.976174 4.15192,194.389669 C4.15192,194.789541 3.81832,195.122901 3.40792,195.122901 C2.99512,195.122901 2.66232,194.789541 2.66232,194.389669 C2.66232,193.976174 2.99512,193.642813 3.40792,193.642813 Z M14.9872,183.752191 C15.4,183.752191 15.728,184.086352 15.728,184.497443 C15.728,184.910137 15.4,185.242696 14.9872,185.242696 C14.5744,185.242696 14.2432,184.910137 14.2432,184.497443 C14.2432,184.086352 14.5744,183.752191 14.9872,183.752191 Z M12.26408,183.752191 C12.67448,183.752191 13.00808,184.086352 13.00808,184.497443 C13.00808,184.910137 12.67448,185.242696 12.26408,185.242696 C11.84968,185.242696 11.51848,184.910137 11.51848,184.497443 C11.51848,184.086352 11.84968,183.752191 12.26408,183.752191 Z M9.53896,183.752191 C9.94936,183.752191 10.28296,184.086352 10.28296,184.497443 C10.28296,184.910137 9.94936,185.242696 9.53896,185.242696 C9.12616,185.242696 8.79496,184.910137 8.79496,184.497443 C8.79496,184.086352 9.12616,183.752191 9.53896,183.752191 Z M6.8188,183.752191 C7.2292,183.752191 7.5596,184.086352 7.5596,184.497443 C7.5596,184.910137 7.2292,185.242696 6.8188,185.242696 C6.4068,185.242696 6.0732,184.910137 6.0732,184.497443 C6.0732,184.086352 6.4068,183.752191 6.8188,183.752191 Z M4.094,183.752191 C4.5044,183.752191 4.838,184.086352 4.838,184.497443 C4.838,184.910137 4.5044,185.242696 4.094,185.242696 C3.6812,185.242696 3.35,184.910137 3.35,184.497443 C3.35,184.086352 3.6812,183.752191 4.094,183.752191 Z M1.38232,183.752191 C1.77992,183.752191 2.11432,184.086352 2.11432,184.497443 C2.11432,184.910137 1.77992,185.242696 1.38232,185.242696 C0.95672,185.242696 0.62472,184.910137 0.62472,184.497443 C0.62472,184.086352 0.95672,183.752191 1.38232,183.752191 Z M2.36704,186.481978 C2.77904,186.481978 3.11584,186.813736 3.11584,187.227231 C3.11584,187.639925 2.77904,187.972484 2.36704,187.972484 C1.95984,187.972484 1.62624,187.639925 1.62624,187.227231 C1.62624,186.813736 1.95984,186.481978 2.36704,186.481978 Z M3.47888,188.464591 C3.89808,188.464591 4.23088,188.798752 4.23088,189.209843 C4.23088,189.631352 3.89808,189.956698 3.47888,189.956698 C3.06608,189.956698 2.74128,189.631352 2.74128,189.209843 C2.74128,188.798752 3.06608,188.464591 3.47888,188.464591 Z M14.28968,173.118479 C14.71208,173.118479 15.04648,173.459853 15.04648,173.865334 C15.04648,174.27322 14.71208,174.610587 14.28968,174.610587 C13.88888,174.610587 13.55768,174.27322 13.55768,173.865334 C13.55768,173.459853 13.88888,173.118479 14.28968,173.118479 Z M14.28968,168.9066 C14.71208,168.9066 15.04648,169.239159 15.04648,169.651853 C15.04648,170.056533 14.71208,170.398708 14.28968,170.398708 C13.88888,170.398708 13.55768,170.056533 13.55768,169.651853 C13.55768,169.239159 13.88888,168.9066 14.28968,168.9066 Z M0.74048,173.118479 C1.15328,173.118479 1.48928,173.459853 1.48928,173.865334 C1.48928,174.27322 1.15328,174.610587 0.74048,174.610587 C0.33008,174.610587 -0.00032,174.27322 -0.00032,173.865334 C-0.00032,173.459853 0.33008,173.118479 0.74048,173.118479 Z M0.74048,168.9066 C1.15328,168.9066 1.48928,169.239159 1.48928,169.651853 C1.48928,170.056533 1.15328,170.398708 0.74048,170.398708 C0.33008,170.398708 -0.00032,170.056533 -0.00032,169.651853 C-0.00032,169.239159 0.33008,168.9066 0.74048,168.9066 Z M11.576,175.727424 C11.9888,175.727424 12.3216,176.059181 12.3216,176.463861 C12.3216,176.88537 11.9888,177.205908 11.576,177.205908 C11.1656,177.205908 10.832,176.88537 10.832,176.463861 C10.832,176.059181 11.1656,175.727424 11.576,175.727424 Z M8.85624,175.727424 C9.25544,175.727424 9.58824,176.059181 9.58824,176.463861 C9.58824,176.88537 9.25544,177.205908 8.85624,177.205908 C8.44584,177.205908 8.10744,176.88537 8.10744,176.463861 C8.10744,176.059181 8.44584,175.727424 8.85624,175.727424 Z M6.13272,175.727424 C6.54312,175.727424 6.87672,176.059181 6.87672,176.463861 C6.87672,176.88537 6.54312,177.205908 6.13272,177.205908 C5.71992,177.205908 5.38712,176.88537 5.38712,176.463861 C5.38712,176.059181 5.71992,175.727424 6.13272,175.727424 Z M3.40792,175.727424 C3.81832,175.727424 4.15192,176.059181 4.15192,176.463861 C4.15192,176.88537 3.81832,177.205908 3.40792,177.205908 C2.99512,177.205908 2.66232,176.88537 2.66232,176.463861 C2.66232,176.059181 2.99512,175.727424 3.40792,175.727424 Z M11.576,166.053325 C11.9888,166.053325 12.3216,166.385082 12.3216,166.798577 C12.3216,167.209668 11.9888,167.54383 11.576,167.54383 C11.1656,167.54383 10.832,167.209668 10.832,166.798577 C10.832,166.385082 11.1656,166.053325 11.576,166.053325 Z M8.85624,166.053325 C9.25544,166.053325 9.58824,166.385082 9.58824,166.798577 C9.58824,167.209668 9.25544,167.54383 8.85624,167.54383 C8.44584,167.54383 8.10744,167.209668 8.10744,166.798577 C8.10744,166.385082 8.44584,166.053325 8.85624,166.053325 Z M6.13272,166.053325 C6.54312,166.053325 6.87672,166.385082 6.87672,166.798577 C6.87672,167.209668 6.54312,167.54383 6.13272,167.54383 C5.71992,167.54383 5.38712,167.209668 5.38712,166.798577 C5.38712,166.385082 5.71992,166.053325 6.13272,166.053325 Z M3.40792,166.053325 C3.81832,166.053325 4.15192,166.385082 4.15192,166.798577 C4.15192,167.209668 3.81832,167.54383 3.40792,167.54383 C2.99512,167.54383 2.66232,167.209668 2.66232,166.798577 C2.66232,166.385082 2.99512,166.053325 3.40792,166.053325 Z M14.9872,156.172799 C15.4,156.172799 15.728,156.506159 15.728,156.919654 C15.728,157.330745 15.4,157.664906 14.9872,157.664906 C14.5744,157.664906 14.2432,157.330745 14.2432,156.919654 C14.2432,156.506159 14.5744,156.172799 14.9872,156.172799 Z M12.26408,156.172799 C12.67448,156.172799 13.00808,156.506159 13.00808,156.919654 C13.00808,157.330745 12.67448,157.664906 12.26408,157.664906 C11.84968,157.664906 11.51848,157.330745 11.51848,156.919654 C11.51848,156.506159 11.84968,156.172799 12.26408,156.172799 Z M9.53896,156.172799 C9.94936,156.172799 10.28296,156.506159 10.28296,156.919654 C10.28296,157.330745 9.94936,157.664906 9.53896,157.664906 C9.12616,157.664906 8.79496,157.330745 8.79496,156.919654 C8.79496,156.506159 9.12616,156.172799 9.53896,156.172799 Z M6.8188,156.172799 C7.2292,156.172799 7.5596,156.506159 7.5596,156.919654 C7.5596,157.330745 7.2292,157.664906 6.8188,157.664906 C6.4068,157.664906 6.0732,157.330745 6.0732,156.919654 C6.0732,156.506159 6.4068,156.172799 6.8188,156.172799 Z M4.094,156.172799 C4.5044,156.172799 4.838,156.506159 4.838,156.919654 C4.838,157.330745 4.5044,157.664906 4.094,157.664906 C3.6812,157.664906 3.35,157.330745 3.35,156.919654 C3.35,156.506159 3.6812,156.172799 4.094,156.172799 Z M1.38232,156.172799 C1.77992,156.172799 2.11432,156.506159 2.11432,156.919654 C2.11432,157.330745 1.77992,157.664906 1.38232,157.664906 C0.95672,157.664906 0.62472,157.330745 0.62472,156.919654 C0.62472,156.506159 0.95672,156.172799 1.38232,156.172799 Z M2.36704,158.89882 C2.77904,158.89882 3.11584,159.232982 3.11584,159.648881 C3.11584,160.056766 2.77904,160.389325 2.36704,160.389325 C1.95984,160.389325 1.62624,160.056766 1.62624,159.648881 C1.62624,159.232982 1.95984,158.89882 2.36704,158.89882 Z M3.47888,160.881753 C3.89808,160.881753 4.23088,161.215113 4.23088,161.627005 C4.23088,162.039699 3.89808,162.373861 3.47888,162.373861 C3.06608,162.373861 2.74128,162.039699 2.74128,161.627005 C2.74128,161.215113 3.06608,160.881753 3.47888,160.881753 Z M14.28968,145.535321 C14.71208,145.535321 15.04648,145.868681 15.04648,146.282176 C15.04648,146.694869 14.71208,147.019415 14.28968,147.019415 C13.88888,147.019415 13.55768,146.694869 13.55768,146.282176 C13.55768,145.868681 13.88888,145.535321 14.28968,145.535321 Z M14.28968,141.315348 C14.71208,141.315348 15.04648,141.652715 15.04648,142.065409 C15.04648,142.473294 14.71208,142.807456 14.28968,142.807456 C13.88888,142.807456 13.55768,142.473294 13.55768,142.065409 C13.55768,141.652715 13.88888,141.315348 14.28968,141.315348 Z M0.74048,145.535321 C1.15328,145.535321 1.48928,145.868681 1.48928,146.282176 C1.48928,146.694869 1.15328,147.019415 0.74048,147.019415 C0.33008,147.019415 -0.00032,146.694869 -0.00032,146.282176 C-0.00032,145.868681 0.33008,145.535321 0.74048,145.535321 Z M0.74048,141.315348 C1.15328,141.315348 1.48928,141.652715 1.48928,142.065409 C1.48928,142.473294 1.15328,142.807456 0.74048,142.807456 C0.33008,142.807456 -0.00032,142.473294 -0.00032,142.065409 C-0.00032,141.652715 0.33008,141.315348 0.74048,141.315348 Z M11.576,148.136172 C11.9888,148.136172 12.3216,148.469532 12.3216,148.883027 C12.3216,149.294118 11.9888,149.628279 11.576,149.628279 C11.1656,149.628279 10.832,149.294118 10.832,148.883027 C10.832,148.469532 11.1656,148.136172 11.576,148.136172 Z M8.85624,148.136172 C9.25544,148.136172 9.58824,148.469532 9.58824,148.883027 C9.58824,149.294118 9.25544,149.628279 8.85624,149.628279 C8.44584,149.628279 8.10744,149.294118 8.10744,148.883027 C8.10744,148.469532 8.44584,148.136172 8.85624,148.136172 Z M6.13272,148.136172 C6.54312,148.136172 6.87672,148.469532 6.87672,148.883027 C6.87672,149.294118 6.54312,149.628279 6.13272,149.628279 C5.71992,149.628279 5.38712,149.294118 5.38712,148.883027 C5.38712,148.469532 5.71992,148.136172 6.13272,148.136172 Z M3.40792,148.136172 C3.81832,148.136172 4.15192,148.469532 4.15192,148.883027 C4.15192,149.294118 3.81832,149.628279 3.40792,149.628279 C2.99512,149.628279 2.66232,149.294118 2.66232,148.883027 C2.66232,148.469532 2.99512,148.136172 3.40792,148.136172 Z M11.576,138.473532 C11.9888,138.473532 12.3216,138.806892 12.3216,139.218785 C12.3216,139.620259 11.9888,139.952017 11.576,139.952017 C11.1656,139.952017 10.832,139.620259 10.832,139.218785 C10.832,138.806892 11.1656,138.473532 11.576,138.473532 Z M8.85624,138.473532 C9.25544,138.473532 9.58824,138.806892 9.58824,139.218785 C9.58824,139.620259 9.25544,139.952017 8.85624,139.952017 C8.44584,139.952017 8.10744,139.620259 8.10744,139.218785 C8.10744,138.806892 8.44584,138.473532 8.85624,138.473532 Z M6.13272,138.473532 C6.54312,138.473532 6.87672,138.806892 6.87672,139.218785 C6.87672,139.620259 6.54312,139.952017 6.13272,139.952017 C5.71992,139.952017 5.38712,139.620259 5.38712,139.218785 C5.38712,138.806892 5.71992,138.473532 6.13272,138.473532 Z M3.40792,138.473532 C3.81832,138.473532 4.15192,138.806892 4.15192,139.218785 C4.15192,139.620259 3.81832,139.952017 3.40792,139.952017 C2.99512,139.952017 2.66232,139.620259 2.66232,139.218785 C2.66232,138.806892 2.99512,138.473532 3.40792,138.473532 Z M14.9872,128.58964 C15.4,128.58964 15.728,128.923001 15.728,129.336496 C15.728,129.749991 15.4,130.073735 14.9872,130.073735 C14.5744,130.073735 14.2432,129.749991 14.2432,129.336496 C14.2432,128.923001 14.5744,128.58964 14.9872,128.58964 Z M12.26408,128.58964 C12.67448,128.58964 13.00808,128.923001 13.00808,129.336496 C13.00808,129.749991 12.67448,130.073735 12.26408,130.073735 C11.84968,130.073735 11.51848,129.749991 11.51848,129.336496 C11.51848,128.923001 11.84968,128.58964 12.26408,128.58964 Z M9.53896,128.58964 C9.94936,128.58964 10.28296,128.923001 10.28296,129.336496 C10.28296,129.749991 9.94936,130.073735 9.53896,130.073735 C9.12616,130.073735 8.79496,129.749991 8.79496,129.336496 C8.79496,128.923001 9.12616,128.58964 9.53896,128.58964 Z M6.8188,128.58964 C7.2292,128.58964 7.5596,128.923001 7.5596,129.336496 C7.5596,129.749991 7.2292,130.073735 6.8188,130.073735 C6.4068,130.073735 6.0732,129.749991 6.0732,129.336496 C6.0732,128.923001 6.4068,128.58964 6.8188,128.58964 Z M4.094,128.58964 C4.5044,128.58964 4.838,128.923001 4.838,129.336496 C4.838,129.749991 4.5044,130.073735 4.094,130.073735 C3.6812,130.073735 3.35,129.749991 3.35,129.336496 C3.35,128.923001 3.6812,128.58964 4.094,128.58964 Z M1.38232,128.58964 C1.77992,128.58964 2.11432,128.923001 2.11432,129.336496 C2.11432,129.749991 1.77992,130.073735 1.38232,130.073735 C0.95672,130.073735 0.62472,129.749991 0.62472,129.336496 C0.62472,128.923001 0.95672,128.58964 1.38232,128.58964 Z M2.36704,131.319028 C2.77904,131.319028 3.11584,131.653189 3.11584,132.053061 C3.11584,132.476974 2.77904,132.797512 2.36704,132.797512 C1.95984,132.797512 1.62624,132.476974 1.62624,132.053061 C1.62624,131.653189 1.95984,131.319028 2.36704,131.319028 Z M3.47888,133.30196 C3.89808,133.30196 4.23088,133.635321 4.23088,134.048815 C4.23088,134.448688 3.89808,134.782048 3.47888,134.782048 C3.06608,134.782048 2.74128,134.448688 2.74128,134.048815 C2.74128,133.635321 3.06608,133.30196 3.47888,133.30196 Z M14.28968,117.957291 C14.71208,117.957291 15.04648,118.27783 15.04648,118.690523 C15.04648,119.104018 14.71208,119.435776 14.28968,119.435776 C13.88888,119.435776 13.55768,119.104018 13.55768,118.690523 C13.55768,118.27783 13.88888,117.957291 14.28968,117.957291 Z M14.28968,113.735556 C14.71208,113.735556 15.04648,114.069717 15.04648,114.474397 C15.04648,114.895906 14.71208,115.227663 14.28968,115.227663 C13.88888,115.227663 13.55768,114.895906 13.55768,114.474397 C13.55768,114.069717 13.88888,113.735556 14.28968,113.735556 Z M0.74048,117.957291 C1.15328,117.957291 1.48928,118.27783 1.48928,118.690523 C1.48928,119.104018 1.15328,119.435776 0.74048,119.435776 C0.33008,119.435776 -0.00032,119.104018 -0.00032,118.690523 C-0.00032,118.27783 0.33008,117.957291 0.74048,117.957291 Z M0.74048,113.735556 C1.15328,113.735556 1.48928,114.069717 1.48928,114.474397 C1.48928,114.895906 1.15328,115.227663 0.74048,115.227663 C0.33008,115.227663 -0.00032,114.895906 -0.00032,114.474397 C-0.00032,114.069717 0.33008,113.735556 0.74048,113.735556 Z M11.576,120.556379 C11.9888,120.556379 12.3216,120.889739 12.3216,121.303234 C12.3216,121.703106 11.9888,122.048487 11.576,122.048487 C11.1656,122.048487 10.832,121.703106 10.832,121.303234 C10.832,120.889739 11.1656,120.556379 11.576,120.556379 Z M8.85624,120.556379 C9.25544,120.556379 9.58824,120.889739 9.58824,121.303234 C9.58824,121.703106 9.25544,122.048487 8.85624,122.048487 C8.44584,122.048487 8.10744,121.703106 8.10744,121.303234 C8.10744,120.889739 8.44584,120.556379 8.85624,120.556379 Z M6.13272,120.556379 C6.54312,120.556379 6.87672,120.889739 6.87672,121.303234 C6.87672,121.703106 6.54312,122.048487 6.13272,122.048487 C5.71992,122.048487 5.38712,121.703106 5.38712,121.303234 C5.38712,120.889739 5.71992,120.556379 6.13272,120.556379 Z M3.40792,120.556379 C3.81832,120.556379 4.15192,120.889739 4.15192,121.303234 C4.15192,121.703106 3.81832,122.048487 3.40792,122.048487 C2.99512,122.048487 2.66232,121.703106 2.66232,121.303234 C2.66232,120.889739 2.99512,120.556379 3.40792,120.556379 Z M11.576,110.890374 C11.9888,110.890374 12.3216,111.215721 12.3216,111.627613 C12.3216,112.040306 11.9888,112.374468 11.576,112.374468 C11.1656,112.374468 10.832,112.040306 10.832,111.627613 C10.832,111.215721 11.1656,110.890374 11.576,110.890374 Z M8.85624,110.890374 C9.25544,110.890374 9.58824,111.215721 9.58824,111.627613 C9.58824,112.040306 9.25544,112.374468 8.85624,112.374468 C8.44584,112.374468 8.10744,112.040306 8.10744,111.627613 C8.10744,111.215721 8.44584,110.890374 8.85624,110.890374 Z M6.13272,110.890374 C6.54312,110.890374 6.87672,111.215721 6.87672,111.627613 C6.87672,112.040306 6.54312,112.374468 6.13272,112.374468 C5.71992,112.374468 5.38712,112.040306 5.38712,111.627613 C5.38712,111.215721 5.71992,110.890374 6.13272,110.890374 Z M3.40792,110.890374 C3.81832,110.890374 4.15192,111.215721 4.15192,111.627613 C4.15192,112.040306 3.81832,112.374468 3.40792,112.374468 C2.99512,112.374468 2.66232,112.040306 2.66232,111.627613 C2.66232,111.215721 2.99512,110.890374 3.40792,110.890374 Z M14.9872,101.003116 C15.4,101.003116 15.728,101.331669 15.728,101.745164 C15.728,102.158659 15.4,102.490416 14.9872,102.490416 C14.5744,102.490416 14.2432,102.158659 14.2432,101.745164 C14.2432,101.331669 14.5744,101.003116 14.9872,101.003116 Z M12.26408,101.003116 C12.67448,101.003116 13.00808,101.331669 13.00808,101.745164 C13.00808,102.158659 12.67448,102.490416 12.26408,102.490416 C11.84968,102.490416 11.51848,102.158659 11.51848,101.745164 C11.51848,101.331669 11.84968,101.003116 12.26408,101.003116 Z M9.53896,101.003116 C9.94936,101.003116 10.28296,101.331669 10.28296,101.745164 C10.28296,102.158659 9.94936,102.490416 9.53896,102.490416 C9.12616,102.490416 8.79496,102.158659 8.79496,101.745164 C8.79496,101.331669 9.12616,101.003116 9.53896,101.003116 Z M6.8188,101.003116 C7.2292,101.003116 7.5596,101.331669 7.5596,101.745164 C7.5596,102.158659 7.2292,102.490416 6.8188,102.490416 C6.4068,102.490416 6.0732,102.158659 6.0732,101.745164 C6.0732,101.331669 6.4068,101.003116 6.8188,101.003116 Z M4.094,101.003116 C4.5044,101.003116 4.838,101.331669 4.838,101.745164 C4.838,102.158659 4.5044,102.490416 4.094,102.490416 C3.6812,102.490416 3.35,102.158659 3.35,101.745164 C3.35,101.331669 3.6812,101.003116 4.094,101.003116 Z M1.38232,101.003116 C1.77992,101.003116 2.11432,101.331669 2.11432,101.745164 C2.11432,102.158659 1.77992,102.490416 1.38232,102.490416 C0.95672,102.490416 0.62472,102.158659 0.62472,101.745164 C0.62472,101.331669 0.95672,101.003116 1.38232,101.003116 Z M2.36704,103.740998 C2.77904,103.740998 3.11584,104.061537 3.11584,104.47423 C3.11584,104.886123 2.77904,105.219483 2.36704,105.219483 C1.95984,105.219483 1.62624,104.886123 1.62624,104.47423 C1.62624,104.061537 1.95984,103.740998 2.36704,103.740998 Z M3.47888,105.712071 C3.89808,105.712071 4.23088,106.046232 4.23088,106.457323 C4.23088,106.870017 3.89808,107.202576 3.47888,107.202576 C3.06608,107.202576 2.74128,106.870017 2.74128,106.457323 C2.74128,106.046232 3.06608,105.712071 3.47888,105.712071 Z M14.28968,90.3659589 C14.71208,90.3659589 15.04648,90.6993192 15.04648,91.1128141 C15.04648,91.5239051 14.71208,91.8580667 14.28968,91.8580667 C13.88888,91.8580667 13.55768,91.5239051 13.55768,91.1128141 C13.55768,90.6993192 13.88888,90.3659589 14.28968,90.3659589 Z M14.28968,86.1459865 C14.71208,86.1459865 15.04648,86.4865589 15.04648,86.8912391 C15.04648,87.3039327 14.71208,87.6364916 14.28968,87.6364916 C13.88888,87.6364916 13.55768,87.3039327 13.55768,86.8912391 C13.55768,86.4865589 13.88888,86.1459865 14.28968,86.1459865 Z M0.74048,90.3659589 C1.15328,90.3659589 1.48928,90.6993192 1.48928,91.1128141 C1.48928,91.5239051 1.15328,91.8580667 0.74048,91.8580667 C0.33008,91.8580667 -0.00032,91.5239051 -0.00032,91.1128141 C-0.00032,90.6993192 0.33008,90.3659589 0.74048,90.3659589 Z M0.74048,86.1459865 C1.15328,86.1459865 1.48928,86.4865589 1.48928,86.8912391 C1.48928,87.3039327 1.15328,87.6364916 0.74048,87.6364916 C0.33008,87.6364916 -0.00032,87.3039327 -0.00032,86.8912391 C-0.00032,86.4865589 0.33008,86.1459865 0.74048,86.1459865 Z M11.576,92.9664094 C11.9888,92.9664094 12.3216,93.300571 12.3216,93.7196754 C12.3216,94.1243556 11.9888,94.4569145 11.576,94.4569145 C11.1656,94.4569145 10.832,94.1243556 10.832,93.7196754 C10.832,93.300571 11.1656,92.9664094 11.576,92.9664094 Z M8.85624,92.9664094 C9.25544,92.9664094 9.58824,93.300571 9.58824,93.7196754 C9.58824,94.1243556 9.25544,94.4569145 8.85624,94.4569145 C8.44584,94.4569145 8.10744,94.1243556 8.10744,93.7196754 C8.10744,93.300571 8.44584,92.9664094 8.85624,92.9664094 Z M6.13272,92.9664094 C6.54312,92.9664094 6.87672,93.300571 6.87672,93.7196754 C6.87672,94.1243556 6.54312,94.4569145 6.13272,94.4569145 C5.71992,94.4569145 5.38712,94.1243556 5.38712,93.7196754 C5.38712,93.300571 5.71992,92.9664094 6.13272,92.9664094 Z M3.40792,92.9664094 C3.81832,92.9664094 4.15192,93.300571 4.15192,93.7196754 C4.15192,94.1243556 3.81832,94.4569145 3.40792,94.4569145 C2.99512,94.4569145 2.66232,94.1243556 2.66232,93.7196754 C2.66232,93.300571 2.99512,92.9664094 3.40792,92.9664094 Z M11.576,83.2991219 C11.9888,83.2991219 12.3216,83.6324822 12.3216,84.0443744 C12.3216,84.4490545 11.9888,84.7912296 11.576,84.7912296 C11.1656,84.7912296 10.832,84.4490545 10.832,84.0443744 C10.832,83.6324822 11.1656,83.2991219 11.576,83.2991219 Z M8.85624,83.2991219 C9.25544,83.2991219 9.58824,83.6324822 9.58824,84.0443744 C9.58824,84.4490545 9.25544,84.7912296 8.85624,84.7912296 C8.44584,84.7912296 8.10744,84.4490545 8.10744,84.0443744 C8.10744,83.6324822 8.44584,83.2991219 8.85624,83.2991219 Z M6.13272,83.2991219 C6.54312,83.2991219 6.87672,83.6324822 6.87672,84.0443744 C6.87672,84.4490545 6.54312,84.7912296 6.13272,84.7912296 C5.71992,84.7912296 5.38712,84.4490545 5.38712,84.0443744 C5.38712,83.6324822 5.71992,83.2991219 6.13272,83.2991219 Z M3.40792,83.2991219 C3.81832,83.2991219 4.15192,83.6324822 4.15192,84.0443744 C4.15192,84.4490545 3.81832,84.7912296 3.40792,84.7912296 C2.99512,84.7912296 2.66232,84.4490545 2.66232,84.0443744 C2.66232,83.6324822 2.99512,83.2991219 3.40792,83.2991219 Z M14.9872,73.4203589 C15.4,73.4203589 15.728,73.7457057 15.728,74.1672141 C15.728,74.5783051 15.4,74.8988438 14.9872,74.8988438 C14.5744,74.8988438 14.2432,74.5783051 14.2432,74.1672141 C14.2432,73.7457057 14.5744,73.4203589 14.9872,73.4203589 Z M12.26408,73.4203589 C12.67448,73.4203589 13.00808,73.7457057 13.00808,74.1672141 C13.00808,74.5783051 12.67448,74.8988438 12.26408,74.8988438 C11.84968,74.8988438 11.51848,74.5783051 11.51848,74.1672141 C11.51848,73.7457057 11.84968,73.4203589 12.26408,73.4203589 Z M9.53896,73.4203589 C9.94936,73.4203589 10.28296,73.7457057 10.28296,74.1672141 C10.28296,74.5783051 9.94936,74.8988438 9.53896,74.8988438 C9.12616,74.8988438 8.79496,74.5783051 8.79496,74.1672141 C8.79496,73.7457057 9.12616,73.4203589 9.53896,73.4203589 Z M6.8188,73.4203589 C7.2292,73.4203589 7.5596,73.7457057 7.5596,74.1672141 C7.5596,74.5783051 7.2292,74.8988438 6.8188,74.8988438 C6.4068,74.8988438 6.0732,74.5783051 6.0732,74.1672141 C6.0732,73.7457057 6.4068,73.4203589 6.8188,73.4203589 Z M4.094,73.4203589 C4.5044,73.4203589 4.838,73.7457057 4.838,74.1672141 C4.838,74.5783051 4.5044,74.8988438 4.094,74.8988438 C3.6812,74.8988438 3.35,74.5783051 3.35,74.1672141 C3.35,73.7457057 3.6812,73.4203589 4.094,73.4203589 Z M1.38232,73.4203589 C1.77992,73.4203589 2.11432,73.7457057 2.11432,74.1672141 C2.11432,74.5783051 1.77992,74.8988438 1.38232,74.8988438 C0.95672,74.8988438 0.62472,74.5783051 0.62472,74.1672141 C0.62472,73.7457057 0.95672,73.4203589 1.38232,73.4203589 Z M2.36704,76.1497461 C2.77904,76.1497461 3.11584,76.4702848 3.11584,76.8949987 C3.11584,77.2964734 2.77904,77.628231 2.36704,77.628231 C1.95984,77.628231 1.62624,77.2964734 1.62624,76.8949987 C1.62624,76.4702848 1.95984,76.1497461 2.36704,76.1497461 Z M3.47888,78.1293131 C3.89808,78.1293131 4.23088,78.4666801 4.23088,78.8745657 C4.23088,79.2792458 3.89808,79.6198182 3.47888,79.6198182 C3.06608,79.6198182 2.74128,79.2792458 2.74128,78.8745657 C2.74128,78.4666801 3.06608,78.1293131 3.47888,78.1293131 Z M14.28968,62.7828808 C14.71208,62.7828808 15.04648,63.1170424 15.04648,63.5201199 C15.04648,63.9328135 14.71208,64.2669751 14.28968,64.2669751 C13.88888,64.2669751 13.55768,63.9328135 13.55768,63.5201199 C13.55768,63.1170424 13.88888,62.7828808 14.28968,62.7828808 Z M14.28968,58.5661939 C14.71208,58.5661939 15.04648,58.9003556 15.04648,59.3130492 C15.04648,59.7209347 14.71208,60.0583017 14.28968,60.0583017 C13.88888,60.0583017 13.55768,59.7209347 13.55768,59.3130492 C13.55768,58.9003556 13.88888,58.5661939 14.28968,58.5661939 Z M0.74048,62.7828808 C1.15328,62.7828808 1.48928,63.1170424 1.48928,63.5201199 C1.48928,63.9328135 1.15328,64.2669751 0.74048,64.2669751 C0.33008,64.2669751 -0.00032,63.9328135 -0.00032,63.5201199 C-0.00032,63.1170424 0.33008,62.7828808 0.74048,62.7828808 Z M0.74048,58.5661939 C1.15328,58.5661939 1.48928,58.9003556 1.48928,59.3130492 C1.48928,59.7209347 1.15328,60.0583017 0.74048,60.0583017 C0.33008,60.0583017 -0.00032,59.7209347 -0.00032,59.3130492 C-0.00032,58.9003556 0.33008,58.5661939 0.74048,58.5661939 Z M11.576,65.3870175 C11.9888,65.3870175 12.3216,65.7155697 12.3216,66.1290646 C12.3216,66.5417582 11.9888,66.8735158 11.576,66.8735158 C11.1656,66.8735158 10.832,66.5417582 10.832,66.1290646 C10.832,65.7155697 11.1656,65.3870175 11.576,65.3870175 Z M8.85624,65.3870175 C9.25544,65.3870175 9.58824,65.7155697 9.58824,66.1290646 C9.58824,66.5417582 9.25544,66.8735158 8.85624,66.8735158 C8.44584,66.8735158 8.10744,66.5417582 8.10744,66.1290646 C8.10744,65.7155697 8.44584,65.3870175 8.85624,65.3870175 Z M6.13272,65.3870175 C6.54312,65.3870175 6.87672,65.7155697 6.87672,66.1290646 C6.87672,66.5417582 6.54312,66.8735158 6.13272,66.8735158 C5.71992,66.8735158 5.38712,66.5417582 5.38712,66.1290646 C5.38712,65.7155697 5.71992,65.3870175 6.13272,65.3870175 Z M3.40792,65.3870175 C3.81832,65.3870175 4.15192,65.7155697 4.15192,66.1290646 C4.15192,66.5417582 3.81832,66.8735158 3.40792,66.8735158 C2.99512,66.8735158 2.66232,66.5417582 2.66232,66.1290646 C2.66232,65.7155697 2.99512,65.3870175 3.40792,65.3870175 Z M11.576,55.7129987 C11.9888,55.7129987 12.3216,56.0415508 12.3216,56.4550458 C12.3216,56.8661367 11.9888,57.2051064 11.576,57.2051064 C11.1656,57.2051064 10.832,56.8661367 10.832,56.4550458 C10.832,56.0415508 11.1656,55.7129987 11.576,55.7129987 Z M8.85624,55.7129987 C9.25544,55.7129987 9.58824,56.0415508 9.58824,56.4550458 C9.58824,56.8661367 9.25544,57.2051064 8.85624,57.2051064 C8.44584,57.2051064 8.10744,56.8661367 8.10744,56.4550458 C8.10744,56.0415508 8.44584,55.7129987 8.85624,55.7129987 Z M6.13272,55.7129987 C6.54312,55.7129987 6.87672,56.0415508 6.87672,56.4550458 C6.87672,56.8661367 6.54312,57.2051064 6.13272,57.2051064 C5.71992,57.2051064 5.38712,56.8661367 5.38712,56.4550458 C5.38712,56.0415508 5.71992,55.7129987 6.13272,55.7129987 Z M3.40792,55.7129987 C3.81832,55.7129987 4.15192,56.0415508 4.15192,56.4550458 C4.15192,56.8661367 3.81832,57.2051064 3.40792,57.2051064 C2.99512,57.2051064 2.66232,56.8661367 2.66232,56.4550458 C2.66232,56.0415508 2.99512,55.7129987 3.40792,55.7129987 Z M14.9872,45.8290269 C15.4,45.8290269 15.728,46.1623872 15.728,46.5758822 C15.728,46.9869731 15.4,47.3211347 14.9872,47.3211347 C14.5744,47.3211347 14.2432,46.9869731 14.2432,46.5758822 C14.2432,46.1623872 14.5744,45.8290269 14.9872,45.8290269 Z M12.26408,45.8290269 C12.67448,45.8290269 13.00808,46.1623872 13.00808,46.5758822 C13.00808,46.9869731 12.67448,47.3211347 12.26408,47.3211347 C11.84968,47.3211347 11.51848,46.9869731 11.51848,46.5758822 C11.51848,46.1623872 11.84968,45.8290269 12.26408,45.8290269 Z M9.53896,45.8290269 C9.94936,45.8290269 10.28296,46.1623872 10.28296,46.5758822 C10.28296,46.9869731 9.94936,47.3211347 9.53896,47.3211347 C9.12616,47.3211347 8.79496,46.9869731 8.79496,46.5758822 C8.79496,46.1623872 9.12616,45.8290269 9.53896,45.8290269 Z M6.8188,45.8290269 C7.2292,45.8290269 7.5596,46.1623872 7.5596,46.5758822 C7.5596,46.9869731 7.2292,47.3211347 6.8188,47.3211347 C6.4068,47.3211347 6.0732,46.9869731 6.0732,46.5758822 C6.0732,46.1623872 6.4068,45.8290269 6.8188,45.8290269 Z M4.094,45.8290269 C4.5044,45.8290269 4.838,46.1623872 4.838,46.5758822 C4.838,46.9869731 4.5044,47.3211347 4.094,47.3211347 C3.6812,47.3211347 3.35,46.9869731 3.35,46.5758822 C3.35,46.1623872 3.6812,45.8290269 4.094,45.8290269 Z M1.38232,45.8290269 C1.77992,45.8290269 2.11432,46.1623872 2.11432,46.5758822 C2.11432,46.9869731 1.77992,47.3211347 1.38232,47.3211347 C0.95672,47.3211347 0.62472,46.9869731 0.62472,46.5758822 C0.62472,46.1623872 0.95672,45.8290269 1.38232,45.8290269 Z M2.36704,48.5669084 C2.77904,48.5669084 3.11584,48.8922552 3.11584,49.3033461 C3.11584,49.7168411 2.77904,50.0502013 2.36704,50.0502013 C1.95984,50.0502013 1.62624,49.7168411 1.62624,49.3033461 C1.62624,48.8922552 1.95984,48.5669084 2.36704,48.5669084 Z M3.47888,50.5411064 C3.89808,50.5411064 4.23088,50.8696586 4.23088,51.2967764 C4.23088,51.6990525 3.89808,52.0332141 3.47888,52.0332141 C3.06608,52.0332141 2.74128,51.6990525 2.74128,51.2967764 C2.74128,50.8696586 3.06608,50.5411064 3.47888,50.5411064 Z M14.28968,35.1915488 C14.71208,35.1915488 15.04648,35.5305185 15.04648,35.9416094 C15.04648,36.3494949 14.71208,36.6836566 14.28968,36.6836566 C13.88888,36.6836566 13.55768,36.3494949 13.55768,35.9416094 C13.55768,35.5305185 13.88888,35.1915488 14.28968,35.1915488 Z M14.28968,30.9834364 C14.71208,30.9834364 15.04648,31.3087832 15.04648,31.7214768 C15.04648,32.1413825 14.71208,32.4667293 14.28968,32.4667293 C13.88888,32.4667293 13.55768,32.1413825 13.55768,31.7214768 C13.55768,31.3087832 13.88888,30.9834364 14.28968,30.9834364 Z M0.74048,35.1915488 C1.15328,35.1915488 1.48928,35.5305185 1.48928,35.9416094 C1.48928,36.3494949 1.15328,36.6836566 0.74048,36.6836566 C0.33008,36.6836566 -0.00032,36.3494949 -0.00032,35.9416094 C-0.00032,35.5305185 0.33008,35.1915488 0.74048,35.1915488 Z M0.74048,30.9834364 C1.15328,30.9834364 1.48928,31.3087832 1.48928,31.7214768 C1.48928,32.1413825 1.15328,32.4667293 0.74048,32.4667293 C0.33008,32.4667293 -0.00032,32.1413825 -0.00032,31.7214768 C-0.00032,31.3087832 0.33008,30.9834364 0.74048,30.9834364 Z M11.576,37.7954451 C11.9888,37.7954451 12.3216,38.1376202 12.3216,38.5423003 C12.3216,38.9509872 11.9888,39.2875529 11.576,39.2875529 C11.1656,39.2875529 10.832,38.9509872 10.832,38.5423003 C10.832,38.1376202 11.1656,37.7954451 11.576,37.7954451 Z M8.85624,37.7954451 C9.25544,37.7954451 9.58824,38.1376202 9.58824,38.5423003 C9.58824,38.9509872 9.25544,39.2875529 8.85624,39.2875529 C8.44584,39.2875529 8.10744,38.9509872 8.10744,38.5423003 C8.10744,38.1376202 8.44584,37.7954451 8.85624,37.7954451 Z M6.13272,37.7954451 C6.54312,37.7954451 6.87672,38.1376202 6.87672,38.5423003 C6.87672,38.9509872 6.54312,39.2875529 6.13272,39.2875529 C5.71992,39.2875529 5.38712,38.9509872 5.38712,38.5423003 C5.38712,38.1376202 5.71992,37.7954451 6.13272,37.7954451 Z M3.40792,37.7954451 C3.81832,37.7954451 4.15192,38.1376202 4.15192,38.5423003 C4.15192,38.9509872 3.81832,39.2875529 3.40792,39.2875529 C2.99512,39.2875529 2.66232,38.9509872 2.66232,38.5423003 C2.66232,38.1376202 2.99512,37.7954451 3.40792,37.7954451 Z M11.576,28.1298404 C11.9888,28.1298404 12.3216,28.461598 12.3216,28.8750929 C12.3216,29.2877865 11.9888,29.6219481 11.576,29.6219481 C11.1656,29.6219481 10.832,29.2877865 10.832,28.8750929 C10.832,28.461598 11.1656,28.1298404 11.576,28.1298404 Z M8.85624,28.1298404 C9.25544,28.1298404 9.58824,28.461598 9.58824,28.8750929 C9.58824,29.2877865 9.25544,29.6219481 8.85624,29.6219481 C8.44584,29.6219481 8.10744,29.2877865 8.10744,28.8750929 C8.10744,28.461598 8.44584,28.1298404 8.85624,28.1298404 Z M6.13272,28.1298404 C6.54312,28.1298404 6.87672,28.461598 6.87672,28.8750929 C6.87672,29.2877865 6.54312,29.6219481 6.13272,29.6219481 C5.71992,29.6219481 5.38712,29.2877865 5.38712,28.8750929 C5.38712,28.461598 5.71992,28.1298404 6.13272,28.1298404 Z M3.40792,28.1298404 C3.81832,28.1298404 4.15192,28.461598 4.15192,28.8750929 C4.15192,29.2877865 3.81832,29.6219481 3.40792,29.6219481 C2.99512,29.6219481 2.66232,29.2877865 2.66232,28.8750929 C2.66232,28.461598 2.99512,28.1298404 3.40792,28.1298404 Z M14.9872,18.2509172 C15.4,18.2509172 15.728,18.5842774 15.728,18.9961697 C15.728,19.4088633 15.4,19.7430249 14.9872,19.7430249 C14.5744,19.7430249 14.2432,19.4088633 14.2432,18.9961697 C14.2432,18.5842774 14.5744,18.2509172 14.9872,18.2509172 Z M12.26408,18.2509172 C12.67448,18.2509172 13.00808,18.5842774 13.00808,18.9961697 C13.00808,19.4088633 12.67448,19.7430249 12.26408,19.7430249 C11.84968,19.7430249 11.51848,19.4088633 11.51848,18.9961697 C11.51848,18.5842774 11.84968,18.2509172 12.26408,18.2509172 Z M9.53896,18.2509172 C9.94936,18.2509172 10.28296,18.5842774 10.28296,18.9961697 C10.28296,19.4088633 9.94936,19.7430249 9.53896,19.7430249 C9.12616,19.7430249 8.79496,19.4088633 8.79496,18.9961697 C8.79496,18.5842774 9.12616,18.2509172 9.53896,18.2509172 Z M6.8188,18.2509172 C7.2292,18.2509172 7.5596,18.5842774 7.5596,18.9961697 C7.5596,19.4088633 7.2292,19.7430249 6.8188,19.7430249 C6.4068,19.7430249 6.0732,19.4088633 6.0732,18.9961697 C6.0732,18.5842774 6.4068,18.2509172 6.8188,18.2509172 Z M4.094,18.2509172 C4.5044,18.2509172 4.838,18.5842774 4.838,18.9961697 C4.838,19.4088633 4.5044,19.7430249 4.094,19.7430249 C3.6812,19.7430249 3.35,19.4088633 3.35,18.9961697 C3.35,18.5842774 3.6812,18.2509172 4.094,18.2509172 Z M1.38232,18.2509172 C1.77992,18.2509172 2.11432,18.5842774 2.11432,18.9961697 C2.11432,19.4088633 1.77992,19.7430249 1.38232,19.7430249 C0.95672,19.7430249 0.62472,19.4088633 0.62472,18.9961697 C0.62472,18.5842774 0.95672,18.2509172 1.38232,18.2509172 Z M2.36704,20.975336 C2.77904,20.975336 3.11584,21.3143057 3.11584,21.7253966 C3.11584,22.1332822 2.77904,22.4674438 2.36704,22.4674438 C1.95984,22.4674438 1.62624,22.1332822 1.62624,21.7253966 C1.62624,21.3143057 1.95984,20.975336 2.36704,20.975336 Z M3.47888,22.9582687 C3.89808,22.9582687 4.23088,23.291629 4.23088,23.7051239 C4.23088,24.1162148 3.89808,24.4503764 3.47888,24.4503764 C3.06608,24.4503764 2.74128,24.1162148 2.74128,23.7051239 C2.74128,23.291629 3.06608,22.9582687 3.47888,22.9582687 Z M14.28968,7.61351919 C14.71208,7.61351919 15.04648,7.94687946 15.04648,8.35075825 C15.04648,8.77146532 14.71208,9.10562694 14.28968,9.10562694 C13.88888,9.10562694 13.55768,8.77146532 13.55768,8.35075825 C13.55768,7.94687946 13.88888,7.61351919 14.28968,7.61351919 Z M14.28968,3.39691246 C14.71208,3.39691246 15.04648,3.73107407 15.04648,4.1389596 C15.04648,4.55005051 14.71208,4.88421212 14.28968,4.88421212 C13.88888,4.88421212 13.55768,4.55005051 13.55768,4.1389596 C13.55768,3.73107407 13.88888,3.39691246 14.28968,3.39691246 Z M0.74048,7.61351919 C1.15328,7.61351919 1.48928,7.94687946 1.48928,8.35075825 C1.48928,8.77146532 1.15328,9.10562694 0.74048,9.10562694 C0.33008,9.10562694 -0.00032,8.77146532 -0.00032,8.35075825 C-0.00032,7.94687946 0.33008,7.61351919 0.74048,7.61351919 Z M0.74048,3.39691246 C1.15328,3.39691246 1.48928,3.73107407 1.48928,4.1389596 C1.48928,4.55005051 1.15328,4.88421212 0.74048,4.88421212 C0.33008,4.88421212 -0.00032,4.55005051 -0.00032,4.1389596 C-0.00032,3.73107407 0.33008,3.39691246 0.74048,3.39691246 Z M11.576,10.2126875 C11.9888,10.2126875 12.3216,10.5460478 12.3216,10.9595428 C12.3216,11.3706337 11.9888,11.7047953 11.576,11.7047953 C11.1656,11.7047953 10.832,11.3706337 10.832,10.9595428 C10.832,10.5460478 11.1656,10.2126875 11.576,10.2126875 Z M8.85624,10.2126875 C9.25544,10.2126875 9.58824,10.5460478 9.58824,10.9595428 C9.58824,11.3706337 9.25544,11.7047953 8.85624,11.7047953 C8.44584,11.7047953 8.10744,11.3706337 8.10744,10.9595428 C8.10744,10.5460478 8.44584,10.2126875 8.85624,10.2126875 Z M6.13272,10.2126875 C6.54312,10.2126875 6.87672,10.5460478 6.87672,10.9595428 C6.87672,11.3706337 6.54312,11.7047953 6.13272,11.7047953 C5.71992,11.7047953 5.38712,11.3706337 5.38712,10.9595428 C5.38712,10.5460478 5.71992,10.2126875 6.13272,10.2126875 Z M3.40792,10.2126875 C3.81832,10.2126875 4.15192,10.5460478 4.15192,10.9595428 C4.15192,11.3706337 3.81832,11.7047953 3.40792,11.7047953 C2.99512,11.7047953 2.66232,11.3706337 2.66232,10.9595428 C2.66232,10.5460478 2.99512,10.2126875 3.40792,10.2126875 Z M11.576,0.550047811 C11.9888,0.550047811 12.3216,0.883408081 12.3216,1.29209495 C12.3216,1.69677508 11.9888,2.0309367 11.576,2.0309367 C11.1656,2.0309367 10.832,1.69677508 10.832,1.29209495 C10.832,0.883408081 11.1656,0.550047811 11.576,0.550047811 Z M8.85624,0.550047811 C9.25544,0.550047811 9.58824,0.883408081 9.58824,1.29209495 C9.58824,1.69677508 9.25544,2.0309367 8.85624,2.0309367 C8.44584,2.0309367 8.10744,1.69677508 8.10744,1.29209495 C8.10744,0.883408081 8.44584,0.550047811 8.85624,0.550047811 Z M6.13272,0.550047811 C6.54312,0.550047811 6.87672,0.883408081 6.87672,1.29209495 C6.87672,1.69677508 6.54312,2.0309367 6.13272,2.0309367 C5.71992,2.0309367 5.38712,1.69677508 5.38712,1.29209495 C5.38712,0.883408081 5.71992,0.550047811 6.13272,0.550047811 Z M3.40792,0.550047811 C3.81832,0.550047811 4.15192,0.883408081 4.15192,1.29209495 C4.15192,1.69677508 3.81832,2.0309367 3.40792,2.0309367 C2.99512,2.0309367 2.66232,1.69677508 2.66232,1.29209495 C2.66232,0.883408081 2.99512,0.550047811 3.40792,0.550047811 Z"/>
</svg>
