<svg xmlns="http://www.w3.org/2000/svg" width="626" height="626" viewBox="0 0 626 626">
  <g fill="none" fill-rule="evenodd" transform="translate(-20 -20)">
    <rect width="666" height="666"/>
    <path fill="#18D7F6" fill-opacity=".1" stroke="#18D7F6" d="M162.492901,71.6693206 C211.502174,39.6276288 270.075729,21 333,21 C505.312842,21 645,160.687158 645,333 C645,505.312842 505.312842,645 333,645 C326.619839,645 320.284407,644.808493 313.999138,644.430914 L316.910587,598.020499 C322.233002,598.338648 327.597658,598.5 333,598.5 C479.631601,598.5 598.5,479.631601 598.5,333 C598.5,186.368399 479.631601,67.5 333,67.5 C281.049306,67.5 232.583566,82.420864 191.654455,108.210918 L162.492901,71.6693206 Z M44.7533267,213.380824 L88.0746936,230.342846 C74.8225495,261.922988 67.5,296.606357 67.5,333 C67.5,425.826759 115.138451,507.526961 187.301094,554.986348 L158.732778,591.833404 C75.6419854,535.780041 21,440.77118 21,333 C21,290.622835 29.4486047,250.218947 44.7533267,213.380824 Z" opacity=".615"/>
    <g stroke="#18D7F6" opacity=".404" transform="rotate(-18 415.498 -77.411)">
      <path d="M209.098633 284.881721L98.3814818.682183024M210.222656 285.400225L90.8422921 2.64489537M208.979492 284.036039L83.902091 5.55683842M208.986328 283.817177L76.8799743 8.78409608M208.790039 283.769903L70.7695763 12.2439263M208.685547 283.736636L64.3218883 15.6357506M208.169922 283.038029L58.1158421 19.1071158M208.612305 283.656095L6.34196412 54.7675143M209.092773 282.983752L51.964829 22.6477033M208.393555 282.752634L46.1473684 25.9470369M208.327148 283.036278L40.6539787 29.5257132M207.799805 282.659836L35.162618 33.2292939M207.371094 282.076788L.555678409 60.0376873M207.817383 281.693343L29.1577325 37.4278048M22.7377592 41.6634376L209.592743 284.673567M17.5432245 45.6780679L209.534588 284.810875M12.4528417 50.5572355L210.444403 285.333599"/>
    </g>
    <path stroke="#18D7F6" stroke-width=".5" d="M574.5,390 C573.119288,390 572,388.880712 572,387.5 C572,386.119288 573.119288,385 574.5,385 C575.880712,385 577,386.119288 577,387.5 C577,388.880712 575.880712,390 574.5,390 Z M576.5,382 C575.119288,382 574,380.880712 574,379.5 C574,378.119288 575.119288,377 576.5,377 C577.880712,377 579,378.119288 579,379.5 C579,380.880712 577.880712,382 576.5,382 Z M578.5,374 C577.119288,374 576,372.880712 576,371.5 C576,370.119288 577.119288,369 578.5,369 C579.880712,369 581,370.119288 581,371.5 C581,372.880712 579.880712,374 578.5,374 Z M579.5,365 C578.119288,365 577,363.880712 577,362.5 C577,361.119288 578.119288,360 579.5,360 C580.880712,360 582,361.119288 582,362.5 C582,363.880712 580.880712,365 579.5,365 Z M580.5,356 C579.119288,356 578,354.880712 578,353.5 C578,352.119288 579.119288,351 580.5,351 C581.880712,351 583,352.119288 583,353.5 C583,354.880712 581.880712,356 580.5,356 Z M581.5,348 C580.119288,348 579,346.880712 579,345.5 C579,344.119288 580.119288,343 581.5,343 C582.880712,343 584,344.119288 584,345.5 C584,346.880712 582.880712,348 581.5,348 Z M581.5,339 C580.119288,339 579,337.880712 579,336.5 C579,335.119288 580.119288,334 581.5,334 C582.880712,334 584,335.119288 584,336.5 C584,337.880712 582.880712,339 581.5,339 Z M581.5,329 C580.119288,329 579,327.880712 579,326.5 C579,325.119288 580.119288,324 581.5,324 C582.880712,324 584,325.119288 584,326.5 C584,327.880712 582.880712,329 581.5,329 Z M581.5,319 C580.119288,319 579,317.880712 579,316.5 C579,315.119288 580.119288,314 581.5,314 C582.880712,314 584,315.119288 584,316.5 C584,317.880712 582.880712,319 581.5,319 Z M580.5,310 C579.119288,310 578,308.880712 578,307.5 C578,306.119288 579.119288,305 580.5,305 C581.880712,305 583,306.119288 583,307.5 C583,308.880712 581.880712,310 580.5,310 Z"/>
  </g>
</svg>
