<svg xmlns="http://www.w3.org/2000/svg" width="627" height="627" viewBox="0 0 627 627" xmlns:xlink="http://www.w3.org/1999/xlink">
  <defs>
    <path id="a" d="M0.609375,19.4921875 L38.765625,0.5859375 L157.730469,63.5585938 L165.152344,75.4921875 C165.152344,75.4921875 102.835609,85.1531159 74.4492187,75.4921875 C46.0628287,65.8312591 0.609375,19.4921875 0.609375,19.4921875 Z"/>
    <path id="c" d="M0.4140625,17.1679687 L21.0820312,45.625 L108.070313,45.9179687 L155.898437,114.738281 L148.003906,170.074219 L201.878906,165.414062 C201.878906,165.414062 196.625,63.796875 193.164063,62.2070312 C189.703125,60.6171875 84.6914063,0.46875 84.6914063,0.46875 L0.4140625,17.1679687 Z"/>
    <path id="e" d="M0.609375,19.4921875 L38.765625,0.5859375 L157.730469,63.5585938 L165.152344,75.4921875 C165.152344,75.4921875 102.835609,85.1531159 74.4492187,75.4921875 C46.0628287,65.8312591 0.609375,19.4921875 0.609375,19.4921875 Z"/>
    <path id="g" d="M0.4140625,17.1679687 L21.0820312,45.625 L108.070313,45.9179687 L155.898437,114.738281 L148.003906,170.074219 L201.878906,165.414062 C201.878906,165.414062 196.625,63.796875 193.164063,62.2070312 C189.703125,60.6171875 84.6914063,0.46875 84.6914063,0.46875 L0.4140625,17.1679687 Z"/>
    <path id="i" d="M0.609375,19.4921875 L38.765625,0.5859375 L157.730469,63.5585938 L165.152344,75.4921875 C165.152344,75.4921875 102.835609,85.1531159 74.4492187,75.4921875 C46.0628287,65.8312591 0.609375,19.4921875 0.609375,19.4921875 Z"/>
    <path id="k" d="M0.4140625,17.1679687 L21.0820312,45.625 L108.070313,45.9179687 L155.898437,114.738281 L148.003906,170.074219 L201.878906,165.414062 C201.878906,165.414062 196.625,63.796875 193.164063,62.2070312 C189.703125,60.6171875 84.6914063,0.46875 84.6914063,0.46875 L0.4140625,17.1679687 Z"/>
  </defs>
  <g fill="none" fill-rule="evenodd" transform="translate(-19 -19)">
    <rect width="666" height="666" fill="#102F59" opacity="0"/>
    <rect width="666" height="666"/>
    <g opacity=".788" transform="translate(20 20)">
      <path fill="#18D7F6" fill-opacity=".1" stroke="#18D7F6" d="M139.504993,56.5277984 C189.701927,21.1541677 249.441866,5.68434189e-14 311.817686,5.68434189e-14 C476.965142,5.68434189e-14 625,148.288405 625,316.160384 C625,484.032362 481.059028,625 315.911572,625 C308.580412,625 301.277596,624.722207 294.015055,624.1766 L296.769771,580.265204 C303.122536,580.752038 309.5115,581 315.925764,581 C457.556222,581 581,460.106154 581,316.139145 C581,172.172136 454.045305,45 312.414847,45 C260.076078,45 209.901298,62.3670344 167.438677,91.5307829 L139.504993,56.5277984 Z M24.6980258,197.791918 L66.3985774,214.119326 C52.6864322,245.988065 45,280.550454 45,316.139145 C45,405.901515 95.2626547,486.694354 167.439344,534.808035 L140.470759,569.591778 C57.5430903,513.314105 0,419.871619 0,316.160384 C0,274.882352 8.86795554,234.78838 24.6980258,197.791918 Z" opacity=".192"/>
      <g stroke="#18D7F6" transform="rotate(-18 342.36 -24.273)" opacity=".153">
        <path d="M209.098633 284.881721L98.3814818.682183024M210.222656 285.400225L90.8422921 2.64489537M208.979492 284.036039L83.902091 5.55683842M208.986328 283.817177L76.8799743 8.78409608M208.790039 283.769903L70.7695763 12.2439263M208.685547 283.736636L64.3218883 15.6357506M208.169922 283.038029L58.1158421 19.1071158M208.612305 283.656095L6.34196412 54.7675143M209.092773 282.983752L51.964829 22.6477033M208.393555 282.752634L46.1473684 25.9470369M208.327148 283.036278L40.6539787 29.5257132M207.799805 282.659836L35.162618 33.2292939M207.371094 282.076788L.555678409 60.0376873M207.817383 281.693343L29.1577325 37.4278048M22.7377592 41.6634376L209.592743 284.673567M17.5432245 45.6780679L209.534588 284.810875M12.4528417 50.5572355L210.444403 285.333599"/>
      </g>
      <circle cx="313" cy="313" r="159" stroke="#18D7F6" opacity=".258"/>
      <g transform="translate(196 352)">
        <mask id="b" fill="white">
          <use xlink:href="#a"/>
        </mask>
        <circle cx="117" cy="-39" r="114" stroke="#18D7F6" opacity=".413" mask="url(#b)"/>
      </g>
      <g transform="translate(247 182)">
        <mask id="d" fill="white">
          <use xlink:href="#c"/>
        </mask>
        <circle cx="66" cy="131" r="114" stroke="#18D7F6" opacity=".413" mask="url(#d)"/>
      </g>
      <circle cx="359" cy="417" r="4" stroke="#18D7F6" opacity=".843"/>
      <circle cx="210" cy="360" r="4" stroke="#18D7F6" opacity=".843"/>
      <circle cx="254" cy="215" r="4" stroke="#18D7F6" opacity=".843"/>
      <circle cx="419" cy="353" r="4" stroke="#18D7F6" opacity=".769"/>
      <path stroke="#18D7F6" d="M315.96764,528 C430.338242,528 528,427.168378 528,309.416667 C528,191.664956 427.370602,98 313,98 C198.629398,98 98,191.664956 98,309.416667 C98,427.168378 201.597038,528 315.96764,528 Z" opacity=".184"/>
      <path stroke="#18D7F6" d="M315.467249,539 C434.901889,539 539,437.052204 539,315.647189 C539,194.242175 431.94119,87 312.50655,87 C193.07191,87 87,194.242175 87,315.647189 C87,437.052204 196.032609,539 315.467249,539 Z" opacity=".199"/>
      <circle cx="313.5" cy="313.5" r="51.5" stroke="#18D7F6" opacity=".461"/>
      <circle cx="313" cy="313" r="68" stroke="#18D7F6" opacity=".461"/>
      <path stroke="#18D7F6" stroke-width=".5" d="M554.5,377 C553.119288,377 552,375.880712 552,374.5 C552,373.119288 553.119288,372 554.5,372 C555.880712,372 557,373.119288 557,374.5 C557,375.880712 555.880712,377 554.5,377 Z M556.5,369 C555.119288,369 554,367.880712 554,366.5 C554,365.119288 555.119288,364 556.5,364 C557.880712,364 559,365.119288 559,366.5 C559,367.880712 557.880712,369 556.5,369 Z M558.5,361 C557.119288,361 556,359.880712 556,358.5 C556,357.119288 557.119288,356 558.5,356 C559.880712,356 561,357.119288 561,358.5 C561,359.880712 559.880712,361 558.5,361 Z M559.5,352 C558.119288,352 557,350.880712 557,349.5 C557,348.119288 558.119288,347 559.5,347 C560.880712,347 562,348.119288 562,349.5 C562,350.880712 560.880712,352 559.5,352 Z M560.5,343 C559.119288,343 558,341.880712 558,340.5 C558,339.119288 559.119288,338 560.5,338 C561.880712,338 563,339.119288 563,340.5 C563,341.880712 561.880712,343 560.5,343 Z M561.5,335 C560.119288,335 559,333.880712 559,332.5 C559,331.119288 560.119288,330 561.5,330 C562.880712,330 564,331.119288 564,332.5 C564,333.880712 562.880712,335 561.5,335 Z M561.5,326 C560.119288,326 559,324.880712 559,323.5 C559,322.119288 560.119288,321 561.5,321 C562.880712,321 564,322.119288 564,323.5 C564,324.880712 562.880712,326 561.5,326 Z M561.5,316 C560.119288,316 559,314.880712 559,313.5 C559,312.119288 560.119288,311 561.5,311 C562.880712,311 564,312.119288 564,313.5 C564,314.880712 562.880712,316 561.5,316 Z M561.5,306 C560.119288,306 559,304.880712 559,303.5 C559,302.119288 560.119288,301 561.5,301 C562.880712,301 564,302.119288 564,303.5 C564,304.880712 562.880712,306 561.5,306 Z M560.5,297 C559.119288,297 558,295.880712 558,294.5 C558,293.119288 559.119288,292 560.5,292 C561.880712,292 563,293.119288 563,294.5 C563,295.880712 561.880712,297 560.5,297 Z"/>
      <path stroke="#18D7F6" stroke-width=".5" d="M211.180951,540.732967 C208.994824,540.732967 207.222618,538.91577 207.222618,536.674144 C207.222618,534.432517 208.994824,532.61532 211.180951,532.61532 C213.367078,532.61532 215.139285,534.432517 215.139285,536.674144 C215.139285,538.91577 213.367078,540.732967 211.180951,540.732967 Z M215.6679,528.251541 C213.481773,528.251541 211.709567,526.434344 211.709567,524.192717 C211.709567,521.951091 213.481773,520.133894 215.6679,520.133894 C217.854027,520.133894 219.626233,521.951091 219.626233,524.192717 C219.626233,526.434344 217.854027,528.251541 215.6679,528.251541 Z M219.241303,516.176851 C217.055176,516.176851 215.28297,514.359654 215.28297,512.118027 C215.28297,509.876401 217.055176,508.059204 219.241303,508.059204 C221.42743,508.059204 223.199637,509.876401 223.199637,512.118027 C223.199637,514.359654 221.42743,516.176851 219.241303,516.176851 Z M221.63811,503.392177 C219.451983,503.392177 217.679777,501.57498 217.679777,499.333354 C217.679777,497.091727 219.451983,495.27453 221.63811,495.27453 C223.824237,495.27453 225.596443,497.091727 225.596443,499.333354 C225.596443,501.57498 223.824237,503.392177 221.63811,503.392177 Z M223.121371,491.01424 C220.935244,491.01424 219.163038,489.197043 219.163038,486.955416 C219.163038,484.71379 220.935244,482.896593 223.121371,482.896593 C225.307498,482.896593 227.079704,484.71379 227.079704,486.955416 C227.079704,489.197043 225.307498,491.01424 223.121371,491.01424 Z M225.111441,478.93955 C222.925314,478.93955 221.153108,477.122353 221.153108,474.880727 C221.153108,472.6391 222.925314,470.821903 225.111441,470.821903 C227.297568,470.821903 229.069774,472.6391 229.069774,474.880727 C229.069774,477.122353 227.297568,478.93955 225.111441,478.93955 Z M225.418106,467.475158 C223.231978,467.475158 221.459772,465.657961 221.459772,463.416335 C221.459772,461.174709 223.231978,459.357511 225.418106,459.357511 C227.604233,459.357511 229.376439,461.174709 229.376439,463.416335 C229.376439,465.657961 227.604233,467.475158 225.418106,467.475158 Z M225.72477,454.387237 C223.538643,454.387237 221.766437,452.57004 221.766437,450.328414 C221.766437,448.086787 223.538643,446.26959 225.72477,446.26959 C227.910897,446.26959 229.683103,448.086787 229.683103,450.328414 C229.683103,452.57004 227.910897,454.387237 225.72477,454.387237 Z M225.314707,441.801935 C223.12858,441.801935 221.356373,439.984738 221.356373,437.743112 C221.356373,435.501485 223.12858,433.684288 225.314707,433.684288 C227.500834,433.684288 229.27304,435.501485 229.27304,437.743112 C229.27304,439.984738 227.500834,441.801935 225.314707,441.801935 Z M223.080879,429.116561 C220.894752,429.116561 219.122546,427.299364 219.122546,425.057737 C219.122546,422.816111 220.894752,420.998914 223.080879,420.998914 C225.267006,420.998914 227.039212,422.816111 227.039212,425.057737 C227.039212,427.299364 225.267006,429.116561 223.080879,429.116561 Z" transform="rotate(114 218.453 480.866)"/>
      <g stroke="#18D7F6" transform="translate(258 432)" opacity=".482">
        <path d="M.25390625 29.5820312L10.6484375 1.96679688M7.25390625 32.5820312L16.3339844 3.76953125M14.2539062 34.5820312L22.3066406 5.98242188M21.2539062 36.5820312L27.3496094 8.68359375M29.2539062 37.5820312L34.1640625 8.85351562M36.2539062 38.5820312L39.5917969 11.1621094M44.2539062 39.5820312L46.3095703 11.0571289M52.2539062 39.5820312L53.1352539 11.1411133M60.2539062 39.5820312L59.4995117 11.2216797M68.2539062 39.5820312L65.8525391 10.2558594M76.2539062 38.5820312L72.6875 9.73242188M84.2539062 37.5820312L78.9277344 8.41796875M92.2539062 35.5820312L85.6386719 7.81738281M100.253906 33.5820312L93.0976562 6.046875M108.253906 30.5820312L98.6601562 3.24707031M116.253906 27.5820312L105.157227.7109375"/>
      </g>
      <circle cx="247.5" cy="167.5" r="7.5" stroke="#18D7F6" stroke-width=".5"/>
    </g>
    <rect width="666" height="666"/>
    <g opacity=".788" transform="translate(20 20)">
      <path fill="#18D7F6" fill-opacity=".1" stroke="#18D7F6" d="M139.504993,56.5277984 C189.701927,21.1541677 249.441866,5.68434189e-14 311.817686,5.68434189e-14 C476.965142,5.68434189e-14 625,148.288405 625,316.160384 C625,484.032362 481.059028,625 315.911572,625 C308.580412,625 301.277596,624.722207 294.015055,624.1766 L296.769771,580.265204 C303.122536,580.752038 309.5115,581 315.925764,581 C457.556222,581 581,460.106154 581,316.139145 C581,172.172136 454.045305,45 312.414847,45 C260.076078,45 209.901298,62.3670344 167.438677,91.5307829 L139.504993,56.5277984 Z M24.6980258,197.791918 L66.3985774,214.119326 C52.6864322,245.988065 45,280.550454 45,316.139145 C45,405.901515 95.2626547,486.694354 167.439344,534.808035 L140.470759,569.591778 C57.5430903,513.314105 0,419.871619 0,316.160384 C0,274.882352 8.86795554,234.78838 24.6980258,197.791918 Z" opacity=".192"/>
      <g stroke="#18D7F6" transform="rotate(-18 342.36 -24.273)" opacity=".153">
        <path d="M209.098633 284.881721L98.3814818.682183024M210.222656 285.400225L90.8422921 2.64489537M208.979492 284.036039L83.902091 5.55683842M208.986328 283.817177L76.8799743 8.78409608M208.790039 283.769903L70.7695763 12.2439263M208.685547 283.736636L64.3218883 15.6357506M208.169922 283.038029L58.1158421 19.1071158M208.612305 283.656095L6.34196412 54.7675143M209.092773 282.983752L51.964829 22.6477033M208.393555 282.752634L46.1473684 25.9470369M208.327148 283.036278L40.6539787 29.5257132M207.799805 282.659836L35.162618 33.2292939M207.371094 282.076788L.555678409 60.0376873M207.817383 281.693343L29.1577325 37.4278048M22.7377592 41.6634376L209.592743 284.673567M17.5432245 45.6780679L209.534588 284.810875M12.4528417 50.5572355L210.444403 285.333599"/>
      </g>
      <circle cx="313" cy="313" r="159" stroke="#18D7F6" opacity=".258"/>
      <g transform="translate(196 352)">
        <mask id="f" fill="white">
          <use xlink:href="#e"/>
        </mask>
        <circle cx="117" cy="-39" r="114" stroke="#18D7F6" opacity=".413" mask="url(#f)"/>
      </g>
      <g transform="translate(247 182)">
        <mask id="h" fill="white">
          <use xlink:href="#g"/>
        </mask>
        <circle cx="66" cy="131" r="114" stroke="#18D7F6" opacity=".413" mask="url(#h)"/>
      </g>
      <circle cx="359" cy="417" r="4" stroke="#18D7F6" opacity=".843"/>
      <circle cx="210" cy="360" r="4" stroke="#18D7F6" opacity=".843"/>
      <circle cx="254" cy="215" r="4" stroke="#18D7F6" opacity=".843"/>
      <circle cx="419" cy="353" r="4" stroke="#18D7F6" opacity=".769"/>
      <path stroke="#18D7F6" d="M315.96764,528 C430.338242,528 528,427.168378 528,309.416667 C528,191.664956 427.370602,98 313,98 C198.629398,98 98,191.664956 98,309.416667 C98,427.168378 201.597038,528 315.96764,528 Z" opacity=".184"/>
      <path stroke="#18D7F6" d="M315.467249,539 C434.901889,539 539,437.052204 539,315.647189 C539,194.242175 431.94119,87 312.50655,87 C193.07191,87 87,194.242175 87,315.647189 C87,437.052204 196.032609,539 315.467249,539 Z" opacity=".199"/>
      <circle cx="313.5" cy="313.5" r="51.5" stroke="#18D7F6" opacity=".461"/>
      <circle cx="313" cy="313" r="68" stroke="#18D7F6" opacity=".461"/>
      <path stroke="#18D7F6" stroke-width=".5" d="M554.5,377 C553.119288,377 552,375.880712 552,374.5 C552,373.119288 553.119288,372 554.5,372 C555.880712,372 557,373.119288 557,374.5 C557,375.880712 555.880712,377 554.5,377 Z M556.5,369 C555.119288,369 554,367.880712 554,366.5 C554,365.119288 555.119288,364 556.5,364 C557.880712,364 559,365.119288 559,366.5 C559,367.880712 557.880712,369 556.5,369 Z M558.5,361 C557.119288,361 556,359.880712 556,358.5 C556,357.119288 557.119288,356 558.5,356 C559.880712,356 561,357.119288 561,358.5 C561,359.880712 559.880712,361 558.5,361 Z M559.5,352 C558.119288,352 557,350.880712 557,349.5 C557,348.119288 558.119288,347 559.5,347 C560.880712,347 562,348.119288 562,349.5 C562,350.880712 560.880712,352 559.5,352 Z M560.5,343 C559.119288,343 558,341.880712 558,340.5 C558,339.119288 559.119288,338 560.5,338 C561.880712,338 563,339.119288 563,340.5 C563,341.880712 561.880712,343 560.5,343 Z M561.5,335 C560.119288,335 559,333.880712 559,332.5 C559,331.119288 560.119288,330 561.5,330 C562.880712,330 564,331.119288 564,332.5 C564,333.880712 562.880712,335 561.5,335 Z M561.5,326 C560.119288,326 559,324.880712 559,323.5 C559,322.119288 560.119288,321 561.5,321 C562.880712,321 564,322.119288 564,323.5 C564,324.880712 562.880712,326 561.5,326 Z M561.5,316 C560.119288,316 559,314.880712 559,313.5 C559,312.119288 560.119288,311 561.5,311 C562.880712,311 564,312.119288 564,313.5 C564,314.880712 562.880712,316 561.5,316 Z M561.5,306 C560.119288,306 559,304.880712 559,303.5 C559,302.119288 560.119288,301 561.5,301 C562.880712,301 564,302.119288 564,303.5 C564,304.880712 562.880712,306 561.5,306 Z M560.5,297 C559.119288,297 558,295.880712 558,294.5 C558,293.119288 559.119288,292 560.5,292 C561.880712,292 563,293.119288 563,294.5 C563,295.880712 561.880712,297 560.5,297 Z"/>
      <path stroke="#18D7F6" stroke-width=".5" d="M211.180951,540.732967 C208.994824,540.732967 207.222618,538.91577 207.222618,536.674144 C207.222618,534.432517 208.994824,532.61532 211.180951,532.61532 C213.367078,532.61532 215.139285,534.432517 215.139285,536.674144 C215.139285,538.91577 213.367078,540.732967 211.180951,540.732967 Z M215.6679,528.251541 C213.481773,528.251541 211.709567,526.434344 211.709567,524.192717 C211.709567,521.951091 213.481773,520.133894 215.6679,520.133894 C217.854027,520.133894 219.626233,521.951091 219.626233,524.192717 C219.626233,526.434344 217.854027,528.251541 215.6679,528.251541 Z M219.241303,516.176851 C217.055176,516.176851 215.28297,514.359654 215.28297,512.118027 C215.28297,509.876401 217.055176,508.059204 219.241303,508.059204 C221.42743,508.059204 223.199637,509.876401 223.199637,512.118027 C223.199637,514.359654 221.42743,516.176851 219.241303,516.176851 Z M221.63811,503.392177 C219.451983,503.392177 217.679777,501.57498 217.679777,499.333354 C217.679777,497.091727 219.451983,495.27453 221.63811,495.27453 C223.824237,495.27453 225.596443,497.091727 225.596443,499.333354 C225.596443,501.57498 223.824237,503.392177 221.63811,503.392177 Z M223.121371,491.01424 C220.935244,491.01424 219.163038,489.197043 219.163038,486.955416 C219.163038,484.71379 220.935244,482.896593 223.121371,482.896593 C225.307498,482.896593 227.079704,484.71379 227.079704,486.955416 C227.079704,489.197043 225.307498,491.01424 223.121371,491.01424 Z M225.111441,478.93955 C222.925314,478.93955 221.153108,477.122353 221.153108,474.880727 C221.153108,472.6391 222.925314,470.821903 225.111441,470.821903 C227.297568,470.821903 229.069774,472.6391 229.069774,474.880727 C229.069774,477.122353 227.297568,478.93955 225.111441,478.93955 Z M225.418106,467.475158 C223.231978,467.475158 221.459772,465.657961 221.459772,463.416335 C221.459772,461.174709 223.231978,459.357511 225.418106,459.357511 C227.604233,459.357511 229.376439,461.174709 229.376439,463.416335 C229.376439,465.657961 227.604233,467.475158 225.418106,467.475158 Z M225.72477,454.387237 C223.538643,454.387237 221.766437,452.57004 221.766437,450.328414 C221.766437,448.086787 223.538643,446.26959 225.72477,446.26959 C227.910897,446.26959 229.683103,448.086787 229.683103,450.328414 C229.683103,452.57004 227.910897,454.387237 225.72477,454.387237 Z M225.314707,441.801935 C223.12858,441.801935 221.356373,439.984738 221.356373,437.743112 C221.356373,435.501485 223.12858,433.684288 225.314707,433.684288 C227.500834,433.684288 229.27304,435.501485 229.27304,437.743112 C229.27304,439.984738 227.500834,441.801935 225.314707,441.801935 Z M223.080879,429.116561 C220.894752,429.116561 219.122546,427.299364 219.122546,425.057737 C219.122546,422.816111 220.894752,420.998914 223.080879,420.998914 C225.267006,420.998914 227.039212,422.816111 227.039212,425.057737 C227.039212,427.299364 225.267006,429.116561 223.080879,429.116561 Z" transform="rotate(114 218.453 480.866)"/>
      <g stroke="#18D7F6" transform="translate(258 432)" opacity=".482">
        <path d="M.25390625 29.5820312L10.6484375 1.96679688M7.25390625 32.5820312L16.3339844 3.76953125M14.2539062 34.5820312L22.3066406 5.98242188M21.2539062 36.5820312L27.3496094 8.68359375M29.2539062 37.5820312L34.1640625 8.85351562M36.2539062 38.5820312L39.5917969 11.1621094M44.2539062 39.5820312L46.3095703 11.0571289M52.2539062 39.5820312L53.1352539 11.1411133M60.2539062 39.5820312L59.4995117 11.2216797M68.2539062 39.5820312L65.8525391 10.2558594M76.2539062 38.5820312L72.6875 9.73242188M84.2539062 37.5820312L78.9277344 8.41796875M92.2539062 35.5820312L85.6386719 7.81738281M100.253906 33.5820312L93.0976562 6.046875M108.253906 30.5820312L98.6601562 3.24707031M116.253906 27.5820312L105.157227.7109375"/>
      </g>
      <circle cx="247.5" cy="167.5" r="7.5" stroke="#18D7F6" stroke-width=".5"/>
    </g>
    <g>
      <rect width="666" height="666"/>
      <g opacity=".788" transform="translate(20 20)">
        <path fill="#18D7F6" fill-opacity=".1" stroke="#18D7F6" d="M139.504993,56.5277984 C189.701927,21.1541677 249.441866,5.68434189e-14 311.817686,5.68434189e-14 C476.965142,5.68434189e-14 625,148.288405 625,316.160384 C625,484.032362 481.059028,625 315.911572,625 C308.580412,625 301.277596,624.722207 294.015055,624.1766 L296.769771,580.265204 C303.122536,580.752038 309.5115,581 315.925764,581 C457.556222,581 581,460.106154 581,316.139145 C581,172.172136 454.045305,45 312.414847,45 C260.076078,45 209.901298,62.3670344 167.438677,91.5307829 L139.504993,56.5277984 Z M24.6980258,197.791918 L66.3985774,214.119326 C52.6864322,245.988065 45,280.550454 45,316.139145 C45,405.901515 95.2626547,486.694354 167.439344,534.808035 L140.470759,569.591778 C57.5430903,513.314105 0,419.871619 0,316.160384 C0,274.882352 8.86795554,234.78838 24.6980258,197.791918 Z" opacity=".192"/>
        <g stroke="#18D7F6" transform="rotate(-18 342.36 -24.273)" opacity=".153">
          <path d="M209.098633 284.881721L98.3814818.682183024M210.222656 285.400225L90.8422921 2.64489537M208.979492 284.036039L83.902091 5.55683842M208.986328 283.817177L76.8799743 8.78409608M208.790039 283.769903L70.7695763 12.2439263M208.685547 283.736636L64.3218883 15.6357506M208.169922 283.038029L58.1158421 19.1071158M208.612305 283.656095L6.34196412 54.7675143M209.092773 282.983752L51.964829 22.6477033M208.393555 282.752634L46.1473684 25.9470369M208.327148 283.036278L40.6539787 29.5257132M207.799805 282.659836L35.162618 33.2292939M207.371094 282.076788L.555678409 60.0376873M207.817383 281.693343L29.1577325 37.4278048M22.7377592 41.6634376L209.592743 284.673567M17.5432245 45.6780679L209.534588 284.810875M12.4528417 50.5572355L210.444403 285.333599"/>
        </g>
        <circle cx="313" cy="313" r="159" stroke="#18D7F6" opacity=".258"/>
        <g transform="translate(196 352)">
          <mask id="j" fill="white">
            <use xlink:href="#i"/>
          </mask>
          <circle cx="117" cy="-39" r="114" stroke="#18D7F6" opacity=".413" mask="url(#j)"/>
        </g>
        <g transform="translate(247 182)">
          <mask id="l" fill="white">
            <use xlink:href="#k"/>
          </mask>
          <circle cx="66" cy="131" r="114" stroke="#18D7F6" opacity=".413" mask="url(#l)"/>
        </g>
        <circle cx="359" cy="417" r="4" stroke="#18D7F6" opacity=".843"/>
        <circle cx="210" cy="360" r="4" stroke="#18D7F6" opacity=".843"/>
        <circle cx="254" cy="215" r="4" stroke="#18D7F6" opacity=".843"/>
        <circle cx="419" cy="353" r="4" stroke="#18D7F6" opacity=".769"/>
        <path stroke="#18D7F6" d="M315.96764,528 C430.338242,528 528,427.168378 528,309.416667 C528,191.664956 427.370602,98 313,98 C198.629398,98 98,191.664956 98,309.416667 C98,427.168378 201.597038,528 315.96764,528 Z" opacity=".184"/>
        <path stroke="#18D7F6" d="M315.467249,539 C434.901889,539 539,437.052204 539,315.647189 C539,194.242175 431.94119,87 312.50655,87 C193.07191,87 87,194.242175 87,315.647189 C87,437.052204 196.032609,539 315.467249,539 Z" opacity=".199"/>
        <circle cx="313.5" cy="313.5" r="51.5" stroke="#18D7F6" opacity=".461"/>
        <circle cx="313" cy="313" r="68" stroke="#18D7F6" opacity=".461"/>
        <path stroke="#18D7F6" stroke-width=".5" d="M554.5,377 C553.119288,377 552,375.880712 552,374.5 C552,373.119288 553.119288,372 554.5,372 C555.880712,372 557,373.119288 557,374.5 C557,375.880712 555.880712,377 554.5,377 Z M556.5,369 C555.119288,369 554,367.880712 554,366.5 C554,365.119288 555.119288,364 556.5,364 C557.880712,364 559,365.119288 559,366.5 C559,367.880712 557.880712,369 556.5,369 Z M558.5,361 C557.119288,361 556,359.880712 556,358.5 C556,357.119288 557.119288,356 558.5,356 C559.880712,356 561,357.119288 561,358.5 C561,359.880712 559.880712,361 558.5,361 Z M559.5,352 C558.119288,352 557,350.880712 557,349.5 C557,348.119288 558.119288,347 559.5,347 C560.880712,347 562,348.119288 562,349.5 C562,350.880712 560.880712,352 559.5,352 Z M560.5,343 C559.119288,343 558,341.880712 558,340.5 C558,339.119288 559.119288,338 560.5,338 C561.880712,338 563,339.119288 563,340.5 C563,341.880712 561.880712,343 560.5,343 Z M561.5,335 C560.119288,335 559,333.880712 559,332.5 C559,331.119288 560.119288,330 561.5,330 C562.880712,330 564,331.119288 564,332.5 C564,333.880712 562.880712,335 561.5,335 Z M561.5,326 C560.119288,326 559,324.880712 559,323.5 C559,322.119288 560.119288,321 561.5,321 C562.880712,321 564,322.119288 564,323.5 C564,324.880712 562.880712,326 561.5,326 Z M561.5,316 C560.119288,316 559,314.880712 559,313.5 C559,312.119288 560.119288,311 561.5,311 C562.880712,311 564,312.119288 564,313.5 C564,314.880712 562.880712,316 561.5,316 Z M561.5,306 C560.119288,306 559,304.880712 559,303.5 C559,302.119288 560.119288,301 561.5,301 C562.880712,301 564,302.119288 564,303.5 C564,304.880712 562.880712,306 561.5,306 Z M560.5,297 C559.119288,297 558,295.880712 558,294.5 C558,293.119288 559.119288,292 560.5,292 C561.880712,292 563,293.119288 563,294.5 C563,295.880712 561.880712,297 560.5,297 Z"/>
        <path stroke="#18D7F6" stroke-width=".5" d="M211.180951,540.732967 C208.994824,540.732967 207.222618,538.91577 207.222618,536.674144 C207.222618,534.432517 208.994824,532.61532 211.180951,532.61532 C213.367078,532.61532 215.139285,534.432517 215.139285,536.674144 C215.139285,538.91577 213.367078,540.732967 211.180951,540.732967 Z M215.6679,528.251541 C213.481773,528.251541 211.709567,526.434344 211.709567,524.192717 C211.709567,521.951091 213.481773,520.133894 215.6679,520.133894 C217.854027,520.133894 219.626233,521.951091 219.626233,524.192717 C219.626233,526.434344 217.854027,528.251541 215.6679,528.251541 Z M219.241303,516.176851 C217.055176,516.176851 215.28297,514.359654 215.28297,512.118027 C215.28297,509.876401 217.055176,508.059204 219.241303,508.059204 C221.42743,508.059204 223.199637,509.876401 223.199637,512.118027 C223.199637,514.359654 221.42743,516.176851 219.241303,516.176851 Z M221.63811,503.392177 C219.451983,503.392177 217.679777,501.57498 217.679777,499.333354 C217.679777,497.091727 219.451983,495.27453 221.63811,495.27453 C223.824237,495.27453 225.596443,497.091727 225.596443,499.333354 C225.596443,501.57498 223.824237,503.392177 221.63811,503.392177 Z M223.121371,491.01424 C220.935244,491.01424 219.163038,489.197043 219.163038,486.955416 C219.163038,484.71379 220.935244,482.896593 223.121371,482.896593 C225.307498,482.896593 227.079704,484.71379 227.079704,486.955416 C227.079704,489.197043 225.307498,491.01424 223.121371,491.01424 Z M225.111441,478.93955 C222.925314,478.93955 221.153108,477.122353 221.153108,474.880727 C221.153108,472.6391 222.925314,470.821903 225.111441,470.821903 C227.297568,470.821903 229.069774,472.6391 229.069774,474.880727 C229.069774,477.122353 227.297568,478.93955 225.111441,478.93955 Z M225.418106,467.475158 C223.231978,467.475158 221.459772,465.657961 221.459772,463.416335 C221.459772,461.174709 223.231978,459.357511 225.418106,459.357511 C227.604233,459.357511 229.376439,461.174709 229.376439,463.416335 C229.376439,465.657961 227.604233,467.475158 225.418106,467.475158 Z M225.72477,454.387237 C223.538643,454.387237 221.766437,452.57004 221.766437,450.328414 C221.766437,448.086787 223.538643,446.26959 225.72477,446.26959 C227.910897,446.26959 229.683103,448.086787 229.683103,450.328414 C229.683103,452.57004 227.910897,454.387237 225.72477,454.387237 Z M225.314707,441.801935 C223.12858,441.801935 221.356373,439.984738 221.356373,437.743112 C221.356373,435.501485 223.12858,433.684288 225.314707,433.684288 C227.500834,433.684288 229.27304,435.501485 229.27304,437.743112 C229.27304,439.984738 227.500834,441.801935 225.314707,441.801935 Z M223.080879,429.116561 C220.894752,429.116561 219.122546,427.299364 219.122546,425.057737 C219.122546,422.816111 220.894752,420.998914 223.080879,420.998914 C225.267006,420.998914 227.039212,422.816111 227.039212,425.057737 C227.039212,427.299364 225.267006,429.116561 223.080879,429.116561 Z" transform="rotate(114 218.453 480.866)"/>
        <g stroke="#18D7F6" transform="translate(258 432)" opacity=".482">
          <path d="M.25390625 29.5820312L10.6484375 1.96679688M7.25390625 32.5820312L16.3339844 3.76953125M14.2539062 34.5820312L22.3066406 5.98242188M21.2539062 36.5820312L27.3496094 8.68359375M29.2539062 37.5820312L34.1640625 8.85351562M36.2539062 38.5820312L39.5917969 11.1621094M44.2539062 39.5820312L46.3095703 11.0571289M52.2539062 39.5820312L53.1352539 11.1411133M60.2539062 39.5820312L59.4995117 11.2216797M68.2539062 39.5820312L65.8525391 10.2558594M76.2539062 38.5820312L72.6875 9.73242188M84.2539062 37.5820312L78.9277344 8.41796875M92.2539062 35.5820312L85.6386719 7.81738281M100.253906 33.5820312L93.0976562 6.046875M108.253906 30.5820312L98.6601562 3.24707031M116.253906 27.5820312L105.157227.7109375"/>
        </g>
        <circle cx="247.5" cy="167.5" r="7.5" stroke="#18D7F6" stroke-width=".5"/>
      </g>
    </g>
  </g>
</svg>
