<svg xmlns="http://www.w3.org/2000/svg" width="454" height="454" viewBox="0 0 454 454">
  <g fill="none" fill-rule="evenodd" stroke="#18D7F6" transform="translate(1 1)">
    <circle cx="226" cy="226" r="213" opacity=".5"/>
    <circle cx="226" cy="226" r="226" opacity=".503"/>
    <path stroke-width=".5" d="M124.180951,456.732967 C121.994824,456.732967 120.222618,454.91577 120.222618,452.674144 C120.222618,450.432517 121.994824,448.61532 124.180951,448.61532 C126.367078,448.61532 128.139285,450.432517 128.139285,452.674144 C128.139285,454.91577 126.367078,456.732967 124.180951,456.732967 Z M128.6679,444.251541 C126.481773,444.251541 124.709567,442.434344 124.709567,440.192717 C124.709567,437.951091 126.481773,436.133894 128.6679,436.133894 C130.854027,436.133894 132.626233,437.951091 132.626233,440.192717 C132.626233,442.434344 130.854027,444.251541 128.6679,444.251541 Z M132.241303,432.176851 C130.055176,432.176851 128.28297,430.359654 128.28297,428.118027 C128.28297,425.876401 130.055176,424.059204 132.241303,424.059204 C134.42743,424.059204 136.199637,425.876401 136.199637,428.118027 C136.199637,430.359654 134.42743,432.176851 132.241303,432.176851 Z M134.63811,419.392177 C132.451983,419.392177 130.679777,417.57498 130.679777,415.333354 C130.679777,413.091727 132.451983,411.27453 134.63811,411.27453 C136.824237,411.27453 138.596443,413.091727 138.596443,415.333354 C138.596443,417.57498 136.824237,419.392177 134.63811,419.392177 Z M136.121371,407.01424 C133.935244,407.01424 132.163038,405.197043 132.163038,402.955416 C132.163038,400.71379 133.935244,398.896593 136.121371,398.896593 C138.307498,398.896593 140.079704,400.71379 140.079704,402.955416 C140.079704,405.197043 138.307498,407.01424 136.121371,407.01424 Z M138.111441,394.93955 C135.925314,394.93955 134.153108,393.122353 134.153108,390.880727 C134.153108,388.6391 135.925314,386.821903 138.111441,386.821903 C140.297568,386.821903 142.069774,388.6391 142.069774,390.880727 C142.069774,393.122353 140.297568,394.93955 138.111441,394.93955 Z M138.418106,383.475158 C136.231978,383.475158 134.459772,381.657961 134.459772,379.416335 C134.459772,377.174709 136.231978,375.357511 138.418106,375.357511 C140.604233,375.357511 142.376439,377.174709 142.376439,379.416335 C142.376439,381.657961 140.604233,383.475158 138.418106,383.475158 Z M138.72477,370.387237 C136.538643,370.387237 134.766437,368.57004 134.766437,366.328414 C134.766437,364.086787 136.538643,362.26959 138.72477,362.26959 C140.910897,362.26959 142.683103,364.086787 142.683103,366.328414 C142.683103,368.57004 140.910897,370.387237 138.72477,370.387237 Z M138.314707,357.801935 C136.12858,357.801935 134.356373,355.984738 134.356373,353.743112 C134.356373,351.501485 136.12858,349.684288 138.314707,349.684288 C140.500834,349.684288 142.27304,351.501485 142.27304,353.743112 C142.27304,355.984738 140.500834,357.801935 138.314707,357.801935 Z M136.080879,345.116561 C133.894752,345.116561 132.122546,343.299364 132.122546,341.057737 C132.122546,338.816111 133.894752,336.998914 136.080879,336.998914 C138.267006,336.998914 140.039212,338.816111 140.039212,341.057737 C140.039212,343.299364 138.267006,345.116561 136.080879,345.116561 Z" transform="rotate(114 131.453 396.866)"/>
  </g>
</svg>
