<svg xmlns="http://www.w3.org/2000/svg" width="320" height="320" viewBox="0 0 320 320" xmlns:xlink="http://www.w3.org/1999/xlink">
  <defs>
    <path id="a" d="M0.609375,19.4921875 L38.765625,0.5859375 L157.730469,63.5585938 L165.152344,75.4921875 C165.152344,75.4921875 102.835609,85.1531159 74.4492187,75.4921875 C46.0628287,65.8312591 0.609375,19.4921875 0.609375,19.4921875 Z"/>
    <path id="c" d="M0.4140625,17.1679687 L21.0820312,45.625 L108.070313,45.9179687 L155.898437,114.738281 L148.003906,170.074219 L201.878906,165.414062 C201.878906,165.414062 196.625,63.796875 193.164063,62.2070312 C189.703125,60.6171875 84.6914063,0.46875 84.6914063,0.46875 L0.4140625,17.1679687 Z"/>
  </defs>
  <g fill="none" fill-rule="evenodd" transform="translate(-173 -173)">
    <rect width="666" height="666" fill="#102F59" opacity="0"/>
    <g transform="translate(174 174)">
      <circle cx="159" cy="159" r="159" stroke="#18D7F6" opacity=".596"/>
      <g transform="translate(42 198)">
        <mask id="b" fill="white">
          <use xlink:href="#a"/>
        </mask>
        <circle cx="117" cy="-39" r="114" stroke="#18D7F6" opacity=".413" mask="url(#b)"/>
      </g>
      <g transform="translate(93 28)">
        <mask id="d" fill="white">
          <use xlink:href="#c"/>
        </mask>
        <circle cx="66" cy="131" r="114" stroke="#18D7F6" opacity=".413" mask="url(#d)"/>
      </g>
      <circle cx="134.5" cy="24.5" r="7.5" stroke="#18D7F6" stroke-width=".5"/>
      <circle cx="205" cy="263" r="4" stroke="#18D7F6" opacity=".843"/>
      <circle cx="56" cy="206" r="4" stroke="#18D7F6" opacity=".843"/>
      <circle cx="100" cy="61" r="4" stroke="#18D7F6" opacity=".843"/>
      <circle cx="265" cy="199" r="4" stroke="#18D7F6" opacity=".769"/>
      <g stroke="#18D7F6" opacity=".482" transform="translate(104 278)">
        <path d="M.25390625 29.5820312L10.6484375 1.96679688M7.25390625 32.5820312L16.3339844 3.76953125M14.2539062 34.5820312L22.3066406 5.98242188M21.2539062 36.5820312L27.3496094 8.68359375M29.2539062 37.5820312L34.1640625 8.85351562M36.2539062 38.5820312L39.5917969 11.1621094M44.2539062 39.5820312L46.3095703 11.0571289M52.2539062 39.5820312L53.1352539 11.1411133M60.2539062 39.5820312L59.4995117 11.2216797M68.2539062 39.5820312L65.8525391 10.2558594M76.2539062 38.5820312L72.6875 9.73242188M84.2539062 37.5820312L78.9277344 8.41796875M92.2539062 35.5820312L85.6386719 7.81738281M100.253906 33.5820312L93.0976562 6.046875M108.253906 30.5820312L98.6601562 3.24707031M116.253906 27.5820312L105.157227.7109375"/>
      </g>
    </g>
  </g>
</svg>
